<svg width="37" height="37" viewBox="0 0 37 37" fill="none" xmlns="http://www.w3.org/2000/svg">
<g filter="url(#filter0_d_2231_127567)">
<g filter="url(#filter1_d_2231_127567)">
<path fill-rule="evenodd" clip-rule="evenodd" d="M25.6549 13.4628C26.309 14.0079 26.3974 14.98 25.8523 15.6341L18.144 24.8841C17.8667 25.2169 17.4622 25.4176 17.0295 25.4373C16.5968 25.4569 16.1758 25.2936 15.8695 24.9873L11.2445 20.3623C10.6425 19.7602 10.6425 18.7841 11.2445 18.1821C11.8466 17.58 12.8227 17.58 13.4248 18.1821L16.856 21.6133L23.4836 13.6602C24.0287 13.0061 25.0008 12.9178 25.6549 13.4628Z" fill="#40415C"/>
</g>
<path d="M18.5007 33.9173C27.015 33.9173 33.9173 27.015 33.9173 18.5007C33.9173 9.98626 27.015 3.08398 18.5007 3.08398C9.98626 3.08398 3.08398 9.98626 3.08398 18.5007C3.08398 27.015 9.98626 33.9173 18.5007 33.9173Z" stroke="#40415C" stroke-width="2"/>
</g>
<defs>
<filter id="filter0_d_2231_127567" x="-1.91602" y="-1.91602" width="40.834" height="40.834" filterUnits="userSpaceOnUse" color-interpolation-filters="sRGB">
<feFlood flood-opacity="0" result="BackgroundImageFix"/>
<feColorMatrix in="SourceAlpha" type="matrix" values="0 0 0 0 0 0 0 0 0 0 0 0 0 0 0 0 0 0 127 0" result="hardAlpha"/>
<feOffset/>
<feGaussianBlur stdDeviation="2"/>
<feComposite in2="hardAlpha" operator="out"/>
<feColorMatrix type="matrix" values="0 0 0 0 0 0 0 0 0 0.639216 0 0 0 0 1 0 0 0 0.74 0"/>
<feBlend mode="normal" in2="BackgroundImageFix" result="effect1_dropShadow_2231_127567"/>
<feBlend mode="normal" in="SourceGraphic" in2="effect1_dropShadow_2231_127567" result="shape"/>
</filter>
<filter id="filter1_d_2231_127567" x="6.79297" y="9.10547" width="23.416" height="20.334" filterUnits="userSpaceOnUse" color-interpolation-filters="sRGB">
<feFlood flood-opacity="0" result="BackgroundImageFix"/>
<feColorMatrix in="SourceAlpha" type="matrix" values="0 0 0 0 0 0 0 0 0 0 0 0 0 0 0 0 0 0 127 0" result="hardAlpha"/>
<feOffset/>
<feGaussianBlur stdDeviation="2"/>
<feComposite in2="hardAlpha" operator="out"/>
<feColorMatrix type="matrix" values="0 0 0 0 0 0 0 0 0 0.639216 0 0 0 0 1 0 0 0 0.74 0"/>
<feBlend mode="normal" in2="BackgroundImageFix" result="effect1_dropShadow_2231_127567"/>
<feBlend mode="normal" in="SourceGraphic" in2="effect1_dropShadow_2231_127567" result="shape"/>
</filter>
</defs>
</svg>
