<svg width="1130" height="391" viewBox="0 0 1130 391" fill="none" xmlns="http://www.w3.org/2000/svg">
<g clip-path="url(#clip0)">
<path d="M0 20C0 8.9543 8.95431 0 20 0H1110C1121.05 0 1130 8.9543 1130 20V371C1130 382.046 1121.05 391 1110 391H20C8.95431 391 0 382.046 0 371V20Z" fill="url(#paint0_linear)"/>
<g style="mix-blend-mode:overlay">
<path d="M20 0.5H1110C1120.77 0.5 1129.5 9.2304 1129.5 20V371C1129.5 381.77 1120.77 390.5 1110 390.5H20C9.23046 390.5 0.5 381.77 0.5 371V20C0.5 9.2305 9.23045 0.5 20 0.5Z" stroke="white" stroke-opacity="0.5"/>
</g>
<g filter="url(#filter0_f)">
<path d="M564.5 344C659.217 344 736 304.825 736 256.5C736 208.175 659.217 169 564.5 169C469.783 169 393 208.175 393 256.5C393 304.825 469.783 344 564.5 344Z" fill="url(#paint1_radial)" fill-opacity="0.1"/>
</g>
<path style="mix-blend-mode:screen" opacity="0.5" d="M921.506 61.4391L921.356 61.196L579 246.124L579.39 246.75L579.33 246.834L579.49 246.918L840.269 388.196H842.27L829.259 381.139L859.344 364.848L889.44 381.149L876.429 388.196H878.43L890.44 381.653L902.451 388.196H904.452L891.441 381.149L921.536 364.848L951.632 381.149L938.621 388.196H940.622L952.633 381.653L964.643 388.196H966.644L953.633 381.149L983.719 364.848L1013.81 381.139L1000.8 388.196H1002.8L1129.06 319.805V318.721L1108.11 330.068L1078.02 313.786L1108.11 297.494L1129.06 308.813V307.738L1109.11 296.952L1129.06 286.147V285.072L1108.11 296.41L1078.02 280.137L1108.11 263.845L1129.06 275.164V274.09L1109.11 263.303L1129.06 252.508V251.423L1108.11 262.761L1078.02 246.498L1108.11 230.206L1129.06 241.525V240.45L1109.11 229.664L1129.06 218.868V217.793L1108.11 229.131L1078.02 212.868L1108.11 196.576L1129 207.942V206.858L1109.05 196.081L1129 185.294V184.21L1108.05 195.548L1077.96 179.284L1108.05 163.002L1129 174.293V173.209L921.657 61.196L921.506 61.4391ZM890.42 78.955L920.506 95.209L890.42 111.473L860.325 95.209L890.42 78.955ZM921.506 229.131L891.421 212.849L921.506 196.585L951.602 212.849L921.506 229.131ZM952.602 213.391L982.688 229.664L952.602 245.984L922.507 229.711L952.602 213.391ZM920.506 229.673L890.42 245.984L860.325 229.701L890.42 213.428L920.506 229.673ZM890.42 212.316L860.325 196.071L890.42 179.808L920.506 196.081L890.42 212.316ZM889.42 212.849L859.324 229.159L829.209 212.877L859.294 196.613L889.42 212.849ZM858.334 229.673L828.208 245.974L798.183 229.692L828.208 213.419L858.334 229.673ZM827.238 246.498L797.182 262.789L767.057 246.498L797.182 230.234L827.238 246.498ZM828.238 247.04L858.334 263.322L828.208 279.614L798.183 263.331L828.238 247.04ZM829.239 246.498L859.324 230.225L889.42 246.507L859.324 262.78L829.239 246.498ZM890.42 247.049L920.506 263.322L890.42 279.604L860.325 263.322L890.42 247.049ZM891.421 246.507L921.506 230.225L951.602 246.507L921.506 262.808L891.421 246.507ZM952.602 247.049L982.688 263.322L952.602 279.604L922.507 263.322L952.602 247.049ZM953.603 246.507L983.698 230.225L1013.79 246.498L983.698 262.78L953.603 246.507ZM983.698 229.14L953.613 212.868L983.698 196.595L1013.79 212.858L983.698 229.14ZM952.612 212.316L922.517 196.043L952.612 179.77L982.698 196.034L952.612 212.316ZM921.516 195.492L891.431 179.219L921.516 162.955L951.612 179.219L921.516 195.492ZM890.43 178.667L860.335 162.395L890.43 146.131L920.516 162.404L890.43 178.667ZM889.43 179.21L859.334 195.473L829.209 179.256L859.294 162.993L889.43 179.21ZM858.344 196.034L828.208 212.344L798.183 196.062L828.208 179.798L858.344 196.034ZM827.248 212.858L797.182 229.15L767.057 212.868L797.182 196.604L827.248 212.858ZM796.162 229.683L766.066 245.946L735.971 229.655L766.066 213.391L796.162 229.683ZM765.066 246.507L734.97 262.77L704.885 246.479L734.97 230.215L765.066 246.507ZM766.066 247.049L796.182 263.322L766.056 279.595L735.961 263.303L766.066 247.049ZM797.152 263.873L827.208 280.156L797.182 296.429L767.057 280.137L797.152 263.873ZM828.248 280.698L858.344 296.989L828.208 313.262L798.183 296.971L828.248 280.698ZM829.249 280.156L859.334 263.883L889.43 280.165L859.334 296.447L829.249 280.156ZM890.43 280.707L920.526 296.989L890.43 313.272L860.335 296.989L890.43 280.707ZM891.431 280.165L921.516 263.883L951.612 280.165L921.516 296.447L891.431 280.165ZM952.612 280.707L982.698 296.989L952.612 313.272L922.517 296.989L952.612 280.707ZM953.613 280.165L983.698 263.883L1013.79 280.156L983.698 296.447L953.613 280.165ZM1014.79 280.698L1044.88 296.971L1014.79 313.262L984.699 296.989L1014.79 280.698ZM1014.79 279.614L984.699 263.341L1014.79 247.058L1044.88 263.331L1014.79 279.614ZM1014.79 245.965L984.699 229.692L1014.79 213.41L1044.88 229.683L1014.79 245.965ZM1014.79 212.316L984.689 196.071L1014.78 179.798L1044.87 196.062L1014.79 212.316ZM983.698 195.492L953.613 179.228L983.698 162.955L1013.79 179.219L983.698 195.492ZM952.612 178.667L922.517 162.404L952.612 146.131L982.698 162.395L952.612 178.667ZM921.516 161.843L891.431 145.58L921.506 129.428L951.602 145.692L921.516 161.843ZM890.43 145.019L860.325 128.839L890.42 112.604L920.516 128.867L890.43 145.019ZM889.43 145.561L859.334 161.824L829.209 145.645L859.324 129.428L889.43 145.561ZM858.344 162.385L828.208 178.714L798.183 162.441L828.208 146.178L858.344 162.385ZM827.248 179.21L797.182 195.52L767.057 179.238L797.182 162.983L827.248 179.21ZM796.162 196.034L766.066 212.297L735.971 196.006L766.066 179.752L796.162 196.034ZM765.066 212.858L734.98 229.122L704.885 212.83L734.97 196.567L765.066 212.858ZM733.98 229.683L703.884 245.946L673.779 229.636L703.874 213.372L733.98 229.683ZM702.884 246.507L672.798 262.77L642.693 246.432L672.778 230.178L702.884 246.507ZM703.884 247.049L733.98 263.341L703.884 279.614L673.779 263.275L703.884 247.049ZM734.97 263.873L765.066 280.165L734.97 296.438L704.885 280.137L734.97 263.873ZM766.066 280.698L796.182 296.971L766.056 313.253L735.961 296.952L766.066 280.698ZM797.152 297.522L827.208 313.804L797.182 330.087L767.057 313.786L797.152 297.522ZM828.248 314.346L858.344 330.638L828.208 346.93L798.183 330.629L828.248 314.346ZM829.249 313.804L859.334 297.522L889.43 313.814L859.324 330.105L829.249 313.804ZM890.43 314.356L920.526 330.647L890.43 346.939L860.335 330.638L890.43 314.356ZM891.431 313.814L921.516 297.531L951.612 313.814L921.506 330.105L891.431 313.814ZM952.612 314.356L982.698 330.638L952.612 346.939L922.517 330.647L952.612 314.356ZM953.613 313.814L983.708 297.522L1013.8 313.804L983.688 330.105L953.613 313.814ZM1014.8 314.346L1044.89 330.629L1014.78 346.93L984.689 330.638L1014.8 314.346ZM1015.81 313.804L1045.9 297.513L1076 313.786L1045.9 330.087L1015.81 313.804ZM1045.9 296.429L1015.81 280.156L1045.9 263.864L1076 280.137L1045.9 296.429ZM1045.9 262.78L1015.81 246.507L1045.9 230.225L1076 246.488L1045.9 262.78ZM1045.9 229.131L1015.81 212.858L1045.9 196.585L1076 212.849L1045.9 229.131ZM1045.9 195.482L1015.81 179.219L1045.9 162.946L1076 179.2L1045.9 195.482ZM1014.81 178.658L984.719 162.395L1014.81 146.122L1044.9 162.385L1014.81 178.658ZM983.719 161.834L953.623 145.57L983.688 129.428L1013.78 145.692L983.719 161.834ZM952.633 145.009L922.537 128.746L952.602 112.604L982.688 128.858L952.633 145.009ZM921.536 128.185L891.421 112.043L921.506 95.779L951.602 112.043L921.536 128.185ZM859.324 95.779L889.42 112.043L859.324 128.307L829.209 112.034L859.324 95.779ZM828.208 112.604L858.334 128.849L828.208 145.103L798.183 128.83L828.208 112.604ZM797.182 129.372L827.208 145.645L797.182 161.899L767.057 145.626L797.182 129.372ZM766.096 146.196L796.182 162.441L766.056 178.695L735.961 162.423L766.096 146.196ZM735 163.021L765.096 179.303L735.01 195.567L704.915 179.275L735 163.021ZM703.914 179.845L734.01 196.127L703.914 212.391L673.779 196.006L703.914 179.845ZM672.818 196.669L702.914 212.961L672.788 229.094L642.693 212.802L672.818 196.669ZM641.732 213.494L671.828 229.785L641.692 245.89L611.597 229.598L641.732 213.494ZM580.511 246.385L610.606 230.131L640.692 246.432L610.606 262.696L580.511 246.385ZM611.597 263.21L641.692 246.956L671.788 263.275L641.692 279.539L611.597 263.21ZM642.693 280.034L672.788 263.771L702.874 280.062L672.788 296.382L642.693 280.034ZM673.779 296.859L703.874 280.586L733.97 296.887L703.874 313.159L673.779 296.859ZM704.875 313.683L734.96 297.41L765.056 313.702L734.96 329.984L704.875 313.683ZM735.961 330.507L766.056 314.225L796.182 330.629L766.056 346.911L735.961 330.507ZM767.057 347.332L797.182 331.171L827.208 347.472L797.182 363.745L767.057 347.332ZM828.329 380.429L828.419 380.569L798.183 364.296L828.208 348.005L858.304 364.305L828.329 380.429ZM829.239 347.35L859.324 331.059L889.42 347.35L859.324 363.642L829.239 347.35ZM890.42 380.485L860.325 364.184L890.42 347.892L920.516 364.193L890.42 380.485ZM891.421 347.35L921.506 331.068L951.602 347.35L921.506 363.651L891.421 347.35ZM952.602 380.485L922.507 364.315L952.602 348.014L982.698 364.305L952.602 380.485ZM983.688 363.661L953.593 347.369L983.688 331.077L1013.78 347.369L983.688 363.661ZM1014.59 380.588L1014.69 380.447L984.669 364.203L1014.76 347.902L1044.85 364.193L1014.59 380.588ZM1045.84 363.67L1015.76 347.397L1045.85 331.096L1075.95 347.378L1045.84 363.67ZM1107.05 330.507L1076.97 346.808L1046.87 330.526L1076.97 314.225L1107.05 330.507ZM1107.05 296.859L1076.97 313.159L1046.87 296.877L1076.97 280.586L1107.05 296.859ZM1107.05 263.21L1076.97 279.501L1046.87 263.228L1076.97 246.946L1107.05 263.21ZM1107.05 229.561L1076.97 245.853L1046.87 229.589L1076.97 213.298L1107.05 229.561ZM1107.05 195.912L1076.97 212.204L1046.87 195.94L1076.97 179.658L1107.05 195.912ZM1107.05 162.264L1076.96 178.537L1046.87 162.282L1076.97 146.009L1107.05 162.264ZM1075.97 145.439L1045.87 161.712L1015.78 145.645L1045.87 129.372L1075.97 145.439ZM1044.87 128.615L1014.78 145.103L984.689 128.849L1014.78 112.604L1044.87 128.615ZM1013.78 111.791L983.688 128.307L953.593 112.043L983.688 95.779L1013.78 111.791ZM982.688 94.966L952.602 111.23L922.507 94.966L952.602 78.955L982.688 94.966ZM921.506 94.424L891.421 78.45L921.506 62.1962L951.602 78.45L921.506 94.424Z" fill="url(#paint2_linear)"/>
<g style="mix-blend-mode:screen" opacity="0.4">
<g style="mix-blend-mode:color-dodge" opacity="0.4">
<g style="mix-blend-mode:color-dodge" opacity="0.4">
<path d="M604.913 342.796L625.5 331.468L679.535 336.599L665.994 295.455L709.42 286.061L709.49 286.024L739.785 268.302L795.572 273.789L785.714 245.664L833.023 252.87L833.184 251.945L784.253 244.495L794.141 272.714L739.545 267.339L709.03 285.192L664.723 294.772L678.134 335.525L625.28 330.515L625.14 330.589L604.402 341.993L604.913 342.796Z" fill="#393B61"/>
</g>
</g>
<g style="mix-blend-mode:color-dodge" opacity="0.4">
<g style="mix-blend-mode:color-dodge" opacity="0.4">
<path d="M662.963 296.492C663.728 296.854 664.573 297.043 665.43 297.043C666.287 297.043 667.133 296.854 667.897 296.492C669.258 295.754 669.268 294.567 667.897 293.837C667.134 293.475 666.291 293.287 665.435 293.287C664.58 293.287 663.736 293.475 662.973 293.837C661.612 294.567 661.602 295.763 662.963 296.492Z" fill="#393B61"/>
</g>
</g>
<g style="mix-blend-mode:color-dodge" opacity="0.4">
<g style="mix-blend-mode:color-dodge" opacity="0.4">
<path d="M706.596 286.874C707.359 287.236 708.203 287.425 709.059 287.425C709.914 287.425 710.758 287.236 711.521 286.874C712.892 286.136 712.902 284.949 711.521 284.21C710.755 283.851 709.91 283.664 709.054 283.664C708.197 283.664 707.352 283.851 706.586 284.21C705.245 284.949 705.235 286.145 706.596 286.874Z" fill="#393B61"/>
</g>
</g>
<g style="mix-blend-mode:color-dodge" opacity="0.4">
<g style="mix-blend-mode:color-dodge" opacity="0.4">
<path d="M737.245 269.171C738.009 269.533 738.854 269.722 739.712 269.722C740.569 269.722 741.414 269.533 742.179 269.171C743.55 268.433 743.55 267.246 742.179 266.517C741.414 266.155 740.569 265.966 739.712 265.966C738.854 265.966 738.009 266.155 737.245 266.517C735.903 267.199 735.893 268.395 737.245 269.171Z" fill="#393B61"/>
</g>
</g>
<g style="mix-blend-mode:color-dodge" opacity="0.4">
<g style="mix-blend-mode:color-dodge" opacity="0.4">
<path d="M675.971 337.347C676.734 337.709 677.578 337.898 678.434 337.898C679.289 337.898 680.133 337.709 680.896 337.347C682.267 336.609 682.277 335.422 680.896 334.693C680.132 334.328 679.286 334.138 678.429 334.138C677.571 334.138 676.725 334.328 675.961 334.693C674.62 335.422 674.61 336.618 675.971 337.347Z" fill="#393B61"/>
</g>
</g>
<g style="mix-blend-mode:color-dodge" opacity="0.4">
<g style="mix-blend-mode:color-dodge" opacity="0.4">
<path d="M622.968 332.384C623.733 332.746 624.578 332.935 625.435 332.935C626.292 332.935 627.138 332.746 627.902 332.384C629.263 331.646 629.273 330.459 627.902 329.73C627.138 329.367 626.292 329.179 625.435 329.179C624.578 329.179 623.733 329.367 622.968 329.73C621.617 330.459 621.607 331.655 622.968 332.384Z" fill="#393B61"/>
</g>
</g>
<g style="mix-blend-mode:color-dodge" opacity="0.4">
<g style="mix-blend-mode:color-dodge" opacity="0.4">
<path d="M602.011 343.656C602.776 344.018 603.621 344.207 604.478 344.207C605.335 344.207 606.181 344.018 606.945 343.656C608.306 342.918 608.316 341.731 606.945 340.992C606.18 340.633 605.335 340.446 604.478 340.446C603.621 340.446 602.776 340.633 602.011 340.992C600.66 341.731 600.65 342.927 602.011 343.656Z" fill="#393B61"/>
</g>
</g>
<g style="mix-blend-mode:color-dodge" opacity="0.4">
<g style="mix-blend-mode:color-dodge" opacity="0.4">
<path d="M792.19 274.518C792.955 274.877 793.8 275.064 794.657 275.064C795.513 275.064 796.358 274.877 797.124 274.518C798.485 273.779 798.495 272.592 797.124 271.854C796.361 271.492 795.517 271.303 794.662 271.303C793.806 271.303 792.963 271.492 792.2 271.854C790.839 272.592 790.839 273.779 792.19 274.518Z" fill="#393B61"/>
</g>
</g>
<g style="mix-blend-mode:color-dodge" opacity="0.4">
<g style="mix-blend-mode:color-dodge" opacity="0.4">
<path d="M782.422 246.215C783.184 246.577 784.028 246.766 784.884 246.766C785.739 246.766 786.583 246.577 787.346 246.215C788.717 245.477 788.727 244.29 787.346 243.552C786.58 243.192 785.735 243.005 784.879 243.005C784.022 243.005 783.177 243.192 782.412 243.552C781.061 244.29 781.051 245.486 782.422 246.215Z" fill="#393B61"/>
</g>
</g>
<g style="mix-blend-mode:color-dodge" opacity="0.4">
<g style="mix-blend-mode:color-dodge" opacity="0.4">
<path d="M830.964 253.571C831.727 253.933 832.57 254.122 833.426 254.122C834.281 254.122 835.125 253.933 835.888 253.571C837.259 252.833 837.269 251.646 835.888 250.907C835.123 250.545 834.278 250.357 833.421 250.357C832.563 250.357 831.718 250.545 830.954 250.907C829.613 251.646 829.603 252.833 830.964 253.571Z" fill="#393B61"/>
</g>
</g>
<g style="mix-blend-mode:color-dodge" opacity="0.4">
<g style="mix-blend-mode:color-dodge" opacity="0.4">
<path d="M646.788 386.736L677.543 369.706L741.807 370.201L718.788 324.271L772.633 319.579L754.157 296.464L803.689 302.68L834.094 286.584L894.705 286.154V285.22L833.834 285.65L833.714 285.706L803.489 301.717L751.936 295.24L770.761 318.803L717.277 323.467L740.226 369.248L677.273 368.771L646.277 385.932L646.788 386.736Z" fill="#393B61"/>
</g>
</g>
<g style="mix-blend-mode:color-dodge" opacity="0.4">
<g style="mix-blend-mode:color-dodge" opacity="0.4">
<path d="M715.645 325.252C716.408 325.614 717.252 325.803 718.107 325.803C718.963 325.803 719.807 325.614 720.569 325.252C721.941 324.514 721.951 323.317 720.569 322.588C719.805 322.226 718.96 322.038 718.102 322.038C717.245 322.038 716.4 322.226 715.635 322.588C714.294 323.327 714.284 324.514 715.645 325.252Z" fill="#393B61"/>
</g>
</g>
<g style="mix-blend-mode:color-dodge" opacity="0.4">
<g style="mix-blend-mode:color-dodge" opacity="0.4">
<path d="M769.06 320.448C769.825 320.807 770.67 320.994 771.527 320.994C772.384 320.994 773.229 320.807 773.994 320.448C775.365 319.71 775.365 318.513 773.994 317.784C773.229 317.422 772.384 317.233 771.527 317.233C770.67 317.233 769.825 317.422 769.06 317.784C767.719 318.523 767.709 319.71 769.06 320.448Z" fill="#393B61"/>
</g>
</g>
<g style="mix-blend-mode:color-dodge" opacity="0.4">
<g style="mix-blend-mode:color-dodge" opacity="0.4">
<path d="M750.634 297.156C751.396 297.518 752.24 297.706 753.096 297.706C753.951 297.706 754.795 297.518 755.558 297.156C756.929 296.417 756.939 295.23 755.558 294.492C754.792 294.133 753.947 293.945 753.091 293.945C752.234 293.945 751.389 294.133 750.624 294.492C749.282 295.23 749.272 296.427 750.634 297.156Z" fill="#393B61"/>
</g>
</g>
<g style="mix-blend-mode:color-dodge" opacity="0.4">
<g style="mix-blend-mode:color-dodge" opacity="0.4">
<path d="M738.153 371.052C738.917 371.414 739.762 371.603 740.62 371.603C741.477 371.603 742.322 371.414 743.087 371.052C744.448 370.314 744.458 369.127 743.087 368.388C742.324 368.026 741.48 367.837 740.625 367.837C739.769 367.837 738.925 368.026 738.163 368.388C736.801 369.089 736.801 370.276 738.153 371.052Z" fill="#393B61"/>
</g>
</g>
<g style="mix-blend-mode:color-dodge" opacity="0.4">
<g style="mix-blend-mode:color-dodge" opacity="0.4">
<path d="M674.983 370.631C675.747 370.996 676.592 371.186 677.45 371.186C678.307 371.186 679.153 370.996 679.917 370.631C681.278 369.902 681.288 368.706 679.917 367.977C679.154 367.615 678.31 367.426 677.455 367.426C676.599 367.426 675.756 367.615 674.993 367.977C673.632 368.715 673.622 369.902 674.983 370.631Z" fill="#393B61"/>
</g>
</g>
<g style="mix-blend-mode:color-dodge" opacity="0.4">
<g style="mix-blend-mode:color-dodge" opacity="0.4">
<path d="M643.883 387.596C644.646 387.958 645.49 388.147 646.345 388.147C647.201 388.147 648.045 387.958 648.808 387.596C650.179 386.858 650.179 385.671 648.808 384.941C648.044 384.577 647.198 384.387 646.34 384.387C645.483 384.387 644.637 384.577 643.873 384.941C642.532 385.671 642.522 386.867 643.883 387.596Z" fill="#393B61"/>
</g>
</g>
<g style="mix-blend-mode:color-dodge" opacity="0.4">
<g style="mix-blend-mode:color-dodge" opacity="0.4">
<path d="M800.929 303.465C801.691 303.827 802.535 304.016 803.391 304.016C804.246 304.016 805.09 303.827 805.853 303.465C807.224 302.726 807.234 301.539 805.853 300.801C805.087 300.442 804.242 300.255 803.386 300.255C802.529 300.255 801.684 300.442 800.919 300.801C799.577 301.539 799.567 302.736 800.929 303.465Z" fill="#393B61"/>
</g>
</g>
<g style="mix-blend-mode:color-dodge" opacity="0.4">
<g style="mix-blend-mode:color-dodge" opacity="0.4">
<path d="M831.393 287.248C832.157 287.61 833.003 287.799 833.86 287.799C834.717 287.799 835.562 287.61 836.327 287.248C837.688 286.51 837.698 285.323 836.327 284.584C835.564 284.222 834.721 284.033 833.865 284.033C833.009 284.033 832.166 284.222 831.403 284.584C830.042 285.323 830.032 286.51 831.393 287.248Z" fill="#393B61"/>
</g>
</g>
<g style="mix-blend-mode:color-dodge" opacity="0.4">
<g style="mix-blend-mode:color-dodge" opacity="0.4">
<path d="M892.514 286.846C893.288 287.22 894.147 287.414 895.018 287.412C895.889 287.411 896.746 287.213 897.519 286.837C898.89 286.108 898.89 284.911 897.519 284.182C896.754 283.82 895.909 283.631 895.051 283.631C894.194 283.631 893.349 283.82 892.584 284.182C891.213 284.93 891.203 286.117 892.514 286.846Z" fill="#393B61"/>
</g>
</g>
</g>
<g style="mix-blend-mode:screen" opacity="0.5">
<g style="mix-blend-mode:color-dodge" opacity="0.6">
<g style="mix-blend-mode:color-dodge" opacity="0.6">
<path d="M947.98 329.32L960.331 335.984L966.297 332.759L953.956 326.104L947.98 329.32Z" fill="#202348"/>
</g>
</g>
<g style="mix-blend-mode:color-dodge" opacity="0.8">
<g style="mix-blend-mode:color-dodge" opacity="0.8">
<path d="M957.197 324.357L969.548 331.012L976.173 327.441L963.823 320.777L957.197 324.357Z" fill="#202348"/>
</g>
</g>
<g style="mix-blend-mode:color-dodge" opacity="0.3">
<g style="mix-blend-mode:color-dodge" opacity="0.3">
<path d="M929.545 339.265L941.895 345.92L946.559 343.406L934.209 336.751L929.545 339.265Z" fill="#202348"/>
</g>
</g>
<g style="mix-blend-mode:color-dodge" opacity="0.15">
<g style="mix-blend-mode:color-dodge" opacity="0.15">
<path d="M923.289 342.676L935.639 349.331L938.041 348.219L925.691 341.564L923.289 342.676Z" fill="#202348"/>
</g>
</g>
<g style="mix-blend-mode:color-dodge" opacity="0.5">
<g style="mix-blend-mode:color-dodge" opacity="0.5">
<path d="M938.762 334.292L951.112 340.947L956.426 338.078L944.076 331.423L938.762 334.292Z" fill="#202348"/>
</g>
</g>
<g style="mix-blend-mode:color-dodge" opacity="0.5">
<g style="mix-blend-mode:color-dodge" opacity="0.5">
<path d="M956.236 313.234L989.764 331.311L996.09 309.822L956.236 313.234Z" fill="#202348"/>
</g>
</g>
</g>
<g style="mix-blend-mode:screen" opacity="0.3">
<g style="mix-blend-mode:color-dodge" opacity="0.3">
<g style="mix-blend-mode:color-dodge" opacity="0.3">
<path d="M805.656 335.495L803.188 334.162L808.085 331.514L810.554 332.847L805.656 335.495Z" fill="#5A5C86"/>
</g>
</g>
<g style="mix-blend-mode:color-dodge" opacity="0.3">
<g style="mix-blend-mode:color-dodge" opacity="0.3">
<path d="M829.081 348.145L826.611 346.811L829.473 345.265L831.943 346.599L829.081 348.145Z" fill="#5A5C86"/>
</g>
</g>
<g style="mix-blend-mode:color-dodge" opacity="0.3">
<g style="mix-blend-mode:color-dodge" opacity="0.3">
<path d="M809.563 337.602L807.094 336.268L816.083 331.417L818.542 332.751L809.563 337.602Z" fill="#5A5C86"/>
</g>
</g>
<g style="mix-blend-mode:color-dodge" opacity="0.3">
<g style="mix-blend-mode:color-dodge" opacity="0.3">
<path d="M813.467 339.708L810.998 338.375L824.068 331.32L826.527 332.654L813.467 339.708Z" fill="#5A5C86"/>
</g>
</g>
<g style="mix-blend-mode:color-dodge" opacity="0.3">
<g style="mix-blend-mode:color-dodge" opacity="0.3">
<path d="M817.363 341.815L814.904 340.481L821.031 337.176L823.49 338.51L817.363 341.815Z" fill="#5A5C86"/>
</g>
</g>
<g style="mix-blend-mode:color-dodge" opacity="0.3">
<g style="mix-blend-mode:color-dodge" opacity="0.3">
<path d="M821.27 343.922L818.811 342.598L829.494 336.829L831.963 338.153L821.27 343.922Z" fill="#5A5C86"/>
</g>
</g>
<g style="mix-blend-mode:color-dodge" opacity="0.3">
<g style="mix-blend-mode:color-dodge" opacity="0.3">
<path d="M825.174 346.038L822.705 344.704L830.743 340.365L833.213 341.699L825.174 346.038Z" fill="#5A5C86"/>
</g>
</g>
</g>
<path style="mix-blend-mode:screen" opacity="0.5" d="M208.493 61.4391L208.643 61.196L551 246.124L550.609 246.75L550.669 246.834L550.51 246.918L289.73 388.196H287.729L300.74 381.139L270.655 364.848L240.559 381.149L253.57 388.196H251.57L239.559 381.653L227.548 388.196H225.548L238.559 381.149L208.464 364.848L178.367 381.149L191.378 388.196H189.378L177.367 381.653L165.356 388.196H163.355L176.367 381.149L146.281 364.848L116.185 381.139L129.197 388.196H127.195L0.939453 319.805V318.721L21.887 330.068L51.9821 313.786L21.887 297.494L0.939453 308.813V307.738L20.8861 296.952L0.939453 286.147V285.072L21.887 296.41L51.9821 280.137L21.887 263.845L0.939453 275.164V274.09L20.8861 263.303L0.939453 252.508V251.423L21.887 262.761L51.9821 246.498L21.887 230.206L0.939453 241.525V240.45L20.8861 229.664L0.939453 218.868V217.793L21.887 229.131L51.9821 212.868L21.887 196.576L0.999502 207.942V206.858L20.9462 196.081L0.999502 185.294V184.21L21.947 195.548L52.0422 179.284L21.947 163.002L0.999502 174.293V173.209L208.342 61.196L208.493 61.4391ZM239.579 78.955L209.493 95.209L239.579 111.473L269.674 95.209L239.579 78.955ZM208.493 229.131L238.578 212.849L208.493 196.585L178.397 212.849L208.493 229.131ZM177.397 213.391L147.311 229.664L177.397 245.984L207.492 229.711L177.397 213.391ZM209.493 229.673L239.579 245.984L269.674 229.701L239.579 213.428L209.493 229.673ZM239.579 212.316L269.674 196.071L239.579 179.808L209.493 196.081L239.579 212.316ZM240.579 212.849L270.675 229.159L300.79 212.877L270.705 196.613L240.579 212.849ZM271.665 229.673L301.791 245.974L331.816 229.692L301.791 213.419L271.665 229.673ZM302.761 246.498L332.817 262.789L362.942 246.498L332.817 230.234L302.761 246.498ZM301.761 247.04L271.665 263.322L301.791 279.614L331.816 263.331L301.761 247.04ZM300.76 246.498L270.675 230.225L240.579 246.507L270.675 262.78L300.76 246.498ZM239.579 247.049L209.493 263.322L239.579 279.604L269.674 263.322L239.579 247.049ZM238.578 246.507L208.493 230.225L178.397 246.507L208.493 262.808L238.578 246.507ZM177.397 247.049L147.311 263.322L177.397 279.604L207.492 263.322L177.397 247.049ZM176.396 246.507L146.301 230.225L116.205 246.498L146.301 262.78L176.396 246.507ZM146.301 229.14L176.386 212.868L146.301 196.595L116.205 212.858L146.301 229.14ZM177.387 212.316L207.482 196.043L177.387 179.77L147.301 196.034L177.387 212.316ZM208.483 195.492L238.568 179.219L208.483 162.955L178.387 179.219L208.483 195.492ZM239.57 178.667L269.664 162.395L239.57 146.131L209.483 162.404L239.57 178.667ZM240.57 179.21L270.665 195.473L300.79 179.256L270.705 162.993L240.57 179.21ZM271.655 196.034L301.791 212.344L331.816 196.062L301.791 179.798L271.655 196.034ZM302.751 212.858L332.817 229.15L362.942 212.868L332.817 196.604L302.751 212.858ZM333.837 229.683L363.933 245.946L394.028 229.655L363.933 213.391L333.837 229.683ZM364.933 246.507L395.029 262.77L425.114 246.479L395.029 230.215L364.933 246.507ZM363.933 247.049L333.817 263.322L363.943 279.595L394.038 263.303L363.933 247.049ZM332.847 263.873L302.791 280.156L332.817 296.429L362.942 280.137L332.847 263.873ZM301.751 280.698L271.655 296.989L301.791 313.262L331.816 296.971L301.751 280.698ZM300.75 280.156L270.665 263.883L240.57 280.165L270.665 296.447L300.75 280.156ZM239.57 280.707L209.473 296.989L239.57 313.272L269.664 296.989L239.57 280.707ZM238.568 280.165L208.483 263.883L178.387 280.165L208.483 296.447L238.568 280.165ZM177.387 280.707L147.301 296.989L177.387 313.272L207.482 296.989L177.387 280.707ZM176.386 280.165L146.301 263.883L116.205 280.156L146.301 296.447L176.386 280.165ZM115.205 280.698L85.1199 296.971L115.205 313.262L145.3 296.989L115.205 280.698ZM115.205 279.614L145.3 263.341L115.205 247.058L85.1199 263.331L115.205 279.614ZM115.205 245.965L145.3 229.692L115.205 213.41L85.1199 229.683L115.205 245.965ZM115.205 212.316L145.311 196.071L115.215 179.798L85.1298 196.062L115.205 212.316ZM146.301 195.492L176.386 179.228L146.301 162.955L116.205 179.219L146.301 195.492ZM177.387 178.667L207.482 162.404L177.387 146.131L147.301 162.395L177.387 178.667ZM208.483 161.843L238.568 145.58L208.493 129.428L178.397 145.692L208.483 161.843ZM239.57 145.019L269.674 128.839L239.579 112.604L209.483 128.867L239.57 145.019ZM240.57 145.561L270.665 161.824L300.79 145.645L270.675 129.428L240.57 145.561ZM271.655 162.385L301.791 178.714L331.816 162.441L301.791 146.178L271.655 162.385ZM302.751 179.21L332.817 195.52L362.942 179.238L332.817 162.983L302.751 179.21ZM333.837 196.034L363.933 212.297L394.028 196.006L363.933 179.752L333.837 196.034ZM364.933 212.858L395.019 229.122L425.114 212.83L395.029 196.567L364.933 212.858ZM396.019 229.683L426.115 245.946L456.22 229.636L426.125 213.372L396.019 229.683ZM427.115 246.507L457.201 262.77L487.306 246.432L457.221 230.178L427.115 246.507ZM426.115 247.049L396.019 263.341L426.115 279.614L456.22 263.275L426.115 247.049ZM395.029 263.873L364.933 280.165L395.029 296.438L425.114 280.137L395.029 263.873ZM363.933 280.698L333.817 296.971L363.943 313.253L394.038 296.952L363.933 280.698ZM332.847 297.522L302.791 313.804L332.817 330.087L362.942 313.786L332.847 297.522ZM301.751 314.346L271.655 330.638L301.791 346.93L331.816 330.629L301.751 314.346ZM300.75 313.804L270.665 297.522L240.57 313.814L270.675 330.105L300.75 313.804ZM239.57 314.356L209.473 330.647L239.57 346.939L269.664 330.638L239.57 314.356ZM238.568 313.814L208.483 297.531L178.387 313.814L208.493 330.105L238.568 313.814ZM177.387 314.356L147.301 330.638L177.387 346.939L207.482 330.647L177.387 314.356ZM176.386 313.814L146.292 297.522L116.195 313.804L146.311 330.105L176.386 313.814ZM115.194 314.346L85.1098 330.629L115.215 346.93L145.311 330.638L115.194 314.346ZM114.194 313.804L84.099 297.513L54.0038 313.786L84.099 330.087L114.194 313.804ZM84.099 296.429L114.194 280.156L84.099 263.864L54.0038 280.137L84.099 296.429ZM84.099 262.78L114.194 246.507L84.099 230.225L54.0038 246.488L84.099 262.78ZM84.099 229.131L114.194 212.858L84.099 196.585L54.0038 212.849L84.099 229.131ZM84.099 195.482L114.194 179.219L84.099 162.946L54.0038 179.2L84.099 195.482ZM115.184 178.658L145.281 162.395L115.184 146.122L85.0998 162.385L115.184 178.658ZM146.281 161.834L176.376 145.57L146.311 129.428L116.215 145.692L146.281 161.834ZM177.367 145.009L207.462 128.746L177.397 112.604L147.311 128.858L177.367 145.009ZM208.464 128.185L238.578 112.043L208.493 95.779L178.397 112.043L208.464 128.185ZM270.675 95.779L240.579 112.043L270.675 128.307L300.79 112.034L270.675 95.779ZM301.791 112.604L271.665 128.849L301.791 145.103L331.816 128.83L301.791 112.604ZM332.817 129.372L302.791 145.645L332.817 161.899L362.942 145.626L332.817 129.372ZM363.903 146.196L333.817 162.441L363.943 178.695L394.038 162.423L363.903 146.196ZM394.999 163.021L364.903 179.303L394.989 195.567L425.084 179.275L394.999 163.021ZM426.085 179.845L395.989 196.127L426.085 212.391L456.22 196.006L426.085 179.845ZM457.181 196.669L427.085 212.961L457.211 229.094L487.306 212.802L457.181 196.669ZM488.267 213.494L458.171 229.785L488.307 245.89L518.403 229.598L488.267 213.494ZM549.489 246.385L519.393 230.131L489.307 246.432L519.393 262.696L549.489 246.385ZM518.403 263.21L488.307 246.956L458.211 263.275L488.307 279.539L518.403 263.21ZM487.306 280.034L457.211 263.771L427.125 280.062L457.211 296.382L487.306 280.034ZM456.22 296.859L426.125 280.586L396.029 296.887L426.125 313.159L456.22 296.859ZM425.124 313.683L395.039 297.41L364.943 313.702L395.039 329.984L425.124 313.683ZM394.038 330.507L363.943 314.225L333.817 330.629L363.943 346.911L394.038 330.507ZM362.942 347.332L332.817 331.171L302.791 347.472L332.817 363.745L362.942 347.332ZM301.67 380.429L301.58 380.569L331.816 364.296L301.791 348.005L271.695 364.305L301.67 380.429ZM300.76 347.35L270.675 331.059L240.579 347.35L270.675 363.642L300.76 347.35ZM239.579 380.485L269.674 364.184L239.579 347.892L209.483 364.193L239.579 380.485ZM238.578 347.35L208.493 331.068L178.397 347.35L208.493 363.651L238.578 347.35ZM177.397 380.485L207.492 364.315L177.397 348.014L147.301 364.305L177.397 380.485ZM146.311 363.661L176.406 347.369L146.311 331.077L116.215 347.369L146.311 363.661ZM115.405 380.588L115.305 380.447L145.33 364.203L115.235 347.902L85.1499 364.193L115.405 380.588ZM84.159 363.67L114.244 347.397L84.149 331.096L54.0539 347.378L84.159 363.67ZM22.9479 330.507L53.033 346.808L83.1282 330.526L53.033 314.225L22.9479 330.507ZM22.9479 296.859L53.033 313.159L83.1282 296.877L53.033 280.586L22.9479 296.859ZM22.9479 263.21L53.033 279.501L83.1282 263.228L53.033 246.946L22.9479 263.21ZM22.9479 229.561L53.033 245.853L83.1282 229.589L53.033 213.298L22.9479 229.561ZM22.9479 195.912L53.033 212.204L83.1282 195.94L53.033 179.658L22.9479 195.912ZM22.9479 162.264L53.043 178.537L83.1282 162.282L53.033 146.009L22.9479 162.264ZM54.0339 145.439L84.129 161.712L114.224 145.645L84.129 129.372L54.0339 145.439ZM85.1298 128.615L115.215 145.103L145.311 128.849L115.215 112.604L85.1298 128.615ZM116.215 111.791L146.311 128.307L176.406 112.043L146.311 95.779L116.215 111.791ZM147.311 94.966L177.397 111.23L207.492 94.966L177.397 78.955L147.311 94.966ZM208.493 94.424L238.578 78.45L208.493 62.1962L178.397 78.45L208.493 94.424Z" fill="url(#paint3_linear)"/>
<g style="mix-blend-mode:screen" opacity="0.4">
<g style="mix-blend-mode:color-dodge" opacity="0.4">
<g style="mix-blend-mode:color-dodge" opacity="0.4">
<path d="M535.605 333.796L515.018 322.468L460.983 327.599L474.524 286.455L431.098 277.061L431.027 277.024L400.732 259.302L344.945 264.789L354.804 236.664L307.494 243.87L307.334 242.945L356.265 235.495L346.377 263.714L400.972 258.339L431.488 276.192L475.795 285.772L462.384 326.525L515.238 321.515L515.378 321.589L536.115 332.993L535.605 333.796Z" fill="#393B61"/>
</g>
</g>
<g style="mix-blend-mode:color-dodge" opacity="0.4">
<g style="mix-blend-mode:color-dodge" opacity="0.4">
<path d="M477.556 287.492C476.792 287.854 475.947 288.043 475.089 288.043C474.232 288.043 473.387 287.854 472.622 287.492C471.261 286.754 471.251 285.567 472.622 284.837C473.385 284.475 474.229 284.287 475.084 284.287C475.94 284.287 476.784 284.475 477.546 284.837C478.908 285.567 478.918 286.763 477.556 287.492Z" fill="#393B61"/>
</g>
</g>
<g style="mix-blend-mode:color-dodge" opacity="0.4">
<g style="mix-blend-mode:color-dodge" opacity="0.4">
<path d="M433.921 277.874C433.158 278.236 432.315 278.425 431.459 278.425C430.603 278.425 429.76 278.236 428.997 277.874C427.626 277.136 427.616 275.949 428.997 275.21C429.762 274.851 430.607 274.664 431.464 274.664C432.321 274.664 433.166 274.851 433.931 275.21C435.272 275.949 435.282 277.145 433.921 277.874Z" fill="#393B61"/>
</g>
</g>
<g style="mix-blend-mode:color-dodge" opacity="0.4">
<g style="mix-blend-mode:color-dodge" opacity="0.4">
<path d="M403.275 260.171C402.51 260.533 401.665 260.722 400.808 260.722C399.951 260.722 399.105 260.533 398.341 260.171C396.97 259.433 396.97 258.246 398.341 257.517C399.105 257.155 399.951 256.966 400.808 256.966C401.665 256.966 402.51 257.155 403.275 257.517C404.616 258.199 404.626 259.395 403.275 260.171Z" fill="#393B61"/>
</g>
</g>
<g style="mix-blend-mode:color-dodge" opacity="0.4">
<g style="mix-blend-mode:color-dodge" opacity="0.4">
<path d="M464.546 328.347C463.783 328.709 462.94 328.898 462.084 328.898C461.228 328.898 460.385 328.709 459.622 328.347C458.251 327.609 458.241 326.422 459.622 325.693C460.386 325.328 461.231 325.138 462.089 325.138C462.947 325.138 463.792 325.328 464.556 325.693C465.897 326.422 465.907 327.618 464.546 328.347Z" fill="#393B61"/>
</g>
</g>
<g style="mix-blend-mode:color-dodge" opacity="0.4">
<g style="mix-blend-mode:color-dodge" opacity="0.4">
<path d="M517.551 323.384C516.786 323.746 515.941 323.935 515.083 323.935C514.226 323.935 513.381 323.746 512.616 323.384C511.255 322.646 511.245 321.459 512.616 320.73C513.381 320.367 514.226 320.179 515.083 320.179C515.941 320.179 516.786 320.367 517.551 320.73C518.902 321.459 518.912 322.655 517.551 323.384Z" fill="#393B61"/>
</g>
</g>
<g style="mix-blend-mode:color-dodge" opacity="0.4">
<g style="mix-blend-mode:color-dodge" opacity="0.4">
<path d="M538.508 334.656C537.743 335.018 536.898 335.207 536.041 335.207C535.183 335.207 534.338 335.018 533.573 334.656C532.212 333.918 532.202 332.731 533.573 331.992C534.339 331.633 535.184 331.446 536.041 331.446C536.897 331.446 537.742 331.633 538.508 331.992C539.859 332.731 539.869 333.927 538.508 334.656Z" fill="#393B61"/>
</g>
</g>
<g style="mix-blend-mode:color-dodge" opacity="0.4">
<g style="mix-blend-mode:color-dodge" opacity="0.4">
<path d="M348.33 265.518C347.564 265.877 346.719 266.064 345.863 266.064C345.006 266.064 344.161 265.877 343.396 265.518C342.035 264.779 342.025 263.592 343.396 262.854C344.159 262.492 345.002 262.303 345.858 262.303C346.713 262.303 347.557 262.492 348.32 262.854C349.681 263.592 349.681 264.779 348.33 265.518Z" fill="#393B61"/>
</g>
</g>
<g style="mix-blend-mode:color-dodge" opacity="0.4">
<g style="mix-blend-mode:color-dodge" opacity="0.4">
<path d="M358.097 237.215C357.334 237.577 356.49 237.766 355.635 237.766C354.779 237.766 353.936 237.577 353.173 237.215C351.802 236.477 351.792 235.29 353.173 234.552C353.938 234.192 354.783 234.005 355.64 234.005C356.497 234.005 357.341 234.192 358.107 234.552C359.458 235.29 359.468 236.486 358.097 237.215Z" fill="#393B61"/>
</g>
</g>
<g style="mix-blend-mode:color-dodge" opacity="0.4">
<g style="mix-blend-mode:color-dodge" opacity="0.4">
<path d="M309.556 244.571C308.793 244.933 307.949 245.122 307.094 245.122C306.238 245.122 305.395 244.933 304.632 244.571C303.261 243.833 303.251 242.646 304.632 241.907C305.396 241.545 306.242 241.357 307.099 241.357C307.956 241.357 308.801 241.545 309.566 241.907C310.907 242.646 310.917 243.833 309.556 244.571Z" fill="#393B61"/>
</g>
</g>
<g style="mix-blend-mode:color-dodge" opacity="0.4">
<g style="mix-blend-mode:color-dodge" opacity="0.4">
<path d="M493.731 377.736L462.975 360.706L398.71 361.201L421.731 315.271L367.886 310.579L386.36 287.464L336.83 293.68L306.424 277.584L245.812 277.154V276.22L306.684 276.65L306.804 276.706L337.029 292.717L388.583 286.24L369.757 309.803L423.242 314.467L400.292 360.248L463.244 359.771L494.24 376.932L493.731 377.736Z" fill="#393B61"/>
</g>
</g>
<g style="mix-blend-mode:color-dodge" opacity="0.4">
<g style="mix-blend-mode:color-dodge" opacity="0.4">
<path d="M424.872 316.252C424.109 316.614 423.266 316.803 422.41 316.803C421.555 316.803 420.711 316.614 419.948 316.252C418.577 315.514 418.567 314.317 419.948 313.588C420.713 313.226 421.558 313.038 422.415 313.038C423.272 313.038 424.118 313.226 424.882 313.588C426.223 314.327 426.233 315.514 424.872 316.252Z" fill="#393B61"/>
</g>
</g>
<g style="mix-blend-mode:color-dodge" opacity="0.4">
<g style="mix-blend-mode:color-dodge" opacity="0.4">
<path d="M371.459 311.448C370.693 311.807 369.848 311.994 368.992 311.994C368.135 311.994 367.29 311.807 366.524 311.448C365.153 310.71 365.153 309.513 366.524 308.784C367.289 308.422 368.134 308.233 368.992 308.233C369.849 308.233 370.694 308.422 371.459 308.784C372.8 309.523 372.81 310.71 371.459 311.448Z" fill="#393B61"/>
</g>
</g>
<g style="mix-blend-mode:color-dodge" opacity="0.4">
<g style="mix-blend-mode:color-dodge" opacity="0.4">
<path d="M389.884 288.156C389.121 288.518 388.278 288.706 387.422 288.706C386.566 288.706 385.723 288.518 384.96 288.156C383.589 287.417 383.579 286.23 384.96 285.492C385.725 285.133 386.57 284.945 387.427 284.945C388.284 284.945 389.128 285.133 389.894 285.492C391.235 286.23 391.245 287.427 389.884 288.156Z" fill="#393B61"/>
</g>
</g>
<g style="mix-blend-mode:color-dodge" opacity="0.4">
<g style="mix-blend-mode:color-dodge" opacity="0.4">
<path d="M402.365 362.052C401.6 362.414 400.755 362.603 399.898 362.603C399.041 362.603 398.195 362.414 397.431 362.052C396.07 361.314 396.06 360.127 397.431 359.388C398.194 359.026 399.037 358.837 399.893 358.837C400.749 358.837 401.592 359.026 402.355 359.388C403.716 360.089 403.716 361.276 402.365 362.052Z" fill="#393B61"/>
</g>
</g>
<g style="mix-blend-mode:color-dodge" opacity="0.4">
<g style="mix-blend-mode:color-dodge" opacity="0.4">
<path d="M465.537 361.631C464.773 361.996 463.927 362.186 463.07 362.186C462.212 362.186 461.367 361.996 460.603 361.631C459.242 360.902 459.232 359.706 460.603 358.977C461.366 358.615 462.209 358.426 463.065 358.426C463.92 358.426 464.764 358.615 465.527 358.977C466.888 359.715 466.898 360.902 465.537 361.631Z" fill="#393B61"/>
</g>
</g>
<g style="mix-blend-mode:color-dodge" opacity="0.4">
<g style="mix-blend-mode:color-dodge" opacity="0.4">
<path d="M496.634 378.596C495.871 378.958 495.028 379.147 494.172 379.147C493.316 379.147 492.473 378.958 491.71 378.596C490.339 377.858 490.339 376.671 491.71 375.941C492.474 375.577 493.319 375.387 494.177 375.387C495.035 375.387 495.88 375.577 496.644 375.941C497.985 376.671 497.995 377.867 496.634 378.596Z" fill="#393B61"/>
</g>
</g>
<g style="mix-blend-mode:color-dodge" opacity="0.4">
<g style="mix-blend-mode:color-dodge" opacity="0.4">
<path d="M339.591 294.465C338.828 294.827 337.985 295.016 337.129 295.016C336.273 295.016 335.43 294.827 334.667 294.465C333.296 293.726 333.286 292.539 334.667 291.801C335.432 291.442 336.277 291.255 337.134 291.255C337.991 291.255 338.836 291.442 339.601 291.801C340.942 292.539 340.952 293.736 339.591 294.465Z" fill="#393B61"/>
</g>
</g>
<g style="mix-blend-mode:color-dodge" opacity="0.4">
<g style="mix-blend-mode:color-dodge" opacity="0.4">
<path d="M309.127 278.248C308.362 278.61 307.517 278.799 306.66 278.799C305.802 278.799 304.957 278.61 304.193 278.248C302.831 277.51 302.821 276.323 304.193 275.584C304.955 275.222 305.799 275.033 306.655 275.033C307.51 275.033 308.354 275.222 309.117 275.584C310.478 276.323 310.488 277.51 309.127 278.248Z" fill="#393B61"/>
</g>
</g>
<g style="mix-blend-mode:color-dodge" opacity="0.4">
<g style="mix-blend-mode:color-dodge" opacity="0.4">
<path d="M248.005 277.846C247.232 278.22 246.373 278.414 245.502 278.412C244.631 278.411 243.773 278.213 243.001 277.837C241.63 277.108 241.63 275.911 243.001 275.182C243.766 274.82 244.611 274.631 245.468 274.631C246.325 274.631 247.171 274.82 247.935 275.182C249.306 275.93 249.316 277.117 248.005 277.846Z" fill="#393B61"/>
</g>
</g>
</g>
<g style="mix-blend-mode:screen" opacity="0.5">
<g style="mix-blend-mode:color-dodge" opacity="0.6">
<g style="mix-blend-mode:color-dodge" opacity="0.6">
<path d="M164.602 329.32L176.952 335.984L182.917 332.76L170.577 326.105L164.602 329.32Z" fill="#202348"/>
</g>
</g>
<g style="mix-blend-mode:color-dodge" opacity="0.8">
<g style="mix-blend-mode:color-dodge" opacity="0.8">
<path d="M173.818 324.357L186.169 331.012L192.794 327.441L180.444 320.777L173.818 324.357Z" fill="#202348"/>
</g>
</g>
<g style="mix-blend-mode:color-dodge" opacity="0.3">
<g style="mix-blend-mode:color-dodge" opacity="0.3">
<path d="M146.166 339.265L158.516 345.92L163.18 343.406L150.83 336.751L146.166 339.265Z" fill="#202348"/>
</g>
</g>
<g style="mix-blend-mode:color-dodge" opacity="0.15">
<g style="mix-blend-mode:color-dodge" opacity="0.15">
<path d="M139.91 342.677L152.26 349.332L154.662 348.219L142.312 341.564L139.91 342.677Z" fill="#202348"/>
</g>
</g>
<g style="mix-blend-mode:color-dodge" opacity="0.5">
<g style="mix-blend-mode:color-dodge" opacity="0.5">
<path d="M155.383 334.293L167.733 340.948L173.048 338.078L160.697 331.423L155.383 334.293Z" fill="#202348"/>
</g>
</g>
<g style="mix-blend-mode:color-dodge" opacity="0.5">
<g style="mix-blend-mode:color-dodge" opacity="0.5">
<path d="M172.857 313.234L206.385 331.311L212.711 309.823L172.857 313.234Z" fill="#202348"/>
</g>
</g>
</g>
<g style="mix-blend-mode:screen" opacity="0.3">
<g style="mix-blend-mode:color-dodge" opacity="0.3">
<g style="mix-blend-mode:color-dodge" opacity="0.3">
<path d="M324.342 335.495L326.811 334.162L321.914 331.514L319.445 332.847L324.342 335.495Z" fill="#5A5C86"/>
</g>
</g>
<g style="mix-blend-mode:color-dodge" opacity="0.3">
<g style="mix-blend-mode:color-dodge" opacity="0.3">
<path d="M300.919 348.145L303.389 346.811L300.527 345.265L298.057 346.599L300.919 348.145Z" fill="#5A5C86"/>
</g>
</g>
<g style="mix-blend-mode:color-dodge" opacity="0.3">
<g style="mix-blend-mode:color-dodge" opacity="0.3">
<path d="M320.438 337.602L322.907 336.268L313.918 331.417L311.459 332.751L320.438 337.602Z" fill="#5A5C86"/>
</g>
</g>
<g style="mix-blend-mode:color-dodge" opacity="0.3">
<g style="mix-blend-mode:color-dodge" opacity="0.3">
<path d="M316.533 339.708L319.002 338.375L305.932 331.32L303.473 332.654L316.533 339.708Z" fill="#5A5C86"/>
</g>
</g>
<g style="mix-blend-mode:color-dodge" opacity="0.3">
<g style="mix-blend-mode:color-dodge" opacity="0.3">
<path d="M312.637 341.815L315.096 340.481L308.969 337.176L306.51 338.51L312.637 341.815Z" fill="#5A5C86"/>
</g>
</g>
<g style="mix-blend-mode:color-dodge" opacity="0.3">
<g style="mix-blend-mode:color-dodge" opacity="0.3">
<path d="M308.73 343.922L311.189 342.598L300.506 336.829L298.037 338.153L308.73 343.922Z" fill="#5A5C86"/>
</g>
</g>
<g style="mix-blend-mode:color-dodge" opacity="0.3">
<g style="mix-blend-mode:color-dodge" opacity="0.3">
<path d="M304.826 346.038L307.295 344.704L299.257 340.365L296.787 341.699L304.826 346.038Z" fill="#5A5C86"/>
</g>
</g>
</g>
<path d="M607.263 315.432L599.77 311.022V278.059L594.395 267.832V244.177H595.393V267.583L600.768 277.809V310.443L607.253 314.264L640.463 293.882L640.982 294.73L607.263 315.432Z" fill="url(#paint4_linear)"/>
<path d="M643.64 294.73C643.008 295.05 642.31 295.216 641.602 295.216C640.893 295.216 640.195 295.05 639.563 294.73C639.319 294.644 639.107 294.485 638.957 294.274C638.807 294.063 638.727 293.811 638.727 293.553C638.727 293.294 638.807 293.042 638.957 292.831C639.107 292.62 639.319 292.461 639.563 292.375C640.195 292.055 640.893 291.889 641.602 291.889C642.31 291.889 643.008 292.055 643.64 292.375C643.889 292.456 644.106 292.613 644.261 292.824C644.415 293.036 644.498 293.291 644.498 293.553C644.498 293.814 644.415 294.069 644.261 294.281C644.106 294.492 643.889 294.649 643.64 294.73Z" fill="#FDB533"/>
<path d="M600.269 334.387L592.776 329.978V297.014L587.4 286.788V263.133H588.399V286.539L593.775 296.765V329.399L600.259 333.22L633.469 312.838L633.988 313.686L600.269 334.387Z" fill="url(#paint5_linear)"/>
<path d="M636.648 313.686C636.016 314.006 635.318 314.172 634.609 314.172C633.901 314.172 633.203 314.006 632.571 313.686C632.327 313.6 632.115 313.441 631.965 313.23C631.815 313.019 631.734 312.767 631.734 312.508C631.734 312.25 631.815 311.998 631.965 311.787C632.115 311.576 632.327 311.417 632.571 311.331C633.203 311.011 633.901 310.845 634.609 310.845C635.318 310.845 636.016 311.011 636.648 311.331C636.897 311.412 637.114 311.569 637.268 311.78C637.423 311.992 637.506 312.247 637.506 312.508C637.506 312.77 637.423 313.025 637.268 313.237C637.114 313.448 636.897 313.605 636.648 313.686Z" fill="#FDB533"/>
<path d="M533.119 315.721L532.859 315.561L500.838 295.807L501.367 294.949L533.119 314.554L547.606 305.874V285.312L558.596 267.603V244.217H559.595V267.892L548.605 285.601V306.443L533.119 315.721Z" fill="url(#paint6_linear)"/>
<path d="M501.648 296.306C501.017 296.628 500.317 296.796 499.609 296.796C498.9 296.796 498.202 296.628 497.572 296.306C497.326 296.223 497.112 296.066 496.961 295.855C496.81 295.645 496.729 295.393 496.729 295.134C496.729 294.875 496.81 294.623 496.961 294.412C497.112 294.202 497.326 294.044 497.572 293.962C498.202 293.639 498.9 293.471 499.609 293.471C500.317 293.471 501.017 293.639 501.648 293.962C501.894 294.044 502.107 294.202 502.258 294.412C502.41 294.623 502.491 294.875 502.491 295.134C502.491 295.393 502.41 295.645 502.258 295.855C502.107 296.066 501.894 296.223 501.648 296.306Z" fill="#FDB533"/>
<path d="M533.24 334.427L532.98 334.268L500.969 314.514L501.488 313.656L533.25 333.26L547.737 324.58V304.018L558.727 286.309V262.924H559.726V286.599L548.736 304.308V325.149L533.24 334.427Z" fill="url(#paint7_linear)"/>
<path d="M501.768 315.013C501.139 315.335 500.442 315.503 499.735 315.503C499.028 315.503 498.331 315.335 497.702 315.013C496.573 314.364 496.563 313.317 497.702 312.668C498.333 312.346 499.032 312.178 499.74 312.178C500.449 312.178 501.147 312.346 501.778 312.668C502.887 313.317 502.897 314.364 501.768 315.013Z" fill="#FDB533"/>
<path d="M570.535 351.867V360.706L627.704 327.414V318.564L570.535 351.867Z" fill="url(#paint8_linear)"/>
<path d="M570.565 351.867V360.706L513.217 327.314V318.515L570.565 351.867Z" fill="url(#paint9_linear)"/>
<path d="M513.217 318.514L570.565 351.867L627.704 318.564L570.285 285.182L513.217 318.514Z" fill="url(#paint10_linear)"/>
<path d="M570.535 340.374V349.702L623.647 318.774V309.436L570.535 340.374Z" fill="url(#paint11_linear)"/>
<path d="M570.556 340.374V349.702L517.264 318.684V309.376L570.556 340.374Z" fill="url(#paint12_linear)"/>
<path d="M570.535 333.45V347.437L627.704 314.145V300.157L570.535 333.45Z" fill="url(#paint13_linear)"/>
<path d="M570.565 333.45V347.437L513.217 314.045V300.097L570.565 333.45Z" fill="url(#paint14_linear)"/>
<path d="M513.217 300.097L570.565 333.45L627.704 300.157L570.285 266.765L513.217 300.097Z" fill="url(#paint15_linear)"/>
<path d="M570.535 322.026V331.355L623.647 300.427V291.088L570.535 322.026Z" fill="url(#paint16_linear)"/>
<path d="M570.556 322.026V331.355L517.264 300.337V291.028L570.556 322.026Z" fill="url(#paint17_linear)"/>
<path d="M570.535 309.954V329.09L627.704 295.797V276.662L570.535 309.954Z" fill="url(#paint18_linear)"/>
<path d="M570.565 309.954V329.09L513.217 295.697V276.602L570.565 309.954Z" fill="url(#paint19_linear)"/>
<path d="M513.217 276.602L570.565 309.954L627.704 276.662L570.285 243.28L513.217 276.602Z" fill="url(#paint20_linear)"/>
<path d="M570.535 298.262V307.59L623.647 276.652V267.324L570.535 298.262Z" fill="url(#paint21_linear)"/>
<path d="M570.556 298.262V307.59L517.264 276.572V267.264L570.556 298.262Z" fill="url(#paint22_linear)"/>
<path d="M570.535 279.685V304.986L627.704 271.693V246.392L570.535 279.685Z" fill="url(#paint23_linear)"/>
<path d="M570.565 279.685V304.986L513.217 271.594V246.332L570.565 279.685Z" fill="url(#paint24_linear)"/>
<path d="M513.217 246.332L570.565 279.685L627.704 246.392L570.285 213L513.217 246.332Z" fill="url(#paint25_linear)"/>
<path d="M531.162 268.212C531.162 269.508 530.243 270.027 529.164 269.379C528.58 268.987 528.095 268.465 527.748 267.854C527.401 267.242 527.202 266.559 527.166 265.857C527.166 264.56 528.075 264.041 529.164 264.69C529.75 265.08 530.235 265.602 530.582 266.214C530.929 266.825 531.128 267.509 531.162 268.212Z" fill="#2AF6FF"/>
<path d="M595.774 277.29C595.741 277.993 595.543 278.678 595.196 279.29C594.849 279.901 594.362 280.423 593.776 280.812C592.647 281.471 591.777 280.942 591.777 279.655C591.812 278.953 592.01 278.269 592.357 277.657C592.704 277.045 593.19 276.523 593.776 276.133C594.885 275.485 595.774 276.003 595.774 277.29Z" fill="#2AF6FF"/>
<path d="M614.347 313.546C614.31 314.248 614.111 314.931 613.764 315.542C613.417 316.153 612.933 316.676 612.349 317.068C611.22 317.716 610.301 317.198 610.301 315.901C610.341 315.194 610.547 314.507 610.903 313.895C611.259 313.283 611.754 312.764 612.349 312.379C613.428 311.77 614.347 312.249 614.347 313.546Z" fill="#2AF6FF"/>
<path d="M597.771 369.695L576.83 357.155L576.88 335.954L593.235 301.893V278.478H594.234V302.113L594.184 302.212L577.829 336.283V356.596L598.281 368.837L597.771 369.695Z" fill="url(#paint26_linear)"/>
<path d="M607.603 296.496C607.569 297.198 607.37 297.882 607.023 298.494C606.676 299.105 606.19 299.627 605.605 300.018C604.476 300.676 603.557 300.147 603.557 298.86C603.597 298.154 603.803 297.467 604.159 296.855C604.515 296.243 605.01 295.723 605.605 295.338C606.684 294.69 607.603 295.209 607.603 296.496Z" fill="#2AF6FF"/>
<path d="M628.783 369.596L591.816 347.926V341.76L591.896 341.641L605.054 321.058V297.683H606.054V321.358L605.974 321.477L592.816 342.05V347.357L628.773 368.428L635.427 364.428L635.937 365.276L628.783 369.596Z" fill="url(#paint27_linear)"/>
<path d="M503.396 339.496L503.136 339.346L471.115 319.582L471.645 318.734L503.396 338.328L517.883 329.658V309.096L528.873 291.388V268.002H529.872V291.667L518.882 309.376V330.217L503.396 339.496Z" fill="url(#paint28_linear)"/>
<path d="M471.925 320.081C471.293 320.401 470.595 320.567 469.887 320.567C469.178 320.567 468.48 320.401 467.849 320.081C467.604 319.996 467.392 319.836 467.242 319.625C467.092 319.415 467.012 319.162 467.012 318.904C467.012 318.645 467.092 318.393 467.242 318.182C467.392 317.971 467.604 317.812 467.849 317.726C468.48 317.406 469.178 317.24 469.887 317.24C470.595 317.24 471.293 317.406 471.925 317.726C472.174 317.807 472.392 317.964 472.546 318.176C472.7 318.387 472.783 318.642 472.783 318.904C472.783 319.165 472.7 319.42 472.546 319.632C472.392 319.843 472.174 320 471.925 320.081Z" fill="#FDB533"/>
<path d="M544.93 306.622C544.93 307.919 544.011 308.438 542.932 307.789C542.347 307.398 541.863 306.876 541.516 306.264C541.169 305.653 540.97 304.969 540.934 304.268C540.934 302.971 541.843 302.452 542.932 303.1C543.517 303.491 544.003 304.013 544.35 304.624C544.697 305.236 544.896 305.92 544.93 306.622Z" fill="#2AF6FF"/>
<path d="M510.141 357.873L497.652 351.767L498.102 350.869L510.091 356.736L536.867 340.882V327.543L542.612 318.814V306.413H543.611V319.113L537.866 327.843V341.441L537.626 341.591L510.141 357.873Z" fill="url(#paint29_linear)"/>
<path d="M498.171 352.495C497.54 352.818 496.842 352.986 496.133 352.986C495.424 352.986 494.726 352.818 494.095 352.495C493.849 352.413 493.636 352.255 493.485 352.045C493.333 351.834 493.252 351.582 493.252 351.323C493.252 351.064 493.333 350.812 493.485 350.601C493.636 350.391 493.849 350.234 494.095 350.151C494.726 349.829 495.424 349.661 496.133 349.661C496.842 349.661 497.54 349.829 498.171 350.151C498.417 350.234 498.631 350.391 498.782 350.601C498.933 350.812 499.014 351.064 499.014 351.323C499.014 351.582 498.933 351.834 498.782 352.045C498.631 352.255 498.417 352.413 498.171 352.495Z" fill="#FDB533"/>
<path d="M557.149 290.21C557.149 291.507 556.23 292.026 555.151 291.378C554.545 290.994 554.038 290.471 553.674 289.854C553.309 289.237 553.096 288.541 553.053 287.826C553.053 286.529 553.972 286.01 555.101 286.659C555.7 287.046 556.197 287.571 556.553 288.188C556.91 288.806 557.114 289.499 557.149 290.21Z" fill="#2AF6FF"/>
<path d="M551.923 328.122C551.923 329.419 551.004 329.938 549.925 329.289C549.315 328.908 548.805 328.387 548.436 327.769C548.068 327.151 547.852 326.455 547.807 325.738C547.807 324.441 548.726 323.922 549.855 324.57C550.457 324.956 550.959 325.479 551.319 326.097C551.678 326.714 551.885 327.409 551.923 328.122Z" fill="#2AF6FF"/>
<path d="M553.562 363.36L553.053 362.502L563.094 356.596V336.263L554.601 314.055V290.53H555.6V313.965L564.093 336.173V357.154L553.562 363.36Z" fill="url(#paint30_linear)"/>
<path d="M555.099 364.358C554.467 364.678 553.769 364.844 553.061 364.844C552.353 364.844 551.654 364.678 551.023 364.358C550.777 364.275 550.564 364.117 550.412 363.907C550.261 363.697 550.18 363.444 550.18 363.185C550.18 362.927 550.261 362.674 550.412 362.464C550.564 362.254 550.777 362.096 551.023 362.013C551.654 361.693 552.353 361.527 553.061 361.527C553.769 361.527 554.467 361.693 555.099 362.013C555.34 362.101 555.548 362.26 555.696 362.47C555.843 362.679 555.922 362.929 555.922 363.185C555.922 363.442 555.843 363.692 555.696 363.901C555.548 364.111 555.34 364.27 555.099 364.358Z" fill="#FDB533"/>
<path d="M515.636 369.276L515.137 368.408L549.855 348.604V328.192H550.855V349.183L550.605 349.323L515.636 369.276Z" fill="url(#paint31_linear)"/>
<path d="M517.185 370.274C516.553 370.594 515.855 370.761 515.146 370.761C514.438 370.761 513.74 370.594 513.108 370.274C511.979 369.626 511.969 368.578 513.108 367.929C513.739 367.607 514.438 367.439 515.146 367.439C515.855 367.439 516.554 367.607 517.185 367.929C518.294 368.578 518.304 369.636 517.185 370.274Z" fill="#FDB533"/>
<path d="M601.358 371.521C600.727 371.841 600.029 372.008 599.32 372.008C598.612 372.008 597.914 371.841 597.282 371.521C596.153 370.873 596.143 369.825 597.282 369.177C597.913 368.854 598.612 368.686 599.32 368.686C600.029 368.686 600.728 368.854 601.358 369.177C602.467 369.825 602.477 370.873 601.358 371.521Z" fill="#FDB533"/>
<path d="M650.833 340.843C650.201 341.162 649.503 341.329 648.795 341.329C648.087 341.329 647.388 341.162 646.757 340.843C645.628 340.194 645.618 339.146 646.757 338.498C647.386 338.176 648.083 338.008 648.79 338.008C649.497 338.008 650.194 338.176 650.823 338.498C651.962 339.146 651.972 340.194 650.833 340.843Z" fill="#FDB533"/>
<path d="M638.605 365.276C637.973 365.596 637.275 365.762 636.566 365.762C635.858 365.762 635.16 365.596 634.528 365.276C633.399 364.617 633.389 363.57 634.528 362.921C635.16 362.601 635.858 362.435 636.566 362.435C637.275 362.435 637.973 362.601 638.605 362.921C639.714 363.58 639.724 364.647 638.605 365.276Z" fill="#FDB533"/>
<path d="M619.461 262.325C619.427 263.027 619.228 263.712 618.881 264.323C618.534 264.935 618.048 265.457 617.463 265.847C616.334 266.506 615.465 265.977 615.465 264.69C615.498 263.987 615.696 263.302 616.043 262.691C616.39 262.079 616.877 261.557 617.463 261.168C618.542 260.519 619.461 261.038 619.461 262.325Z" fill="#2AF6FF"/>
<path d="M629.782 334.757L622.289 330.347V297.384L616.924 287.157V263.512H617.923V286.918L623.288 297.144V329.778L629.782 333.599L662.982 313.207L663.502 314.065L629.782 334.757Z" fill="url(#paint32_linear)"/>
<path d="M666.16 314.065C665.528 314.385 664.83 314.551 664.121 314.551C663.413 314.551 662.715 314.385 662.083 314.065C661.838 313.982 661.624 313.824 661.473 313.614C661.322 313.404 661.24 313.151 661.24 312.893C661.24 312.634 661.322 312.381 661.473 312.171C661.624 311.961 661.838 311.803 662.083 311.72C662.715 311.4 663.413 311.234 664.121 311.234C664.83 311.234 665.528 311.4 666.16 311.72C666.401 311.808 666.609 311.967 666.756 312.177C666.903 312.387 666.982 312.636 666.982 312.893C666.982 313.149 666.903 313.399 666.756 313.608C666.609 313.818 666.401 313.977 666.16 314.065Z" fill="#FDB533"/>
<path d="M648.556 340.344L648.056 339.476L633.07 348.066L612.628 336.213V315.801H611.629V336.792L632.82 349.073L633.319 349.083L648.556 340.344Z" fill="url(#paint33_linear)"/>
</g>
<defs>
<filter id="filter0_f" x="193" y="-31" width="743" height="575" filterUnits="userSpaceOnUse" color-interpolation-filters="sRGB">
<feFlood flood-opacity="0" result="BackgroundImageFix"/>
<feBlend mode="normal" in="SourceGraphic" in2="BackgroundImageFix" result="shape"/>
<feGaussianBlur stdDeviation="100" result="effect1_foregroundBlur"/>
</filter>
<linearGradient id="paint0_linear" x1="54" y1="-29.9557" x2="1070.75" y2="356.113" gradientUnits="userSpaceOnUse">
<stop offset="0.00520833" stop-color="#101133"/>
<stop offset="0.50278" stop-color="#1C1D43"/>
<stop offset="1" stop-color="#101133"/>
</linearGradient>
<radialGradient id="paint1_radial" cx="0" cy="0" r="1" gradientUnits="userSpaceOnUse" gradientTransform="translate(564.5 256.5) rotate(90) scale(87.5 171.5)">
<stop stop-color="#0092C4"/>
<stop offset="1" stop-color="#0080AC"/>
</radialGradient>
<linearGradient id="paint2_linear" x1="1199.8" y1="452.746" x2="720.738" y2="67.0033" gradientUnits="userSpaceOnUse">
<stop stop-color="#22244A"/>
<stop offset="0.97" stop-color="#020002"/>
<stop offset="1"/>
</linearGradient>
<linearGradient id="paint3_linear" x1="-69.7997" y1="452.746" x2="409.261" y2="67.0033" gradientUnits="userSpaceOnUse">
<stop stop-color="#22244A"/>
<stop offset="0.97" stop-color="#020002"/>
<stop offset="1"/>
</linearGradient>
<linearGradient id="paint4_linear" x1="633.089" y1="271.484" x2="587.309" y2="283.328" gradientUnits="userSpaceOnUse">
<stop offset="0.02" stop-color="#FDB533"/>
<stop offset="0.203125" stop-color="#2E3278"/>
<stop offset="0.442608" stop-color="#2F3267"/>
<stop offset="0.442708" stop-color="#3A3E75"/>
<stop offset="0.515625" stop-color="#303365"/>
<stop offset="0.67" stop-color="#4C9BE8"/>
<stop offset="1" stop-color="#2AF6FF"/>
</linearGradient>
<linearGradient id="paint5_linear" x1="8006.07" y1="5793.88" x2="5791.62" y2="6167.93" gradientUnits="userSpaceOnUse">
<stop offset="0.02" stop-color="#FFA98C"/>
<stop offset="0.07" stop-color="#C46AA7"/>
<stop offset="0.13" stop-color="#9033C0"/>
<stop offset="0.16" stop-color="#7C1DC9"/>
<stop offset="0.32" stop-color="#6E41D2"/>
<stop offset="0.67" stop-color="#4C9BE8"/>
<stop offset="1" stop-color="#2AF6FF"/>
</linearGradient>
<linearGradient id="paint6_linear" x1="3832.37" y1="4013.89" x2="5532.16" y2="4954.03" gradientUnits="userSpaceOnUse">
<stop offset="0.02" stop-color="#FDB533"/>
<stop offset="0.07" stop-color="#C46AA7"/>
<stop offset="0.13" stop-color="#9033C0"/>
<stop offset="0.16" stop-color="#7C1DC9"/>
<stop offset="0.32" stop-color="#6E41D2"/>
<stop offset="0.67" stop-color="#4C9BE8"/>
<stop offset="1" stop-color="#2AF6FF"/>
</linearGradient>
<linearGradient id="paint7_linear" x1="3840.14" y1="5373.29" x2="5539.93" y2="6313.43" gradientUnits="userSpaceOnUse">
<stop offset="0.02" stop-color="#FDB533"/>
<stop offset="0.07" stop-color="#C46AA7"/>
<stop offset="0.13" stop-color="#9033C0"/>
<stop offset="0.16" stop-color="#7C1DC9"/>
<stop offset="0.32" stop-color="#6E41D2"/>
<stop offset="0.67" stop-color="#4C9BE8"/>
<stop offset="1" stop-color="#2AF6FF"/>
</linearGradient>
<linearGradient id="paint8_linear" x1="589.778" y1="342.429" x2="712.678" y2="305.578" gradientUnits="userSpaceOnUse">
<stop stop-color="#22244A"/>
<stop offset="1" stop-color="#4D529D"/>
</linearGradient>
<linearGradient id="paint9_linear" x1="272.927" y1="6421.56" x2="9191.3" y2="3703.78" gradientUnits="userSpaceOnUse">
<stop stop-color="#22244A"/>
<stop offset="1" stop-color="#676A9D"/>
</linearGradient>
<linearGradient id="paint10_linear" x1="621.18" y1="222.009" x2="557.201" y2="344.11" gradientUnits="userSpaceOnUse">
<stop offset="0.74" stop-color="#22244A"/>
<stop offset="1" stop-color="#3F426D"/>
</linearGradient>
<linearGradient id="paint11_linear" x1="561.084" y1="340.334" x2="675.873" y2="305.914" gradientUnits="userSpaceOnUse">
<stop offset="0.03" stop-color="#676994"/>
<stop offset="0.21" stop-color="#6C73E7"/>
<stop offset="0.62" stop-color="#4C9BE8"/>
<stop offset="1" stop-color="#2AF6FF"/>
</linearGradient>
<linearGradient id="paint12_linear" x1="470.056" y1="346.07" x2="621.04" y2="312.177" gradientUnits="userSpaceOnUse">
<stop offset="0.04" stop-color="#138BBD"/>
<stop offset="0.23" stop-color="#169AC7"/>
<stop offset="0.59" stop-color="#1FC3DF"/>
<stop offset="1" stop-color="#2AF6FF"/>
</linearGradient>
<linearGradient id="paint13_linear" x1="7583.98" y1="5685.82" x2="14510.3" y2="3178.54" gradientUnits="userSpaceOnUse">
<stop stop-color="#22244A"/>
<stop offset="1" stop-color="#45108A"/>
</linearGradient>
<linearGradient id="paint14_linear" x1="171.994" y1="6414.51" x2="9451.01" y2="3894.82" gradientUnits="userSpaceOnUse">
<stop stop-color="#22244A"/>
<stop offset="1" stop-color="#6F72A2"/>
</linearGradient>
<linearGradient id="paint15_linear" x1="18180.8" y1="-361.406" x2="15273.2" y2="9151.32" gradientUnits="userSpaceOnUse">
<stop offset="0.74" stop-color="#202348"/>
<stop offset="1" stop-color="#3746A3"/>
</linearGradient>
<linearGradient id="paint16_linear" x1="561.084" y1="340.334" x2="675.873" y2="305.914" gradientUnits="userSpaceOnUse">
<stop offset="0.03" stop-color="#505382"/>
<stop offset="0.21" stop-color="#636ADC"/>
<stop offset="0.62" stop-color="#4C9BE8"/>
<stop offset="1" stop-color="#2AF6FF"/>
</linearGradient>
<linearGradient id="paint17_linear" x1="470.056" y1="346.07" x2="621.04" y2="312.177" gradientUnits="userSpaceOnUse">
<stop offset="0.04" stop-color="#138BBD"/>
<stop offset="0.23" stop-color="#169AC7"/>
<stop offset="0.59" stop-color="#1FC3DF"/>
<stop offset="1" stop-color="#2AF6FF"/>
</linearGradient>
<linearGradient id="paint18_linear" x1="7571.97" y1="5152.99" x2="14804.5" y2="2791.58" gradientUnits="userSpaceOnUse">
<stop stop-color="#202348"/>
<stop offset="1" stop-color="#333777"/>
</linearGradient>
<linearGradient id="paint19_linear" x1="70.4868" y1="5976.26" x2="9675.04" y2="3623.92" gradientUnits="userSpaceOnUse">
<stop stop-color="#22244A"/>
<stop offset="1" stop-color="#494C83"/>
</linearGradient>
<linearGradient id="paint20_linear" x1="18180.8" y1="-1954.99" x2="15273.9" y2="7556.56" gradientUnits="userSpaceOnUse">
<stop offset="0.74" stop-color="#22244A"/>
<stop offset="1" stop-color="#3746A3"/>
</linearGradient>
<linearGradient id="paint21_linear" x1="561.084" y1="340.334" x2="675.873" y2="305.914" gradientUnits="userSpaceOnUse">
<stop offset="0.03" stop-color="#7376A0"/>
<stop offset="0.21" stop-color="#636AD9"/>
<stop offset="0.62" stop-color="#4C9BE8"/>
<stop offset="1" stop-color="#2AF6FF"/>
</linearGradient>
<linearGradient id="paint22_linear" x1="470.056" y1="346.07" x2="621.04" y2="312.177" gradientUnits="userSpaceOnUse">
<stop offset="0.04" stop-color="#138BBD"/>
<stop offset="0.23" stop-color="#169AC7"/>
<stop offset="0.59" stop-color="#1FC3DF"/>
<stop offset="1" stop-color="#2AF6FF"/>
</linearGradient>
<linearGradient id="paint23_linear" x1="7558.25" y1="4103.61" x2="15119.5" y2="1894.43" gradientUnits="userSpaceOnUse">
<stop stop-color="#202348"/>
<stop offset="1" stop-color="#676A9F"/>
</linearGradient>
<linearGradient id="paint24_linear" x1="-50.5183" y1="5044.78" x2="9911.8" y2="2861.21" gradientUnits="userSpaceOnUse">
<stop stop-color="#202348"/>
<stop offset="1" stop-color="#555998"/>
</linearGradient>
<linearGradient id="paint25_linear" x1="595.842" y1="198.045" x2="546.148" y2="292.883" gradientUnits="userSpaceOnUse">
<stop stop-color="#3746A3"/>
<stop offset="1" stop-color="#22244A"/>
</linearGradient>
<linearGradient id="paint26_linear" x1="3195.74" y1="14722.8" x2="1023.81" y2="6848.76" gradientUnits="userSpaceOnUse">
<stop offset="0.02" stop-color="#FFA98C"/>
<stop offset="0.07" stop-color="#C46AA7"/>
<stop offset="0.13" stop-color="#9033C0"/>
<stop offset="0.16" stop-color="#7C1DC9"/>
<stop offset="0.32" stop-color="#6E41D2"/>
<stop offset="0.67" stop-color="#4C9BE8"/>
<stop offset="1" stop-color="#2AF6FF"/>
</linearGradient>
<linearGradient id="paint27_linear" x1="7338.7" y1="11652.7" x2="4681.61" y2="7799.31" gradientUnits="userSpaceOnUse">
<stop offset="0.02" stop-color="#FFA98C"/>
<stop offset="0.07" stop-color="#C46AA7"/>
<stop offset="0.13" stop-color="#9033C0"/>
<stop offset="0.16" stop-color="#7C1DC9"/>
<stop offset="0.32" stop-color="#6E41D2"/>
<stop offset="0.67" stop-color="#4C9BE8"/>
<stop offset="1" stop-color="#2AF6FF"/>
</linearGradient>
<linearGradient id="paint28_linear" x1="1456.47" y1="8907.29" x2="5261.8" y2="6218.49" gradientUnits="userSpaceOnUse">
<stop offset="0.02" stop-color="#FFA98C"/>
<stop offset="0.07" stop-color="#C46AA7"/>
<stop offset="0.13" stop-color="#9033C0"/>
<stop offset="0.16" stop-color="#7C1DC9"/>
<stop offset="0.32" stop-color="#6E41D2"/>
<stop offset="0.67" stop-color="#4C9BE8"/>
<stop offset="1" stop-color="#2AF6FF"/>
</linearGradient>
<linearGradient id="paint29_linear" x1="2178.36" y1="7702.8" x2="4434.93" y2="5917.25" gradientUnits="userSpaceOnUse">
<stop offset="0.02" stop-color="#FFA98C"/>
<stop offset="0.07" stop-color="#C46AA7"/>
<stop offset="0.13" stop-color="#9033C0"/>
<stop offset="0.16" stop-color="#7C1DC9"/>
<stop offset="0.32" stop-color="#6E41D2"/>
<stop offset="0.67" stop-color="#4C9BE8"/>
<stop offset="1" stop-color="#2AF6FF"/>
</linearGradient>
<linearGradient id="paint30_linear" x1="1542.24" y1="11282.1" x2="3565.71" y2="6962.7" gradientUnits="userSpaceOnUse">
<stop offset="0.02" stop-color="#FFA98C"/>
<stop offset="0.07" stop-color="#C46AA7"/>
<stop offset="0.13" stop-color="#9033C0"/>
<stop offset="0.16" stop-color="#7C1DC9"/>
<stop offset="0.32" stop-color="#6E41D2"/>
<stop offset="0.67" stop-color="#4C9BE8"/>
<stop offset="1" stop-color="#2AF6FF"/>
</linearGradient>
<linearGradient id="paint31_linear" x1="2470.33" y1="6898.82" x2="3871.34" y2="5414.31" gradientUnits="userSpaceOnUse">
<stop offset="0.02" stop-color="#FFA98C"/>
<stop offset="0.07" stop-color="#C46AA7"/>
<stop offset="0.13" stop-color="#9033C0"/>
<stop offset="0.16" stop-color="#7C1DC9"/>
<stop offset="0.32" stop-color="#6E41D2"/>
<stop offset="0.67" stop-color="#4C9BE8"/>
<stop offset="1" stop-color="#2AF6FF"/>
</linearGradient>
<linearGradient id="paint32_linear" x1="9159.34" y1="8382.5" x2="6127.08" y2="6420.89" gradientUnits="userSpaceOnUse">
<stop offset="0.02" stop-color="#FFA98C"/>
<stop offset="0.07" stop-color="#C46AA7"/>
<stop offset="0.13" stop-color="#9033C0"/>
<stop offset="0.16" stop-color="#7C1DC9"/>
<stop offset="0.32" stop-color="#6E41D2"/>
<stop offset="0.67" stop-color="#4C9BE8"/>
<stop offset="1" stop-color="#2AF6FF"/>
</linearGradient>
<linearGradient id="paint33_linear" x1="6956.02" y1="4818.6" x2="6023.34" y2="3661.07" gradientUnits="userSpaceOnUse">
<stop offset="0.02" stop-color="#FFA98C"/>
<stop offset="0.07" stop-color="#C46AA7"/>
<stop offset="0.13" stop-color="#9033C0"/>
<stop offset="0.16" stop-color="#7C1DC9"/>
<stop offset="0.32" stop-color="#6E41D2"/>
<stop offset="0.67" stop-color="#4C9BE8"/>
<stop offset="1" stop-color="#2AF6FF"/>
</linearGradient>
<clipPath id="clip0">
<rect width="1130" height="391" fill="white"/>
</clipPath>
</defs>
</svg>
