<?xml version="1.0" standalone="no"?>
<!DOCTYPE svg PUBLIC "-//W3C//DTD SVG 20010904//EN"
 "http://www.w3.org/TR/2001/REC-SVG-20010904/DTD/svg10.dtd">
<svg version="1.0" xmlns="http://www.w3.org/2000/svg"
 width="1661.000000pt" height="1271.000000pt" viewBox="0 0 1661.000000 1271.000000"
 preserveAspectRatio="xMidYMid meet">

<g transform="translate(0.000000,1271.000000) scale(0.100000,-0.100000)"
fill="#000000" stroke="none">
<path d="M9702 11540 c-6 -30 -14 -71 -17 -90 -5 -25 -16 -41 -38 -56 -26 -17
-220 -133 -667 -400 l-55 -33 -5 27 c-5 21 -13 1 -38 -88 -37 -133 -38 -144
-14 -170 9 -11 71 -116 136 -235 l119 -215 777 0 777 0 434 -752 c550 -956
910 -1582 1104 -1918 547 -949 727 -1262 731 -1274 3 -7 -15 -47 -39 -87 -58
-97 -721 -1238 -735 -1264 -9 -17 6 -45 97 -187 59 -91 129 -202 156 -245 l50
-80 81 -23 c69 -19 84 -20 102 -9 18 12 21 21 18 68 -3 38 0 58 10 68 8 8 12
19 8 24 -3 5 0 8 7 7 7 -2 13 2 14 7 0 6 10 21 22 34 12 13 20 28 17 33 -3 4
-1 8 4 8 9 0 112 160 112 173 0 4 20 39 44 79 63 104 108 181 163 277 26 45
57 98 68 117 18 31 149 254 203 348 13 22 39 64 58 93 19 29 34 57 34 61 0 4
20 40 45 80 25 40 45 74 45 77 0 4 23 40 83 130 57 84 97 154 97 167 0 13 -23
17 -147 23 -82 3 -182 10 -223 14 l-75 8 75 3 c41 1 100 3 130 5 30 2 103 4
163 4 81 1 107 4 107 14 0 7 -31 67 -68 133 -132 230 -307 534 -622 1079 -174
303 -456 791 -625 1085 -169 294 -409 711 -533 925 -124 215 -335 581 -470
815 -134 234 -251 430 -260 437 -19 15 -37 6 -64 -33 -24 -35 -21 -25 12 39
21 41 22 49 10 57 -14 9 -215 10 -1635 11 -220 0 -429 3 -465 8 l-65 7 45 13
c36 11 262 14 1107 15 l1062 1 5 -21 c3 -12 176 -318 384 -680 352 -612 960
-1672 1705 -2969 386 -673 519 -904 537 -932 13 -20 12 -25 -6 -45 -12 -13
-73 -113 -136 -223 -63 -110 -153 -265 -200 -345 -123 -211 -282 -485 -478
-825 -95 -165 -190 -330 -212 -367 -21 -37 -43 -70 -48 -73 -17 -11 -11 -27 8
-20 9 3 168 94 353 201 307 177 339 194 363 184 38 -14 41 -13 15 9 l-23 18
299 514 c164 283 351 604 415 714 64 110 119 208 123 218 8 21 51 -56 -1753
3082 -1089 1895 -1120 1949 -1142 1970 -12 11 -18 15 -14 8 9 -17 -15 -21 -42
-7 -17 9 -216 12 -794 13 -449 0 -776 5 -781 10 -5 5 -13 49 -18 98 -13 115
-14 118 -27 53z"/>
<path d="M7384 11382 c5 -9 -137 -10 -1054 -12 -348 0 -591 -4 -600 -10 -13
-8 -6 -35 44 -187 32 -98 65 -185 72 -193 13 -13 146 -15 1059 -17 929 -2
1048 -4 1082 -18 30 -13 35 -18 23 -25 -9 -6 -431 -10 -1070 -10 -927 0 -1058
-2 -1077 -15 -28 -20 -36 -33 -603 -1020 -266 -462 -645 -1121 -843 -1465
-197 -344 -537 -935 -755 -1315 -219 -379 -402 -702 -409 -717 l-12 -28 42 -1
c23 0 130 -2 237 -4 107 -3 257 -5 333 -5 115 0 139 -3 144 -15 3 -9 4 -18 1
-20 -2 -2 -80 -5 -173 -6 -147 -1 -165 -3 -144 -15 13 -7 34 -13 46 -14 13 0
22 -5 20 -11 -1 -6 4 -14 12 -17 8 -3 11 0 7 7 -4 6 -2 11 4 11 7 0 10 -7 6
-15 -3 -8 -1 -15 4 -15 6 0 10 -7 10 -15 0 -8 -5 -15 -10 -15 -6 0 -13 7 -16
15 -4 8 -11 15 -17 15 -5 0 -2 -9 9 -21 13 -15 26 -19 46 -15 21 4 28 1 33
-15 4 -10 11 -17 16 -14 13 9 11 -9 -3 -23 -9 -9 -9 -12 1 -12 9 0 12 -9 9
-24 -5 -23 17 -45 30 -31 3 3 0 5 -6 5 -7 0 -12 10 -12 23 0 18 2 19 10 7 8
-13 10 -13 10 2 0 9 -6 18 -12 21 -7 2 -9 8 -5 13 5 5 13 1 18 -9 6 -9 19 -17
29 -17 11 0 20 -4 20 -10 0 -5 -6 -7 -14 -4 -7 3 -16 -2 -19 -10 -4 -9 -2 -16
3 -16 5 0 7 -7 3 -16 -5 -13 1 -14 39 -10 34 4 45 2 45 -9 0 -10 -5 -11 -18
-4 -14 7 -21 5 -29 -11 -9 -16 -8 -22 5 -26 8 -3 12 -11 8 -17 -3 -6 -1 -7 6
-3 9 6 9 11 1 21 -7 8 -7 16 -2 19 11 6 26 -40 17 -53 -9 -15 19 -31 35 -19
13 8 12 9 -2 5 -12 -4 -16 0 -14 16 2 24 25 69 26 52 0 -6 -4 -15 -10 -21 -6
-6 -3 -14 10 -22 16 -10 18 -9 13 5 -4 11 -3 14 5 9 19 -11 14 -33 -10 -50
-12 -9 -19 -18 -16 -21 3 -4 15 4 26 16 19 19 23 20 36 6 19 -18 8 -31 -12
-14 -13 11 -14 9 -1 -10 9 -16 16 -19 21 -10 5 9 12 6 23 -8 28 -36 36 -55 29
-67 -4 -6 -3 -8 3 -5 5 3 18 -11 28 -31 11 -20 32 -55 48 -76 15 -22 25 -46
22 -53 -2 -8 0 -11 5 -8 5 3 20 -16 32 -42 13 -26 26 -50 29 -53 7 -6 79 -129
79 -135 0 -3 13 -24 29 -47 16 -24 61 -99 101 -168 40 -69 94 -161 120 -205
26 -44 53 -90 59 -103 11 -20 2 -36 -102 -175 -148 -196 -154 -203 -219 -222
-59 -17 -70 -37 -34 -60 18 -12 29 -12 76 2 63 17 86 36 132 104 18 27 38 47
45 44 7 -2 15 1 19 7 4 7 3 8 -4 4 -19 -11 -14 9 6 27 10 10 22 14 26 10 4 -4
5 -1 2 7 -6 15 40 76 105 140 19 19 50 53 67 76 l31 40 -81 140 c-45 76 -229
393 -410 703 -181 311 -326 571 -324 578 5 11 273 478 843 1468 61 105 162
280 225 390 63 110 297 515 518 900 222 385 466 808 542 940 l138 240 810 5
810 5 105 230 105 230 -21 85 c-12 47 -25 92 -30 101 -7 14 -679 459 -694 459
-3 0 -4 -4 -1 -8z m-3401 -5272 c17 -34 5 -50 -19 -26 -10 10 -11 16 -3 16 8
0 9 3 0 13 -6 8 -8 17 -4 20 10 10 10 10 26 -23z m47 -61 c0 -6 -4 -7 -10 -4
-5 3 -10 11 -10 16 0 6 5 7 10 4 6 -3 10 -11 10 -16z"/>
<path d="M7499 9933 c-9 -2 -33 -28 -53 -58 -37 -53 -176 -180 -271 -247 -59
-42 -276 -152 -388 -196 -42 -18 -130 -43 -195 -58 -223 -50 -347 -85 -364
-102 -12 -13 -327 -557 -480 -832 -14 -25 -66 -116 -117 -203 -50 -88 -91
-160 -91 -162 0 -2 -38 -70 -85 -151 -48 -81 -100 -172 -117 -203 -17 -31
-119 -209 -226 -396 -108 -187 -212 -369 -232 -405 -140 -251 -268 -466 -318
-535 -53 -72 -52 -99 3 -181 19 -30 35 -55 35 -57 0 -3 62 -112 297 -517 46
-80 88 -152 94 -160 5 -8 66 -114 136 -235 227 -397 475 -825 583 -1010 10
-16 60 -104 112 -195 292 -508 425 -735 443 -754 16 -17 42 -25 110 -35 225
-33 467 -100 551 -153 55 -35 242 -185 278 -222 16 -17 47 -56 69 -86 22 -30
47 -61 55 -67 13 -10 255 -13 1136 -13 617 0 1126 4 1131 8 6 4 32 42 58 84
27 43 75 102 110 134 84 76 221 173 271 191 168 60 341 100 530 122 62 7 84
14 101 33 13 13 111 176 219 363 108 187 200 347 205 355 32 53 362 623 501
865 92 160 230 398 307 530 128 219 171 295 210 365 8 14 25 43 39 65 13 22
27 47 31 55 16 35 163 280 201 335 23 33 42 71 42 84 0 13 -13 45 -28 70 -15
25 -34 62 -42 81 -8 19 -60 114 -116 210 -56 96 -274 477 -484 845 -211 369
-392 686 -403 705 -11 19 -34 60 -51 90 -102 181 -318 561 -371 650 -62 105
-91 156 -148 260 -51 94 -37 88 -332 160 -105 26 -208 59 -270 87 -112 49
-284 140 -331 175 -152 111 -270 206 -317 255 l-56 58 -978 1 c-538 1 -985 0
-994 -3z m1959 -166 c23 -15 101 -85 174 -155 149 -144 201 -181 344 -248 223
-103 254 -114 369 -134 183 -31 229 -41 242 -52 6 -5 47 -70 90 -144 43 -75
85 -147 94 -162 18 -30 21 -36 164 -281 55 -95 107 -184 116 -199 9 -15 25
-43 36 -62 22 -39 161 -277 291 -500 47 -80 115 -197 151 -260 191 -329 372
-639 441 -755 43 -71 106 -179 140 -240 35 -60 82 -143 106 -182 24 -40 44
-78 44 -85 0 -15 -43 -89 -147 -251 -39 -62 -147 -242 -240 -402 -94 -159
-254 -434 -357 -610 -102 -176 -190 -327 -195 -335 -20 -34 -420 -715 -586
-1000 -97 -168 -188 -315 -201 -327 -17 -15 -42 -23 -91 -28 -154 -15 -357
-61 -463 -105 -41 -17 -93 -38 -115 -47 -91 -37 -277 -181 -345 -268 -64 -82
45 -75 -1074 -75 l-998 0 -82 78 c-88 85 -211 186 -272 224 -130 81 -355 153
-569 183 -69 9 -119 22 -134 33 -12 9 -87 127 -166 262 -135 233 -387 664
-690 1180 -76 129 -169 287 -205 350 -37 63 -106 180 -153 260 -490 835 -490
836 -489 874 1 24 33 81 120 212 102 154 243 385 312 512 11 21 32 55 45 77
14 22 28 47 32 55 4 8 18 33 32 55 27 44 232 393 273 465 43 75 89 155 217
373 67 114 130 222 140 240 10 17 93 160 185 316 91 156 166 285 166 287 0 2
16 28 35 58 19 30 35 57 35 59 0 7 66 115 80 132 15 18 72 35 260 76 205 44
236 55 368 121 243 123 295 160 462 325 66 64 129 118 145 123 17 5 420 8 926
7 l895 -2 42 -28z"/>
<path d="M7612 9655 c-16 -14 -47 -48 -68 -76 -36 -47 -222 -207 -339 -291
-159 -114 -350 -174 -680 -216 -57 -7 -60 -9 -100 -62 -23 -30 -158 -255 -300
-500 -246 -423 -366 -628 -645 -1105 -68 -115 -171 -293 -230 -395 -86 -149
-318 -513 -422 -664 -34 -47 -48 -17 242 -511 68 -115 160 -273 205 -350 84
-144 263 -448 413 -705 47 -80 139 -237 205 -350 65 -113 127 -218 137 -235
85 -145 156 -266 174 -296 37 -62 180 -309 201 -346 41 -74 65 -90 141 -98 38
-4 130 -22 204 -40 151 -36 344 -118 445 -187 60 -42 191 -153 252 -215 18
-17 47 -35 65 -38 18 -3 450 -4 961 -3 l927 3 69 75 c114 125 296 239 506 317
88 32 294 79 398 89 39 4 76 13 87 23 16 13 107 162 203 332 13 24 34 60 45
79 12 19 26 44 32 55 5 11 20 37 32 57 20 32 345 587 459 781 20 34 88 151
152 260 65 109 117 202 117 206 0 4 5 12 12 19 7 7 26 37 43 67 105 189 323
554 413 690 57 88 117 180 133 204 16 25 29 57 29 71 0 25 -133 265 -302 545
-34 55 -72 120 -86 145 -14 25 -72 126 -130 225 -162 279 -383 657 -402 690
-52 88 -510 873 -589 1009 -62 108 -106 156 -140 156 -37 0 -201 37 -311 72
-52 16 -162 63 -245 103 -165 81 -231 130 -415 308 -57 56 -113 107 -125 114
-15 9 -224 12 -882 13 l-861 0 -30 -25z m943 -1220 c82 -7 389 -53 411 -62 14
-5 15 -33 9 -217 -3 -116 -8 -226 -11 -243 l-5 -33 61 0 c40 0 60 4 60 12 0
25 21 244 26 266 4 22 6 22 184 22 l180 0 0 -32 c0 -18 -9 -100 -20 -183 -34
-255 -62 -487 -58 -490 2 -1 131 -37 288 -80 518 -140 526 -147 510 -387 -5
-73 -7 -135 -5 -138 2 -4 99 -7 214 -7 l211 -1 1 26 c0 15 2 46 5 69 l6 43
-44 -20 c-109 -50 -197 -7 -198 97 0 41 5 58 26 82 37 45 84 54 207 41 178
-19 197 -34 197 -159 l0 -71 48 -24 c73 -37 90 -61 103 -148 l12 -76 106 -10
c58 -6 154 -14 212 -17 l106 -7 47 41 c97 84 239 63 287 -43 34 -75 22 -146
-34 -204 -69 -72 -183 -67 -256 12 -24 25 -29 26 -136 26 -93 0 -325 -17 -332
-24 -2 -1 -7 -33 -12 -71 -12 -84 -31 -113 -98 -145 l-51 -24 -4 -84 c-4 -71
-8 -86 -29 -107 -28 -29 -116 -44 -246 -45 -81 0 -83 1 -118 35 -35 35 -40 52
-36 110 6 72 84 118 159 94 20 -6 41 -15 47 -20 24 -23 30 -7 24 63 -4 62 -14
92 -62 191 l-57 119 20 38 c11 22 20 43 20 47 -1 4 -12 -13 -25 -39 l-25 -47
55 -117 c30 -64 55 -121 55 -126 0 -7 -82 -9 -225 -6 -149 2 -225 0 -225 -7
-1 -129 -124 -1355 -145 -1445 -24 -102 -57 -159 -122 -211 -32 -26 -175 -129
-318 -230 -143 -100 -294 -206 -335 -235 -122 -87 -657 -415 -692 -425 -40
-11 -111 -11 -158 0 -58 13 -572 339 -914 579 -509 357 -509 357 -546 481 -21
70 -106 855 -136 1246 -8 116 -17 219 -19 230 -4 19 -12 20 -230 20 -253 0
-233 7 -233 -83 -1 -38 3 -52 11 -48 107 44 151 43 198 -4 24 -23 29 -37 29
-76 0 -56 -30 -107 -73 -125 -34 -14 -245 -6 -295 12 -45 16 -62 53 -62 138
l0 71 -47 24 c-74 37 -91 61 -104 148 l-12 76 -51 6 c-28 3 -127 9 -219 12
l-168 7 -31 -32 c-60 -61 -130 -75 -204 -42 -167 76 -111 331 73 331 68 0 115
-19 145 -60 l23 -32 105 6 c58 4 155 12 216 18 l112 11 7 61 c10 90 29 123 89
153 28 14 52 27 54 28 2 2 7 42 11 89 6 59 14 92 25 105 22 24 131 44 248 45
72 1 91 -2 114 -20 59 -44 63 -135 7 -190 -29 -29 -40 -34 -81 -34 -27 0 -64
8 -85 19 l-38 19 3 -66 3 -67 208 0 209 0 -7 137 c-8 152 -1 189 43 231 41 39
154 79 433 153 140 37 257 70 261 73 4 3 -13 164 -37 356 -25 193 -45 353 -45
358 0 4 83 7 185 7 102 0 185 -3 186 -7 0 -5 2 -15 3 -23 2 -8 6 -62 10 -120
11 -155 8 -150 73 -150 l54 0 -3 248 -3 247 135 23 c175 29 383 51 440 47 25
-3 77 -7 115 -10z"/>
<path d="M8393 7353 c15 -2 39 -2 55 0 15 2 2 4 -28 4 -30 0 -43 -2 -27 -4z"/>
<path d="M8513 7339 c21 -5 47 -14 58 -19 10 -6 19 -8 19 -5 0 10 -68 35 -92
34 -15 -1 -9 -4 15 -10z"/>
<path d="M10585 6829 c-4 -6 -5 -12 -2 -15 2 -3 7 2 10 11 7 17 1 20 -8 4z"/>
<path d="M6321 6819 c-1 -4 20 -50 45 -103 29 -63 44 -106 41 -122 -5 -29 -1
-31 12 -5 9 15 0 41 -44 128 -29 59 -54 105 -54 102z"/>
<path d="M5286 6675 c-53 -49 -20 -155 49 -155 87 0 118 105 48 160 -34 27
-64 25 -97 -5z"/>
<path d="M6039 6689 c-84 -31 -58 -159 33 -159 51 0 78 27 78 79 0 66 -51 103
-111 80z"/>
<path d="M10784 6677 c-35 -31 -39 -96 -7 -129 32 -32 89 -29 120 6 32 38 30
80 -6 117 -36 35 -70 37 -107 6z"/>
<path d="M11519 6671 c-32 -33 -37 -67 -14 -110 16 -32 33 -41 75 -41 36 0 80
50 80 92 0 38 -48 88 -85 88 -16 0 -38 -12 -56 -29z"/>
<path d="M7935 6459 c-4 -6 -5 -13 -2 -15 7 -8 57 7 57 17 0 13 -47 11 -55 -2z"/>
<path d="M9100 6445 c0 -20 66 -20 100 0 24 14 22 14 -37 15 -50 0 -63 -3 -63
-15z"/>
<path d="M7736 6295 c7 -68 10 -73 26 -57 9 9 9 15 0 24 -7 7 -12 23 -12 38 0
14 -5 32 -11 40 -7 11 -8 -3 -3 -45z"/>
<path d="M9097 6333 c-11 -20 -19 -75 -9 -69 12 7 27 65 19 72 -3 3 -7 2 -10
-3z"/>
<path d="M8900 6256 c0 -13 10 -16 53 -15 66 1 112 17 51 18 -23 1 -56 4 -73
7 -24 5 -31 3 -31 -10z"/>
<path d="M8340 5553 c-19 -2 -98 -8 -175 -12 -135 -9 -134 -9 50 -4 181 5 310
-1 1039 -43 190 -11 272 -12 279 -5 8 8 7 11 -3 12 -8 0 -22 2 -30 3 -8 2 -94
6 -190 10 -96 4 -341 15 -545 26 -203 11 -374 19 -380 18 -5 -1 -26 -3 -45 -5z"/>
<path d="M7878 5523 c23 -2 61 -2 85 0 23 2 4 4 -43 4 -47 0 -66 -2 -42 -4z"/>
<path d="M7648 5513 c7 -3 16 -2 19 1 4 3 -2 6 -13 5 -11 0 -14 -3 -6 -6z"/>
<path d="M7707 5513 c18 -2 50 -2 70 0 21 2 7 4 -32 4 -38 0 -55 -2 -38 -4z"/>
<path d="M7420 5500 c-13 -8 -12 -10 3 -10 9 0 17 5 17 10 0 12 -1 12 -20 0z"/>
<path d="M7477 5503 c18 -2 50 -2 70 0 21 2 7 4 -32 4 -38 0 -55 -2 -38 -4z"/>
<path d="M7290 4676 c0 -2 8 -10 18 -17 15 -13 16 -12 3 4 -13 16 -21 21 -21
13z"/>
<path d="M7330 4646 c0 -2 8 -10 18 -17 15 -13 16 -12 3 4 -13 16 -21 21 -21
13z"/>
<path d="M7382 4604 c10 -10 20 -16 22 -13 3 3 -5 11 -17 18 -21 13 -21 12 -5
-5z"/>
<path d="M7440 4560 c14 -11 49 -37 78 -58 30 -20 73 -50 97 -67 308 -216 438
-298 610 -386 113 -58 86 -38 -115 86 -175 107 -255 159 -532 346 -80 54 -150
99 -155 99 -4 0 3 -9 17 -20z"/>
<path d="M8361 3979 c17 -11 80 -12 96 -1 6 4 -16 8 -49 9 -39 1 -56 -2 -47
-8z"/>
<path d="M2803 6285 c-3 -9 1 -23 9 -33 8 -9 32 -48 53 -87 21 -38 57 -101 80
-140 23 -38 111 -189 195 -335 242 -420 442 -762 467 -801 13 -20 45 -50 71
-66 26 -17 135 -85 242 -153 309 -196 350 -221 350 -214 0 7 -62 94 -67 94 -2
0 -1 -4 2 -10 8 -14 -8 -13 -22 1 -6 6 -20 16 -31 23 -11 6 -59 36 -107 66
-48 30 -94 60 -103 65 -10 6 -44 28 -77 49 -33 22 -69 44 -80 51 -11 6 -51 31
-89 55 -54 34 -65 45 -50 50 21 8 64 1 64 -10 0 -13 29 -20 36 -8 5 7 2 8 -6
3 -9 -6 -11 -4 -5 5 6 10 13 6 27 -13 11 -15 28 -27 38 -27 9 0 23 -7 30 -15
7 -8 9 -15 6 -15 -14 0 20 -27 43 -35 12 -4 20 -9 17 -12 -3 -4 2 -12 12 -19
13 -9 19 -9 24 -1 5 8 8 7 8 -4 0 -16 26 -34 43 -30 5 1 6 -3 2 -9 -3 -5 1
-10 9 -10 9 0 30 -9 48 -20 18 -11 29 -20 24 -20 -5 0 -3 -7 4 -15 7 -8 17
-12 22 -9 5 3 16 -2 24 -12 9 -11 13 -13 9 -6 -3 6 -4 12 -1 12 3 0 13 -14 21
-31 9 -17 19 -28 22 -25 4 3 12 1 20 -5 7 -6 13 -9 13 -6 0 9 -88 163 -300
528 -117 200 -316 542 -443 759 -127 217 -239 407 -249 423 l-19 27 -190 0
c-161 0 -191 -2 -196 -15z"/>
<path d="M3806 6171 c-19 -7 -19 -8 0 -13 13 -3 21 0 21 8 0 8 -1 14 -1 13 -1
0 -10 -4 -20 -8z"/>
<path d="M3900 6025 c0 -8 5 -15 11 -15 5 0 7 -6 3 -12 -4 -7 -3 -10 1 -5 16
14 16 47 0 47 -8 0 -15 -7 -15 -15z"/>
<path d="M4072 5875 c-7 -8 -8 -15 -3 -15 5 0 13 5 16 10 5 8 12 7 23 -2 15
-12 16 -11 3 5 -16 20 -22 21 -39 2z"/>
<path d="M3805 4830 c3 -5 8 -10 11 -10 2 0 4 5 4 10 0 6 -5 10 -11 10 -5 0
-7 -4 -4 -10z"/>
<path d="M5369 3956 c-5 -6 -89 -20 -309 -51 l-165 -24 -58 -63 c-31 -35 -81
-90 -109 -123 -48 -55 -48 -57 -10 -20 35 33 44 37 52 25 8 -12 10 -11 10 5 0
16 2 17 9 6 12 -19 97 -17 144 3 20 8 37 10 39 5 2 -5 16 -2 32 6 36 19 116
19 142 0 10 -8 27 -15 37 -15 9 0 17 -6 17 -14 0 -8 7 -17 16 -20 22 -9 24 -8
18 9 -4 8 -9 13 -13 10 -4 -2 -8 2 -8 10 0 12 4 12 19 -2 11 -9 17 -25 15 -35
-3 -10 -1 -18 4 -18 5 0 9 7 9 16 0 9 7 14 18 12 9 -2 16 -11 14 -20 -1 -9 5
-18 13 -22 11 -4 14 -2 9 6 -4 6 -3 8 3 5 6 -4 16 0 23 8 13 15 30 12 30 -6 0
-6 -4 -8 -10 -4 -5 3 -18 -3 -30 -15 l-20 -20 42 5 c22 3 45 8 51 12 6 4 8 -4
5 -21 -4 -20 -1 -26 11 -26 10 0 22 5 28 11 8 8 15 5 25 -12 7 -13 13 -29 13
-34 0 -6 11 -21 23 -33 13 -13 21 -30 18 -38 -3 -8 -2 -13 3 -10 4 3 20 -16
35 -42 15 -26 38 -65 51 -87 13 -21 21 -43 19 -47 -3 -4 -1 -8 5 -8 13 0 103
-159 96 -170 -3 -6 0 -10 8 -10 13 0 18 -10 25 -42 1 -5 11 -17 22 -28 11 -11
33 -45 49 -77 16 -32 41 -75 55 -96 14 -21 26 -44 26 -52 0 -8 4 -17 10 -20
19 -12 31 -43 18 -51 -7 -5 -8 -3 -3 7 5 8 4 11 -1 6 -11 -11 -13 -58 -2 -51
5 3 11 -1 14 -10 3 -8 14 -13 24 -11 22 4 35 -21 14 -29 -20 -8 -18 -26 4 -26
15 0 15 2 2 11 -12 9 -12 10 3 5 10 -3 21 -6 24 -6 3 0 0 -7 -7 -15 -11 -13
-10 -14 4 -9 12 4 16 0 16 -15 0 -12 4 -21 8 -21 9 0 57 -80 57 -95 0 -5 9
-18 20 -27 12 -10 15 -17 8 -18 -7 0 -13 5 -13 11 0 12 -42 2 -51 -13 -3 -5
-11 -3 -17 4 -8 11 -4 17 18 26 21 10 27 18 22 30 -6 16 -7 16 -10 0 -3 -15
-7 -16 -24 -7 -18 9 -20 9 -15 -4 9 -23 -17 -41 -41 -28 -14 7 -19 7 -19 -4 0
-8 4 -12 8 -9 4 2 18 0 32 -5 18 -7 24 -16 22 -35 -2 -14 1 -26 7 -26 5 0 7 9
3 20 -5 15 -3 18 9 14 10 -4 16 -1 16 9 0 16 24 17 37 2 4 -4 3 -5 -3 -2 -6 3
-25 -10 -42 -29 -20 -23 -36 -33 -44 -28 -10 6 -10 4 0 -9 8 -9 11 -21 7 -27
-3 -5 -1 -10 6 -10 10 0 10 -3 1 -12 -10 -10 -15 -10 -20 -1 -5 8 -13 9 -22 3
-13 -8 -12 -10 3 -10 11 0 17 -8 17 -24 0 -13 7 -29 15 -36 8 -7 15 -21 15
-32 0 -10 4 -17 8 -14 4 2 8 -4 8 -15 0 -13 -5 -18 -15 -14 -11 4 -12 3 -1
-10 9 -11 9 -15 1 -15 -7 0 -10 -4 -6 -9 3 -5 0 -13 -6 -17 -8 -4 -7 -9 2 -15
20 -13 39 -11 39 4 0 6 18 32 40 57 23 25 64 75 93 113 43 55 57 67 81 67 l28
0 -18 -27 c-10 -16 -49 -71 -88 -123 -237 -321 -286 -393 -275 -406 9 -11 291
-13 1587 -14 868 0 1921 -1 2342 -2 1179 -2 1190 -1 1190 20 0 10 -39 81 -86
158 -96 154 -166 285 -158 293 6 6 26 -18 116 -136 35 -45 77 -89 93 -98 25
-14 27 -14 11 -1 -11 9 -15 16 -10 16 5 0 10 10 11 21 2 20 1 20 -11 4 -10
-14 -15 -15 -21 -5 -6 9 -4 11 5 5 10 -6 12 -4 7 7 -4 13 1 16 28 14 18 -1 31
2 29 6 -2 3 0 9 6 13 6 4 8 10 5 15 -3 5 5 12 19 16 14 3 24 9 23 13 -2 8 43
67 49 64 14 -9 26 1 35 26 7 19 15 28 25 24 7 -3 17 2 20 11 3 9 10 13 15 10
5 -3 9 -2 8 3 -4 22 2 34 14 27 6 -4 9 -3 4 1 -4 5 1 17 10 28 13 15 14 19 3
13 -8 -4 -6 0 4 8 11 9 23 16 28 16 4 0 8 5 8 11 0 6 -8 8 -17 5 -16 -5 -15
-4 1 9 10 8 23 12 28 8 6 -3 5 4 -1 16 -10 17 -9 20 4 15 10 -4 15 0 15 10 0
9 8 16 19 16 14 0 17 6 13 25 -4 21 -1 24 14 18 13 -5 16 -3 11 9 -3 10 0 19
10 22 9 4 13 13 9 22 -7 19 14 42 35 39 12 -2 15 4 11 23 -4 19 -2 23 8 17 10
-6 12 -3 8 13 -4 12 -2 20 3 16 5 -3 9 6 9 20 0 14 4 27 9 30 4 3 7 -7 5 -22
-4 -27 -4 -27 6 2 5 16 7 33 4 38 -3 4 0 8 6 8 6 0 9 4 5 9 -3 6 4 15 16 21
15 9 19 18 15 36 -5 19 -3 22 11 17 10 -4 14 -2 10 4 -4 6 2 21 13 33 11 13
20 29 20 37 0 7 5 13 11 13 5 0 7 5 4 10 -3 6 0 13 9 16 8 3 18 20 22 37 7 37
23 59 34 52 5 -3 11 4 15 15 4 11 10 18 15 15 4 -3 6 5 3 17 -3 14 -1 18 4 12
11 -16 27 3 31 36 5 34 20 50 40 43 14 -6 15 -5 2 9 -11 11 -17 12 -22 4 -6
-8 -8 -7 -8 2 0 7 11 17 25 22 23 9 30 21 26 43 -1 5 3 6 9 2 9 -6 15 24 10
50 -3 18 18 -9 24 -30 3 -11 4 -5 2 13 -2 21 2 32 11 32 16 0 17 12 1 29 -11
10 -10 11 3 6 14 -5 35 18 26 28 -1 1 8 16 20 33 12 17 20 34 16 38 -3 3 1 6
9 6 11 0 15 8 13 25 -1 14 0 23 3 21 7 -7 42 13 42 24 0 5 -8 7 -17 4 -12 -4
-9 1 7 15 14 11 32 21 40 22 9 0 11 2 3 5 -7 3 -9 12 -6 20 3 7 9 12 14 9 8
-6 4 34 -5 42 -7 7 18 32 27 26 4 -2 7 1 7 6 0 6 16 11 35 11 35 0 55 20 55
56 0 9 -30 50 -66 90 -48 55 -73 75 -97 79 -455 75 -470 77 -478 64 -11 -17
-771 -1320 -855 -1466 l-59 -103 -2162 0 -2162 0 -18 28 c-11 15 -219 370
-463 790 -418 716 -458 780 -481 758z m65 -308 c6 -4 7 -10 3 -14 -11 -12 -36
16 -30 34 6 13 7 13 11 1 3 -7 10 -17 16 -21z m541 -936 c0 -18 -20 -15 -23 4
-3 10 1 15 10 12 7 -3 13 -10 13 -16z"/>
<path d="M12220 3634 c0 -24 -183 -345 -706 -1239 -52 -88 -160 -275 -242
-415 l-147 -255 -2631 -3 -2631 -2 -63 112 c-34 62 -84 149 -110 193 -82 138
-117 197 -185 315 -37 63 -89 153 -117 200 -28 47 -83 141 -123 210 -40 69
-102 175 -137 235 -180 305 -318 546 -344 597 -16 32 -33 58 -38 58 -5 0 -6
-19 -3 -42 3 -24 20 -202 38 -396 l32 -354 -44 -45 -44 -45 43 22 c24 12 45
20 46 18 10 -12 156 -263 491 -838 212 -366 393 -671 402 -677 25 -19 5612
-19 5635 0 9 6 72 109 140 227 190 327 433 745 610 1049 111 189 156 276 148
281 -9 6 -10 98 -2 401 5 217 7 400 4 407 -8 22 -22 13 -22 -14z"/>
<path d="M4644 3598 l-19 -23 23 19 c21 18 27 26 19 26 -2 0 -12 -10 -23 -22z"/>
<path d="M6040 2519 c0 -5 7 -9 16 -9 9 0 12 -5 8 -12 -4 -7 -3 -8 5 -4 7 4
10 13 8 19 -4 13 -37 19 -37 6z"/>
<path d="M6015 2510 c-4 -6 -11 -7 -17 -4 -7 4 -8 2 -4 -4 4 -7 2 -12 -3 -12
-6 0 -11 -5 -11 -11 0 -8 4 -8 15 1 8 6 18 9 22 7 5 -3 9 3 9 14 0 22 -2 23
-11 9z"/>
<path d="M5945 2501 c-3 -5 -2 -12 3 -15 5 -3 9 1 9 9 0 17 -3 19 -12 6z"/>
<path d="M5980 2336 c0 -2 11 -6 25 -8 14 -3 25 -1 25 3 0 5 -11 9 -25 9 -14
0 -25 -2 -25 -4z"/>
<path d="M11150 2140 c0 -5 5 -10 11 -10 5 0 7 5 4 10 -3 6 -8 10 -11 10 -2 0
-4 -4 -4 -10z"/>
</g>
</svg>
