<svg width="241" height="97" viewBox="0 0 241 97" fill="none" xmlns="http://www.w3.org/2000/svg">
<g clip-path="url(#clip0)">
<path d="M100.906 29.754H87.2461V79.4378H100.906V29.754Z" fill="white"/>
<path d="M101.211 11.1548H87.5508V23.9134H101.211V11.1548Z" fill="white"/>
<path d="M174.838 55.4098C172.102 50.8524 171.1 45.4541 172.018 40.2124C172.935 34.9706 175.71 30.2396 179.829 26.8932C183.948 23.5469 189.134 21.8114 194.427 22.0074C199.721 22.2034 204.765 24.3176 208.628 27.9595C212.491 31.6013 214.911 36.5247 215.442 41.8201C215.973 47.1154 214.579 52.425 211.517 56.7677C208.454 61.1105 203.931 64.193 198.783 65.4458C193.634 66.6987 188.209 66.0372 183.508 63.5835C182.574 63.0973 173.037 64.4984 173.037 64.4984C173.037 64.4984 175.792 56.9932 174.838 55.4098ZM160.688 44.0185C160.688 50.5624 162.619 56.9594 166.238 62.4004C169.856 67.8415 174.999 72.0823 181.017 74.5865C187.034 77.0908 193.656 77.746 200.044 76.4693C206.432 75.1927 212.3 72.0415 216.905 67.4143C221.511 62.787 224.647 56.8916 225.918 50.4734C227.189 44.0553 226.537 37.4027 224.044 31.3569C221.552 25.3111 217.331 20.1437 211.915 16.5081C206.5 12.8725 200.133 10.932 193.619 10.932V10.932C184.885 10.932 176.509 14.4179 170.333 20.6228C164.157 26.8278 160.688 35.2435 160.688 44.0185" fill="white"/>
<path d="M206.691 44.0187C206.691 46.6144 205.925 49.1519 204.49 51.3103C203.055 53.4688 201.015 55.1513 198.628 56.1451C196.241 57.1389 193.615 57.3994 191.081 56.8938C188.546 56.3881 186.218 55.1389 184.391 53.3041C182.563 51.4694 181.318 49.1314 180.813 46.5857C180.308 44.0401 180.565 41.4011 181.552 39.0024C182.54 36.6036 184.213 34.5528 186.36 33.1092C188.507 31.6657 191.032 30.8941 193.616 30.8921C195.332 30.8908 197.032 31.2293 198.619 31.8884C200.205 32.5475 201.646 33.5141 202.861 34.7332C204.075 35.9522 205.038 37.3998 205.695 38.993C206.353 40.5863 206.691 42.294 206.691 44.0187" fill="#B5E3F0"/>
<path d="M106.369 27.5562L115.489 29.4773L121.309 30.7231C122.608 28.8805 124.448 27.4918 126.571 26.7512C128.695 26.0106 130.995 25.955 133.151 26.5922C135.308 27.2294 137.212 28.5276 138.598 30.3053C139.984 32.083 140.782 34.2514 140.881 36.5073C140.981 38.7632 140.376 40.9939 139.152 42.8876C137.927 44.7813 136.145 46.2433 134.053 47.0693C131.961 47.8953 129.665 48.044 127.485 47.4946C125.305 46.9452 123.35 45.7251 121.894 44.005L115.778 45.0482L106.456 46.6384C106.463 46.6719 106.475 46.704 106.493 46.7329H106.355V96.3999H119.051V83.908H131.169V71.1596H119.064V60.3187C123.661 62.5997 128.828 63.4601 133.911 62.791C138.995 62.1218 143.766 59.9533 147.623 56.5595C151.48 53.1658 154.248 48.6993 155.578 43.7247C156.908 38.7502 156.74 33.4911 155.096 28.6125C153.451 23.7339 150.403 19.4548 146.338 16.3164C142.273 13.178 137.372 11.3213 132.257 10.9809C127.141 10.6405 122.04 11.8318 117.598 14.4042C113.157 16.9766 109.574 20.8145 107.303 25.4326C106.96 26.1326 106.649 26.845 106.369 27.5697" fill="white"/>
<path d="M18.956 18.9765L17.8867 20.0508L33.2651 35.5015L34.3344 34.4272L18.956 18.9765Z" fill="#B5E3F0"/>
<path d="M57.4177 29.9836H28.9082V58.6271H57.4177V29.9836Z" fill="#B5E3F0"/>
<path d="M23.7411 0.671997H0V24.5247H23.7411V0.671997Z" fill="#B5E3F0"/>
<path d="M31.362 3.79821V17.3637H56.538C59.6235 17.3655 62.582 18.598 64.7635 20.7903C66.9449 22.9826 68.1708 25.9554 68.1717 29.0554V58.8806C68.1699 61.9793 66.9434 64.9506 64.7619 67.1411C62.5804 69.3316 59.6223 70.5621 56.538 70.5621H17.8936V32.1817H3.73633V84.8096H54.8814C58.3477 84.8096 61.7801 84.1237 64.9826 82.7909C68.1851 81.4582 71.0949 79.5047 73.546 77.0421C75.9971 74.5795 77.9414 71.656 79.2679 68.4384C80.5944 65.2209 81.2772 61.7724 81.2772 58.2897V30.308C81.2772 26.8253 80.5944 23.3768 79.2679 20.1592C77.9414 16.9417 75.9971 14.0182 73.546 11.5556C71.0949 9.09298 68.1851 7.13954 64.9826 5.80679C61.7801 4.47404 58.3477 3.78809 54.8814 3.78809L31.362 3.79821Z" fill="white"/>
<path d="M233.458 15.1725C231.964 15.1739 230.504 14.7303 229.262 13.8978C228.019 13.0653 227.05 11.8813 226.478 10.4956C225.905 9.10995 225.754 7.58474 226.044 6.11289C226.334 4.64104 227.052 3.28865 228.107 2.22675C229.162 1.16484 230.507 0.44112 231.971 0.147092C233.436 -0.146936 234.954 0.00193959 236.335 0.574892C237.715 1.14784 238.895 2.11914 239.726 3.36595C240.556 4.61277 241.001 6.0791 241.002 7.57952V7.57952C241.001 9.59125 240.205 11.5203 238.789 12.9428C237.374 14.3653 235.453 15.1649 233.451 15.1658L233.458 15.1725ZM233.451 1.3471C232.224 1.3471 231.024 1.71282 230.003 2.39802C228.982 3.08322 228.187 4.05711 227.717 5.19656C227.247 6.336 227.124 7.58981 227.364 8.79944C227.603 10.0091 228.194 11.1202 229.062 11.9923C229.93 12.8644 231.036 13.4583 232.24 13.6989C233.444 13.9395 234.692 13.816 235.826 13.344C236.96 12.872 237.93 12.0728 238.612 11.0473C239.294 10.0218 239.658 8.81622 239.658 7.58289V7.58289C239.655 5.93019 239 4.346 237.837 3.17767C236.673 2.00935 235.096 1.35226 233.451 1.35047" fill="white"/>
<path d="M230.475 3.75438C231.263 3.64296 232.058 3.5888 232.854 3.59232C234.023 3.59232 234.846 3.76789 235.408 4.21354C235.649 4.41468 235.84 4.66954 235.966 4.95788C236.092 5.24623 236.149 5.56011 236.134 5.87462C236.128 6.30461 235.991 6.72252 235.742 7.07204C235.492 7.42156 235.142 7.68589 234.739 7.82943V7.86319C235.29 8.08602 235.596 8.61608 235.794 9.34871C235.972 10.1041 236.187 10.85 236.439 11.5837H234.615C234.371 10.9879 234.186 10.3693 234.064 9.73697C233.852 8.74775 233.512 8.47765 232.787 8.46415H232.262V11.5837H230.491L230.475 3.75438ZM232.262 7.17107H232.934C233.825 7.17107 234.353 6.72204 234.353 6.02655C234.353 5.33106 233.859 4.93267 233.039 4.92254C232.769 4.91631 232.499 4.93552 232.232 4.97993L232.262 7.17107Z" fill="white"/>
</g>
<defs>
<clipPath id="clip0">
<rect width="241" height="96.4" fill="white"/>
</clipPath>
</defs>
</svg>
