<svg width="70" height="70" viewBox="0 0 70 70" fill="none" xmlns="http://www.w3.org/2000/svg">
<g clip-path="url(#clip0)">
<path d="M60.8416 27.0795L59.5636 28.6994C64.8847 32.8976 67.9367 39.1887 67.9367 45.9595C67.9367 58.0788 58.0769 67.9387 45.9574 67.9387C34.1773 67.9387 24.5369 58.7357 24.0101 46.9873L24.0091 46.9689C23.9886 46.6418 23.9782 46.302 23.9782 45.9595C23.9782 44.1751 24.1929 42.4122 24.6171 40.7147C26.5669 32.7365 32.7342 26.5692 40.7179 24.618C42.4104 24.1949 44.1732 23.9805 45.9575 23.9805C45.9788 23.9805 45.9995 23.9813 46.0207 23.9815C46.0208 24.0027 46.0216 24.0233 46.0216 24.0446H47.5039C51.0302 24.289 54.4654 25.3861 57.47 27.2362L58.5518 25.4794C55.3614 23.515 51.728 22.326 47.9908 22.0127C47.5225 16.3626 45.0775 11.077 41.0437 7.04343C36.5034 2.50246 30.4654 0.00201416 24.0425 0.00201416C17.6196 0.00201416 11.5816 2.5026 7.04114 7.04315C2.50058 11.5834 0 17.6213 0 24.0444C0 30.5865 2.70074 36.8885 7.41329 41.3836L8.33559 42.3059L8.3777 42.2638C12.1917 45.5592 16.9696 47.5709 22.0096 48.0028C22.4943 53.8383 25.0712 59.2509 29.3295 63.3284C33.8236 67.6319 39.7289 70.0018 45.9575 70.0018C59.2146 70.0018 70 59.2164 70 45.9594C69.9999 38.5529 66.6618 31.6715 60.8416 27.0795ZM45.9116 21.9177C44.3929 21.9206 42.888 22.0674 41.4239 22.351C41.0709 18.6631 39.5633 15.2141 37.0956 12.4501L40.2972 9.24829C43.4996 12.7636 45.4623 17.1949 45.9116 21.9177ZM25.0742 2.08957C30.216 2.32541 35.0367 4.32191 38.8383 7.78964L35.6366 10.9912C32.6979 8.36563 29.011 6.83548 25.0742 6.60743V2.08957ZM23.0108 2.08957V6.60757C19.0729 6.83548 15.3852 8.36632 12.4481 10.991L9.24668 7.78964C13.0483 4.32191 17.8691 2.32541 23.0108 2.08957ZM7.78776 9.24856L10.9893 12.4501C8.36375 15.389 6.8336 19.0759 6.60555 23.0127H2.08755C2.32353 17.8709 4.31989 13.0503 7.78776 9.24856ZM8.33135 39.3924C4.57692 35.5661 2.34363 30.4439 2.08892 25.0759H6.60624C6.85479 29.2513 8.60356 33.2145 11.5157 36.2078L8.33135 39.3924ZM21.9154 45.9228C17.4598 45.4854 13.2413 43.6963 9.84113 40.8003L13.0397 37.6019C15.2179 39.3776 17.7945 40.6025 20.5506 41.1602L20.9599 39.1378C18.2482 38.589 15.7318 37.3085 13.6796 35.4321C10.4755 32.525 8.63787 28.3744 8.63787 24.0441C8.63787 19.9281 10.2424 16.0626 13.1583 13.1573C16.061 10.244 19.9264 8.63948 24.0425 8.63948C28.1585 8.63948 32.024 10.244 34.9294 13.1601C37.5447 15.7654 39.112 19.1747 39.3945 22.8336C35.4644 23.9454 31.8721 26.0528 28.9615 28.9632C25.8476 32.0771 23.6523 35.9712 22.6142 40.2193C22.1529 42.0636 21.9183 43.9823 21.9154 45.9228Z" fill="white"/>
<path d="M43.7664 53.5637H44.9262V55.8193H46.9894V53.5637H48.1492C49.9265 53.5637 51.3725 52.1178 51.3725 50.3404V48.149C51.3725 46.3718 49.9265 44.9259 48.1492 44.9259H43.7663C43.1267 44.9259 42.6063 44.4055 42.6063 43.7659V41.5745C42.6063 40.9349 43.1267 40.4145 43.7663 40.4145H48.1492C48.7887 40.4145 49.3091 40.9349 49.3091 41.5745V43.7659H51.3723V41.5745C51.3723 39.7971 49.9264 38.3512 48.149 38.3512H46.9893V36.0956H44.926V38.3512H43.7663C41.9889 38.3512 40.543 39.7971 40.543 41.5745V43.7659C40.543 45.5433 41.9889 46.9892 43.7663 46.9892H48.1492C48.7887 46.9892 49.3091 47.5096 49.3091 48.149V50.3404C49.3091 50.98 48.7887 51.5004 48.1492 51.5004H43.7663C43.1267 51.5004 42.6063 50.98 42.6063 50.3404V48.149H40.5431V50.3404C40.5431 52.1178 41.989 53.5637 43.7664 53.5637Z" fill="white"/>
<path d="M27.3945 45.9575C27.3945 56.1936 35.7222 64.5212 45.9582 64.5212C56.1942 64.5212 64.5218 56.1935 64.5218 45.9575C64.5218 35.7215 56.1942 27.3937 45.9582 27.3937C35.7222 27.3937 27.3945 35.7215 27.3945 45.9575ZM62.4586 45.9575C62.4586 55.056 55.0565 62.4578 45.9583 62.4578C36.8601 62.4578 29.458 55.0557 29.458 45.9575C29.458 36.8593 36.8601 29.4571 45.9583 29.4571C55.0565 29.4571 62.4586 36.8593 62.4586 45.9575Z" fill="white"/>
<path d="M58.0119 44.9255H55.8203V46.9888H58.0119V44.9255Z" fill="white"/>
<path d="M36.0979 44.9255H33.9062V46.9888H36.0979V44.9255Z" fill="white"/>
<path d="M13.1484 24.0425H15.2117C15.2117 19.1737 19.1728 15.2124 24.0418 15.2124V13.149C18.0352 13.149 13.1484 18.0359 13.1484 24.0425Z" fill="white"/>
<path d="M15.2117 26.2338H13.1484V28.4253H15.2117V26.2338Z" fill="white"/>
</g>
<defs>
<clipPath id="clip0">
<rect width="70" height="70" fill="white"/>
</clipPath>
</defs>
</svg>
