<svg width="55" height="55" viewBox="0 0 55 55" fill="none" xmlns="http://www.w3.org/2000/svg">
<g filter="url(#filter0_d_2130_257320)">
<path d="M29.9204 17.0294C30.995 15.9548 32.4524 15.3511 33.9721 15.3511C35.4918 15.3511 36.9492 15.9548 38.0238 17.0294C39.0983 18.1039 39.702 19.5614 39.702 21.081C39.702 22.6007 39.0983 24.0581 38.0238 25.1327C36.9492 26.2073 35.4918 26.811 33.9721 26.811C32.4524 26.811 30.995 26.2073 29.9204 25.1327C28.8459 24.0581 28.2422 22.6007 28.2422 21.081C28.2422 19.5614 28.8459 18.1039 29.9204 17.0294ZM35.5923 19.4585C35.3794 19.2458 35.1267 19.077 34.8485 18.9619C34.5704 18.8468 34.2723 18.7877 33.9713 18.7878C33.6703 18.7879 33.3723 18.8473 33.0942 18.9626C32.8161 19.0778 32.5635 19.2468 32.3508 19.4597C32.138 19.6726 31.9692 19.9253 31.8541 20.2035C31.7391 20.4816 31.6799 20.7797 31.68 21.0807C31.6801 21.3817 31.7395 21.6798 31.8548 21.9578C31.9701 22.2359 32.139 22.4885 32.3519 22.7013C32.7841 23.1187 33.363 23.3497 33.9639 23.3445C34.5647 23.3392 35.1395 23.0982 35.5644 22.6733C35.9893 22.2484 36.2303 21.6737 36.2355 21.0728C36.2408 20.4719 36.0098 19.893 35.5923 19.4608V19.4585Z" fill="#E8E9FA"/>
<path d="M45.1404 5.75666C46.1163 6.05994 47.0038 6.59598 47.7264 7.31859C48.449 8.0412 48.9851 8.92869 49.2884 9.90458L49.7627 11.4285C50.5992 14.1205 50.6842 16.9899 50.0085 19.7267C49.3328 22.4635 47.9221 24.9636 45.9288 26.9569L43.6417 29.244C44.7964 30.7875 45.356 32.6956 45.2179 34.6183C45.0799 36.541 44.2534 38.3495 42.89 39.7123L40.0438 42.5585C39.7215 42.8804 39.2847 43.0612 38.8292 43.0612C38.3737 43.0612 37.9369 42.8804 37.6146 42.5585L33.9709 38.9148L33.5652 39.3204C33.1928 39.6929 32.7507 39.9883 32.2641 40.1899C31.7775 40.3914 31.256 40.4952 30.7293 40.4952C30.2026 40.4952 29.6811 40.3914 29.1945 40.1899C28.7079 39.9883 28.2658 39.6929 27.8934 39.3204L26.7773 38.2044L24.9188 41.3898C24.7864 41.617 24.6036 41.8108 24.3845 41.9562C24.1655 42.1017 23.9159 42.1949 23.6552 42.2288C23.3944 42.2627 23.1294 42.2362 22.8804 42.1516C22.6314 42.0669 22.4052 41.9262 22.2192 41.7404L13.3046 32.8281C13.1198 32.6432 12.9797 32.4185 12.8948 32.1713C12.8099 31.924 12.7826 31.6606 12.8149 31.4012C12.8471 31.1418 12.9381 30.8931 13.081 30.6742C13.2238 30.4552 13.4147 30.2718 13.6392 30.1377L16.8109 28.2379L15.7338 27.1608C15.3613 26.7884 15.0659 26.3463 14.8643 25.8597C14.6628 25.3731 14.559 24.8516 14.559 24.3249C14.559 23.7982 14.6628 23.2767 14.8643 22.7901C15.0659 22.3035 15.3613 21.8614 15.7338 21.489L16.1463 21.0765L12.4979 17.4327C12.3382 17.2731 12.2115 17.0836 12.1251 16.875C12.0386 16.6664 11.9941 16.4428 11.9941 16.217C11.9941 15.9912 12.0386 15.7676 12.1251 15.559C12.2115 15.3504 12.3382 15.1609 12.4979 15.0012L15.3465 12.1527C16.7099 10.7895 18.519 9.96339 20.4421 9.82575C22.3652 9.68812 24.2734 10.2482 25.8171 11.4033L28.0996 9.12312C30.092 7.13065 32.5908 5.72024 35.3263 5.04416C38.0617 4.36807 40.9298 4.452 43.6211 5.28687L45.1404 5.75666ZM46.0067 10.9267C45.8689 10.4829 45.6252 10.0793 45.2966 9.75073C44.968 9.42216 44.5644 9.17844 44.1206 9.04062L42.6036 8.57083C40.5102 7.9207 38.2791 7.8548 36.151 8.38025C34.023 8.9057 32.0789 10.0025 30.5288 11.5523L18.1629 23.9204C18.0559 24.0278 17.9958 24.1733 17.9958 24.3249C17.9958 24.4765 18.0559 24.622 18.1629 24.7294L30.3248 36.8912C30.4322 36.9983 30.5777 37.0584 30.7293 37.0584C30.8809 37.0584 31.0264 36.9983 31.1338 36.8912L43.4996 24.5277C45.0494 22.9771 46.146 21.0325 46.6711 18.9041C47.1961 16.7756 47.1296 14.5441 46.4788 12.4506L46.0067 10.9267Z" fill="#E8E9FA"/>
<path d="M15.3294 42.1552C15.6426 41.8312 15.8161 41.3971 15.8124 40.9465C15.8087 40.4958 15.6281 40.0646 15.3096 39.7458C14.9911 39.427 14.5601 39.246 14.1094 39.2419C13.6588 39.2378 13.2245 39.4108 12.9002 39.7238L7.22606 45.3956C6.91312 45.7199 6.74009 46.1542 6.74421 46.6048C6.74834 47.0555 6.9293 47.4865 7.24812 47.805C7.56695 48.1235 7.99812 48.3041 8.44877 48.3078C8.89943 48.3115 9.33351 48.138 9.65752 47.8248L15.3294 42.1552Z" fill="#E8E9FA"/>
<path d="M10.873 35.2688C11.1949 35.591 11.3757 36.0279 11.3757 36.4833C11.3757 36.9388 11.1949 37.3757 10.873 37.6979L8.44386 40.1271C8.28539 40.2913 8.0958 40.4223 7.88615 40.5125C7.6765 40.6027 7.45098 40.6502 7.22277 40.6523C6.99456 40.6544 6.76822 40.611 6.55695 40.5247C6.34568 40.4384 6.15372 40.3108 5.99226 40.1495C5.83081 39.9882 5.7031 39.7964 5.61658 39.5852C5.53006 39.374 5.48646 39.1477 5.48834 38.9195C5.49021 38.6913 5.53752 38.4657 5.6275 38.256C5.71748 38.0463 5.84832 37.8566 6.0124 37.6979L8.44157 35.2688C8.60119 35.109 8.79071 34.9823 8.99931 34.8959C9.20791 34.8095 9.4315 34.765 9.6573 34.765C9.8831 34.765 10.1067 34.8095 10.3153 34.8959C10.5239 34.9823 10.7134 35.109 10.873 35.2688Z" fill="#E8E9FA"/>
<path d="M19.7802 46.6148C19.9491 46.4574 20.0845 46.2677 20.1785 46.0569C20.2724 45.846 20.3229 45.6184 20.327 45.3877C20.3311 45.1569 20.2886 44.9277 20.2022 44.7136C20.1157 44.4996 19.9871 44.3052 19.8239 44.142C19.6606 43.9788 19.4662 43.8501 19.2522 43.7637C19.0382 43.6772 18.809 43.6348 18.5782 43.6389C18.3474 43.6429 18.1198 43.6934 17.909 43.7874C17.6982 43.8813 17.5084 44.0168 17.3511 44.1856L14.9242 46.6102C14.6206 46.936 14.4553 47.367 14.4632 47.8122C14.471 48.2575 14.6514 48.6824 14.9663 48.9973C15.2812 49.3122 15.706 49.4926 16.1513 49.5004C16.5966 49.5083 17.0275 49.343 17.3534 49.0394L19.7825 46.6148H19.7802Z" fill="#E8E9FA"/>
</g>
<defs>
<filter id="filter0_d_2130_257320" x="1.48828" y="0.592285" width="52.9707" height="52.9084" filterUnits="userSpaceOnUse" color-interpolation-filters="sRGB">
<feFlood flood-opacity="0" result="BackgroundImageFix"/>
<feColorMatrix in="SourceAlpha" type="matrix" values="0 0 0 0 0 0 0 0 0 0 0 0 0 0 0 0 0 0 127 0" result="hardAlpha"/>
<feOffset/>
<feGaussianBlur stdDeviation="2"/>
<feComposite in2="hardAlpha" operator="out"/>
<feColorMatrix type="matrix" values="0 0 0 0 0 0 0 0 0 1 0 0 0 0 0.878431 0 0 0 0.6 0"/>
<feBlend mode="normal" in2="BackgroundImageFix" result="effect1_dropShadow_2130_257320"/>
<feBlend mode="normal" in="SourceGraphic" in2="effect1_dropShadow_2130_257320" result="shape"/>
</filter>
</defs>
</svg>
