<svg width="49" height="49" viewBox="0 0 49 49" fill="none" xmlns="http://www.w3.org/2000/svg">
<g filter="url(#filter0_d_2231_153090)">
<path d="M26.6592 15.1729C27.6166 14.2156 28.915 13.6777 30.2689 13.6777C31.6228 13.6777 32.9212 14.2156 33.8786 15.1729C34.8359 16.1303 35.3737 17.4287 35.3737 18.7826C35.3737 20.1365 34.8359 21.4349 33.8786 22.3922C32.9212 23.3496 31.6228 23.8874 30.2689 23.8874C28.915 23.8874 27.6166 23.3496 26.6592 22.3922C25.7019 21.4349 25.1641 20.1365 25.1641 18.7826C25.1641 17.4287 25.7019 16.1303 26.6592 15.1729ZM31.7124 17.3371C31.5227 17.1475 31.2975 16.9972 31.0497 16.8946C30.8019 16.7921 30.5364 16.7394 30.2682 16.7395C30 16.7396 29.7345 16.7925 29.4868 16.8952C29.239 16.9979 29.014 17.1484 28.8244 17.3381C28.6349 17.5278 28.4845 17.753 28.382 18.0008C28.2795 18.2485 28.2267 18.5141 28.2268 18.7823C28.2269 19.0504 28.2798 19.316 28.3825 19.5637C28.4853 19.8114 28.6358 20.0365 28.8254 20.226C29.2105 20.5979 29.7262 20.8037 30.2616 20.7991C30.7969 20.7944 31.3089 20.5797 31.6875 20.2012C32.066 19.8226 32.2808 19.3105 32.2854 18.7752C32.2901 18.2399 32.0843 17.7242 31.7124 17.3391V17.3371Z" fill="#282947"/>
<path d="M40.2178 5.12915C41.0873 5.39934 41.8779 5.87691 42.5217 6.52068C43.1655 7.16446 43.6431 7.95514 43.9133 8.82457L44.3359 10.1823C45.0811 12.5806 45.1569 15.137 44.5549 17.5752C43.9529 20.0134 42.696 22.2408 40.9202 24.0166L38.8826 26.0542C39.9113 27.4294 40.4099 29.1293 40.2869 30.8422C40.1639 32.5552 39.4275 34.1664 38.2129 35.3805L35.6772 37.9163C35.3901 38.203 35.0009 38.3641 34.5951 38.3641C34.1893 38.3641 33.8001 38.203 33.513 37.9163L30.2668 34.67L29.9054 35.0314C29.5736 35.3632 29.1797 35.6264 28.7462 35.806C28.3127 35.9856 27.8481 36.078 27.3788 36.078C26.9096 36.078 26.4449 35.9856 26.0114 35.806C25.5779 35.6264 25.184 35.3632 24.8523 35.0314L23.858 34.0371L22.2022 36.875C22.0842 37.0774 21.9214 37.2501 21.7262 37.3797C21.531 37.5092 21.3087 37.5923 21.0764 37.6225C20.8441 37.6527 20.608 37.6291 20.3862 37.5537C20.1644 37.4783 19.9628 37.353 19.7971 37.1874L11.855 29.2474C11.6904 29.0826 11.5655 28.8825 11.4899 28.6622C11.4143 28.4419 11.39 28.2072 11.4187 27.9761C11.4474 27.745 11.5285 27.5235 11.6558 27.3284C11.783 27.1333 11.9531 26.9699 12.1531 26.8504L14.9788 25.1579L14.0192 24.1983C13.6874 23.8665 13.4241 23.4726 13.2446 23.0391C13.065 22.6056 12.9726 22.141 12.9726 21.6718C12.9726 21.2025 13.065 20.7379 13.2446 20.3044C13.4241 19.8709 13.6874 19.477 14.0192 19.1452L14.3867 18.7777L11.1363 15.5314C10.994 15.3892 10.8812 15.2204 10.8042 15.0345C10.7271 14.8487 10.6875 14.6495 10.6875 14.4483C10.6875 14.2472 10.7271 14.048 10.8042 13.8621C10.8812 13.6763 10.994 13.5074 11.1363 13.3652L13.6741 10.8274C14.8888 9.61296 16.5005 8.87696 18.2138 8.75434C19.9271 8.63172 21.6272 9.1307 23.0025 10.1598L25.036 8.12836C26.8111 6.35325 29.0373 5.0967 31.4743 4.49437C33.9113 3.89204 36.4666 3.96681 38.8642 4.71061L40.2178 5.12915ZM40.9896 9.73515C40.8668 9.33979 40.6497 8.98024 40.3569 8.68751C40.0642 8.39477 39.7047 8.17765 39.3093 8.05486L37.9577 7.63632C36.0927 7.05711 34.105 6.9984 32.2091 7.46653C30.3132 7.93465 28.5812 8.91183 27.2002 10.2925L16.1833 21.3114C16.088 21.4071 16.0344 21.5367 16.0344 21.6718C16.0344 21.8069 16.088 21.9364 16.1833 22.0321L27.0185 32.8672C27.1141 32.9626 27.2437 33.0162 27.3788 33.0162C27.5139 33.0162 27.6435 32.9626 27.7392 32.8672L38.756 21.8524C40.1367 20.471 41.1137 18.7386 41.5815 16.8423C42.0493 14.946 41.99 12.9579 41.4102 11.0929L40.9896 9.73515Z" fill="#282947"/>
<path d="M13.6584 37.5565C13.9375 37.2678 14.092 36.8811 14.0887 36.4796C14.0854 36.0781 13.9246 35.694 13.6408 35.4099C13.357 35.1259 12.9731 34.9647 12.5716 34.961C12.1701 34.9573 11.7832 35.1115 11.4943 35.3903L6.43911 40.4434C6.16031 40.7323 6.00615 41.1192 6.00983 41.5207C6.01351 41.9222 6.17473 42.3062 6.45877 42.5899C6.74281 42.8737 7.12694 43.0346 7.52844 43.0379C7.92993 43.0412 8.31665 42.8866 8.60532 42.6076L13.6584 37.5565Z" fill="#282947"/>
<path d="M9.68795 31.4215C9.9747 31.7086 10.1358 32.0978 10.1358 32.5036C10.1358 32.9094 9.9747 33.2986 9.68795 33.5857L7.52378 35.7498C7.3826 35.8961 7.21369 36.0129 7.02691 36.0932C6.84012 36.1736 6.63921 36.2159 6.4359 36.2177C6.23258 36.2196 6.03093 36.181 5.84271 36.1041C5.65449 36.0272 5.48347 35.9135 5.33963 35.7698C5.19579 35.6261 5.08201 35.4552 5.00493 35.2671C4.92784 35.0789 4.88901 34.8773 4.89068 34.674C4.89235 34.4707 4.93449 34.2697 5.01465 34.0829C5.09482 33.896 5.21139 33.727 5.35757 33.5857L7.52174 31.4215C7.66394 31.2792 7.83279 31.1663 8.01863 31.0893C8.20448 31.0123 8.40367 30.9727 8.60484 30.9727C8.80601 30.9727 9.00521 31.0123 9.19105 31.0893C9.3769 31.1663 9.54574 31.2792 9.68795 31.4215Z" fill="#282947"/>
<path d="M17.624 41.5304C17.7744 41.3902 17.8951 41.2212 17.9788 41.0334C18.0625 40.8455 18.1075 40.6428 18.1111 40.4372C18.1147 40.2316 18.0769 40.0273 17.9999 39.8367C17.9229 39.646 17.8083 39.4728 17.6629 39.3274C17.5174 39.182 17.3442 39.0674 17.1536 38.9904C16.9629 38.9133 16.7587 38.8755 16.5531 38.8791C16.3475 38.8828 16.1447 38.9278 15.9569 39.0115C15.7691 39.0952 15.6 39.2158 15.4598 39.3663L13.2977 41.5264C13.0272 41.8166 12.88 42.2006 12.887 42.5972C12.894 42.9939 13.0547 43.3724 13.3352 43.653C13.6158 43.9335 13.9943 44.0943 14.391 44.1013C14.7877 44.1083 15.1716 43.961 15.4619 43.6905L17.626 41.5304H17.624Z" fill="#282947"/>
</g>
<defs>
<filter id="filter0_d_2231_153090" x="0.890625" y="0.0917969" width="48.0664" height="48.0098" filterUnits="userSpaceOnUse" color-interpolation-filters="sRGB">
<feFlood flood-opacity="0" result="BackgroundImageFix"/>
<feColorMatrix in="SourceAlpha" type="matrix" values="0 0 0 0 0 0 0 0 0 0 0 0 0 0 0 0 0 0 127 0" result="hardAlpha"/>
<feOffset/>
<feGaussianBlur stdDeviation="2"/>
<feComposite in2="hardAlpha" operator="out"/>
<feColorMatrix type="matrix" values="0 0 0 0 1 0 0 0 0 0.72 0 0 0 0 0 0 0 0 0.6 0"/>
<feBlend mode="normal" in2="BackgroundImageFix" result="effect1_dropShadow_2231_153090"/>
<feBlend mode="normal" in="SourceGraphic" in2="effect1_dropShadow_2231_153090" result="shape"/>
</filter>
</defs>
</svg>
