<svg width="70" height="70" viewBox="0 0 70 70" fill="none" xmlns="http://www.w3.org/2000/svg">
<path d="M20.2422 32.3643H26.1153C26.6818 32.3643 27.1407 31.9052 27.1407 31.3389C27.1407 30.7726 26.6818 30.3135 26.1153 30.3135H20.2422C19.6758 30.3135 19.2168 30.7726 19.2168 31.3389C19.2168 31.9052 19.6758 32.3643 20.2422 32.3643Z" fill="white"/>
<path d="M20.2422 37.3338H44.0955C44.6619 37.3338 45.1209 36.8747 45.1209 36.3084C45.1209 35.7422 44.6619 35.2831 44.0955 35.2831H20.2422C19.6758 35.2831 19.2168 35.7422 19.2168 36.3084C19.2168 36.8747 19.6758 37.3338 20.2422 37.3338Z" fill="white"/>
<path d="M44.0954 40.2523H37.7363C37.1699 40.2523 36.7109 40.7114 36.7109 41.2777C36.7109 41.844 37.1699 42.3031 37.7363 42.3031H44.0954C44.6618 42.3031 45.1208 41.844 45.1208 41.2777C45.1208 40.7114 44.6617 40.2523 44.0954 40.2523Z" fill="white"/>
<path d="M67.1131 6.88433L53.8407 0.251149C53.1709 -0.0836755 52.3712 -0.0836755 51.7015 0.251149L38.4288 6.88433C38.4287 6.88433 38.4287 6.88433 38.4287 6.88433C37.6127 7.29216 37.1058 8.1122 37.1058 9.02453V10.9327H22.6966C22.1301 10.9327 21.6712 11.3918 21.6712 11.9581C21.6712 12.5244 22.1301 12.9835 22.6966 12.9835H37.1059V16.1019C37.1059 17.5976 37.218 19.0195 37.4424 20.3746H20.2414C19.6749 20.3746 19.216 20.8337 19.216 21.4C19.216 21.9663 19.6749 22.4254 20.2414 22.4254H37.8812C38.15 23.4371 38.4899 24.4088 38.9005 25.3441H20.2414C19.6749 25.3441 19.216 25.8032 19.216 26.3695C19.216 26.9358 19.6749 27.3949 20.2414 27.3949H39.9488C40.3089 28.007 40.7034 28.6024 41.1332 29.1821C41.4162 29.5638 41.7154 29.9404 42.0319 30.3135H30.2161C29.6497 30.3135 29.1907 30.7726 29.1907 31.3389C29.1907 31.9052 29.6497 32.3643 30.2161 32.3643H43.9881C45.9213 34.1836 48.3647 35.9748 51.5198 37.9055C51.9056 38.1417 52.3382 38.2596 52.7709 38.2596C53.2036 38.2596 53.6362 38.1417 54.0221 37.9055C54.127 37.8414 54.2298 37.7776 54.333 37.7139V62.615H27.5047V60.7031C27.5047 60.1368 27.0457 59.6777 26.4793 59.6777C25.9129 59.6777 25.4539 60.1368 25.4539 60.7031V67.6074C25.4539 67.7958 25.3006 67.9492 25.1121 67.9492H3.95898C3.77045 67.9492 3.61719 67.7958 3.61719 67.6074V52.8381C3.61719 52.6497 3.77045 52.4963 3.95898 52.4963H25.1121C25.3006 52.4963 25.4539 52.6497 25.4539 52.8381V55.918C25.4539 56.4842 25.9129 56.9434 26.4793 56.9434C27.0457 56.9434 27.5047 56.4842 27.5047 55.918V52.8381C27.5047 52.6321 27.4757 52.433 27.4265 52.2421H44.0947C44.6611 52.2421 45.1201 51.783 45.1201 51.2168C45.1201 50.6505 44.6611 50.1914 44.0947 50.1914H24.2098V47.2727H44.0946C44.661 47.2727 45.1199 46.8136 45.1199 46.2473C45.1199 45.681 44.661 45.2219 44.0946 45.2219H24.1668C24.0721 44.1945 23.8168 43.2131 23.425 42.3032H34.0442C34.6106 42.3032 35.0696 41.8441 35.0696 41.2778C35.0696 40.7116 34.6106 40.2525 34.0442 40.2525H22.2226C20.4533 37.9388 17.6664 36.4425 14.5355 36.4425C12.8983 36.4425 11.3557 36.8527 10.0026 37.5736V12.9835H17.9114C18.4778 12.9835 18.9368 12.5244 18.9368 11.9581C18.9368 11.3918 18.4778 10.9327 17.9114 10.9327H9.66084C8.71844 10.9327 7.95186 11.6993 7.95186 12.6417V39.0372C6.05242 40.8047 4.86133 43.3237 4.86133 46.1167V50.4454H3.95898C2.63979 50.4454 1.56641 51.5188 1.56641 52.838V67.6074C1.56641 68.9266 2.63979 70 3.95898 70H25.1121C26.4313 70 27.5047 68.9266 27.5047 67.6074V64.6656H54.6749C55.6173 64.6656 56.3839 63.8991 56.3839 62.9566V36.3966C60.0338 33.9541 62.5607 31.6742 64.4086 29.1821C67.1185 25.5276 68.436 21.249 68.436 16.102V9.02453C68.4361 8.11234 67.9291 7.2923 67.1131 6.88433ZM18.0576 50.4455H11.0137V46.1169C11.0137 44.1748 12.5937 42.5949 14.5357 42.5949C16.4776 42.5949 18.0577 44.1748 18.0577 46.1169V50.4455H18.0576ZM6.91211 46.1169C6.91211 41.9132 10.3321 38.4933 14.5357 38.4933C18.7392 38.4933 22.1591 41.9132 22.1591 46.1169V50.4455H20.1085V46.1169C20.1085 43.044 17.6086 40.5441 14.5357 40.5441C11.4628 40.5441 8.96289 43.044 8.96289 46.1169V50.4455H6.91211V46.1169ZM66.3853 16.102C66.3853 25.9562 61.2452 31.0812 52.9519 36.1562C52.8417 36.2236 52.6998 36.2235 52.5901 36.1562C44.2966 31.0811 39.1565 25.9562 39.1565 16.102V9.02453C39.1565 8.8941 39.229 8.77693 39.3456 8.71869L52.6182 2.08537C52.7137 2.03752 52.8279 2.03752 52.9237 2.08537L66.1961 8.71855C66.3127 8.77679 66.3852 8.89396 66.3852 9.02439V16.102H66.3853Z" fill="white"/>
<path d="M52.7084 7.12714C46.9868 7.12714 42.332 11.782 42.332 17.5035C42.332 23.2251 46.9869 27.8799 52.7084 27.8799C57.0858 27.8799 61.0141 25.11 62.4835 20.9873C62.6737 20.4539 62.3954 19.8673 61.862 19.6771C61.3287 19.4869 60.742 19.7653 60.5518 20.2986C59.3726 23.6065 56.2206 25.829 52.7084 25.829C48.1177 25.829 44.3828 22.0941 44.3828 17.5034C44.3828 12.9127 48.1177 9.17778 52.7084 9.17778C56.7504 9.17778 60.1967 12.0627 60.9027 16.0372C61.0018 16.5948 61.5343 16.9671 62.0916 16.8675C62.6491 16.7685 63.0209 16.2362 62.9219 15.6786C62.0417 10.7235 57.7464 7.12714 52.7084 7.12714Z" fill="white"/>
<path d="M56.2649 14.6975L52.2248 18.7377L49.8755 16.3883C49.4751 15.9879 48.8259 15.9878 48.4253 16.3883C48.0249 16.7888 48.0249 17.4381 48.4253 17.8384L51.4996 20.9128C51.692 21.1051 51.9527 21.2132 52.2248 21.2132C52.4968 21.2132 52.7574 21.1051 52.9499 20.9128L57.7151 16.1476C58.1156 15.7471 58.1156 15.0979 57.7151 14.6975C57.3147 14.2972 56.6655 14.2972 56.2649 14.6975Z" fill="white"/>
</svg>
