<svg width="131" height="62" viewBox="0 0 131 62" fill="none" xmlns="http://www.w3.org/2000/svg">
<g filter="url(#filter0_f)">
<ellipse cx="65.5" cy="39" rx="51.5" ry="9" fill="#131529" fill-opacity="0.5"/>
</g>
<g filter="url(#filter1_b)">
<path fill-rule="evenodd" clip-rule="evenodd" d="M21.2326 0C19.754 0 18.3511 0.654498 17.4011 1.78761L6.08254 15.2876C4.52457 17.1459 4.52457 19.8542 6.08255 21.7124L17.4011 35.2124C18.3511 36.3455 19.754 37 21.2326 37H46.9154H95.0324H117V0H95.0324H46.9154H21.2326Z" fill="#DCDDED"/>
</g>
<path d="M51.9329 18.4541H46.8704V21.8818H52.8118V24H44.2337V11.2031H52.7942V13.3389H46.8704V16.3887H51.9329V18.4541ZM56.5296 14.4902L56.6087 15.5889C57.2884 14.7393 58.1995 14.3145 59.3421 14.3145C60.3499 14.3145 61.0999 14.6104 61.5921 15.2021C62.0843 15.7939 62.3362 16.6787 62.3479 17.8564V24H59.8079V17.918C59.8079 17.3789 59.6907 16.9893 59.4563 16.749C59.222 16.5029 58.8323 16.3799 58.2874 16.3799C57.5726 16.3799 57.0364 16.6846 56.679 17.2939V24H54.139V14.4902H56.5296ZM63.886 19.1748C63.886 17.6924 64.2171 16.5117 64.8792 15.6328C65.5472 14.7539 66.4583 14.3145 67.6126 14.3145C68.5384 14.3145 69.303 14.6602 69.9065 15.3516V10.5H72.4554V24H70.1614L70.0384 22.9893C69.4056 23.7803 68.5911 24.1758 67.595 24.1758C66.4759 24.1758 65.5765 23.7363 64.8968 22.8574C64.2229 21.9727 63.886 20.7451 63.886 19.1748ZM66.4261 19.3594C66.4261 20.25 66.5813 20.9326 66.8919 21.4072C67.2024 21.8818 67.6536 22.1191 68.2454 22.1191C69.0306 22.1191 69.5843 21.7881 69.9065 21.126V17.373C69.5901 16.7109 69.0423 16.3799 68.263 16.3799C67.0384 16.3799 66.4261 17.373 66.4261 19.3594ZM78.8011 24.1758C77.4065 24.1758 76.2698 23.748 75.3909 22.8926C74.5179 22.0371 74.0813 20.8975 74.0813 19.4736V19.2275C74.0813 18.2725 74.2659 17.4199 74.6351 16.6699C75.0042 15.9141 75.5257 15.334 76.1995 14.9297C76.8792 14.5195 77.6526 14.3145 78.5198 14.3145C79.8206 14.3145 80.8431 14.7246 81.5872 15.5449C82.3372 16.3652 82.7122 17.5283 82.7122 19.0342V20.0713H76.6565C76.7386 20.6924 76.9847 21.1904 77.3948 21.5654C77.8108 21.9404 78.3353 22.1279 78.9681 22.1279C79.9466 22.1279 80.7112 21.7734 81.262 21.0645L82.5101 22.4619C82.1292 23.001 81.6136 23.4229 80.9632 23.7275C80.3128 24.0264 79.5921 24.1758 78.8011 24.1758ZM78.511 16.3711C78.0071 16.3711 77.597 16.541 77.2806 16.8809C76.97 17.2207 76.7708 17.707 76.6829 18.3398H80.2161V18.1377C80.2044 17.5752 80.0521 17.1416 79.7591 16.8369C79.4661 16.5264 79.0501 16.3711 78.511 16.3711ZM83.7669 19.1748C83.7669 17.6924 84.0979 16.5117 84.7601 15.6328C85.428 14.7539 86.3392 14.3145 87.4935 14.3145C88.4192 14.3145 89.1839 14.6602 89.7874 15.3516V10.5H92.3362V24H90.0423L89.9192 22.9893C89.2864 23.7803 88.472 24.1758 87.4759 24.1758C86.3567 24.1758 85.4573 23.7363 84.7776 22.8574C84.1038 21.9727 83.7669 20.7451 83.7669 19.1748ZM86.3069 19.3594C86.3069 20.25 86.4622 20.9326 86.7728 21.4072C87.0833 21.8818 87.5345 22.1191 88.1263 22.1191C88.9114 22.1191 89.4651 21.7881 89.7874 21.126V17.373C89.471 16.7109 88.9231 16.3799 88.1438 16.3799C86.9192 16.3799 86.3069 17.373 86.3069 19.3594Z" fill="#101133"/>
<defs>
<filter id="filter0_f" x="0" y="16" width="131" height="46" filterUnits="userSpaceOnUse" color-interpolation-filters="sRGB">
<feFlood flood-opacity="0" result="BackgroundImageFix"/>
<feBlend mode="normal" in="SourceGraphic" in2="BackgroundImageFix" result="shape"/>
<feGaussianBlur stdDeviation="7" result="effect1_foregroundBlur"/>
</filter>
<filter id="filter1_b" x="-13.0859" y="-18" width="148.086" height="73" filterUnits="userSpaceOnUse" color-interpolation-filters="sRGB">
<feFlood flood-opacity="0" result="BackgroundImageFix"/>
<feGaussianBlur in="BackgroundImage" stdDeviation="9"/>
<feComposite in2="SourceAlpha" operator="in" result="effect1_backgroundBlur"/>
<feBlend mode="normal" in="SourceGraphic" in2="effect1_backgroundBlur" result="shape"/>
</filter>
</defs>
</svg>
