<svg width="128" height="62" viewBox="0 0 128 62" fill="none" xmlns="http://www.w3.org/2000/svg">
<g filter="url(#filter0_f)">
<ellipse cx="64" cy="39" rx="50" ry="9" fill="#131529" fill-opacity="0.5"/>
</g>
<g filter="url(#filter1_b)">
<path fill-rule="evenodd" clip-rule="evenodd" d="M21.9703 0C20.4588 0 19.0284 0.683746 18.0792 1.86001L7.1851 15.36C5.70653 17.1922 5.70653 19.8078 7.1851 21.64L18.0792 35.14C19.0284 36.3163 20.4588 37 21.9703 37H46.5452H92.6703H114.002V0H92.6703H46.5452H21.9703Z" fill="#9CE3FB"/>
</g>
<path d="M53.5748 21.8818H59.1735V24H50.9381V11.2031H53.5748V21.8818ZM63.2076 24H60.6588V14.4902H63.2076V24ZM60.5094 12.0293C60.5094 11.6484 60.6354 11.335 60.8873 11.0889C61.1451 10.8428 61.4938 10.7197 61.9332 10.7197C62.3668 10.7197 62.7125 10.8428 62.9703 11.0889C63.2281 11.335 63.3571 11.6484 63.3571 12.0293C63.3571 12.416 63.2252 12.7324 62.9615 12.9785C62.7037 13.2246 62.361 13.3477 61.9332 13.3477C61.5055 13.3477 61.1598 13.2246 60.8961 12.9785C60.6383 12.7324 60.5094 12.416 60.5094 12.0293ZM68.8678 20.8975L70.6344 14.4902H73.2887L70.0807 24H67.6549L64.4469 14.4902H67.1012L68.8678 20.8975ZM78.6676 24.1758C77.2731 24.1758 76.1364 23.748 75.2574 22.8926C74.3844 22.0371 73.9479 20.8975 73.9479 19.4736V19.2275C73.9479 18.2725 74.1324 17.4199 74.5016 16.6699C74.8707 15.9141 75.3922 15.334 76.066 14.9297C76.7457 14.5195 77.5192 14.3145 78.3864 14.3145C79.6871 14.3145 80.7096 14.7246 81.4537 15.5449C82.2037 16.3652 82.5787 17.5283 82.5787 19.0342V20.0713H76.5231C76.6051 20.6924 76.8512 21.1904 77.2614 21.5654C77.6774 21.9404 78.2018 22.1279 78.8346 22.1279C79.8131 22.1279 80.5778 21.7734 81.1285 21.0645L82.3766 22.4619C81.9957 23.001 81.4801 23.4229 80.8297 23.7275C80.1793 24.0264 79.4586 24.1758 78.6676 24.1758ZM78.3776 16.3711C77.8737 16.3711 77.4635 16.541 77.1471 16.8809C76.8365 17.2207 76.6373 17.707 76.5494 18.3398H80.0826V18.1377C80.0709 17.5752 79.9186 17.1416 79.6256 16.8369C79.3326 16.5264 78.9166 16.3711 78.3776 16.3711Z" fill="#101133"/>
<defs>
<filter id="filter0_f" x="0" y="16" width="128" height="46" filterUnits="userSpaceOnUse" color-interpolation-filters="sRGB">
<feFlood flood-opacity="0" result="BackgroundImageFix"/>
<feBlend mode="normal" in="SourceGraphic" in2="BackgroundImageFix" result="shape"/>
<feGaussianBlur stdDeviation="7" result="effect1_foregroundBlur"/>
</filter>
<filter id="filter1_b" x="-11.9238" y="-18" width="143.926" height="73" filterUnits="userSpaceOnUse" color-interpolation-filters="sRGB">
<feFlood flood-opacity="0" result="BackgroundImageFix"/>
<feGaussianBlur in="BackgroundImage" stdDeviation="9"/>
<feComposite in2="SourceAlpha" operator="in" result="effect1_backgroundBlur"/>
<feBlend mode="normal" in="SourceGraphic" in2="effect1_backgroundBlur" result="shape"/>
</filter>
</defs>
</svg>
