<svg width="1913" height="2698" viewBox="0 0 1913 2698" fill="none" xmlns="http://www.w3.org/2000/svg">
<g opacity="0.6">
<g clip-path="url(#clip0_2_312)">
<path opacity="0.1" d="M1900.85 1264.53L1802.33 1321.41L1703.78 1264.53L1705.76 1263.35C1703.35 1263.69 1700.9 1263.69 1698.49 1263.35L1700.53 1264.53L1602.04 1321.41L1503.52 1264.53L1505.53 1263.35C1504.96 1263.08 1504.33 1262.96 1503.7 1263C1503.06 1263.05 1502.46 1263.26 1501.93 1263.61C1501.39 1263.26 1500.78 1263.05 1500.14 1263C1499.51 1262.96 1498.87 1263.08 1498.29 1263.35L1500.3 1264.53L1401.78 1321.41L1303.23 1264.53L1305.24 1263.35C1304.67 1263.08 1304.04 1262.96 1303.41 1263C1302.77 1263.05 1302.16 1263.26 1301.64 1263.61C1301.1 1263.26 1300.49 1263.05 1299.85 1263C1299.22 1262.96 1298.58 1263.08 1298 1263.35L1300.04 1264.53L1201.49 1321.41L1102.97 1264.5L1104.98 1263.35C1104.41 1263.08 1103.78 1262.96 1103.15 1263C1102.51 1263.05 1101.91 1263.26 1101.38 1263.61C1100.84 1263.26 1100.23 1263.05 1099.59 1263C1098.96 1262.96 1098.32 1263.08 1097.74 1263.35L1099.75 1264.5L1001.14 1321.41L902.681 1264.5L904.69 1263.35C902.3 1263.69 899.874 1263.69 897.484 1263.35L899.493 1264.5L800.941 1321.41L702.422 1264.5L704.43 1263.35C703.859 1263.08 703.23 1262.96 702.6 1263C701.971 1263.04 701.361 1263.24 700.828 1263.57C700.288 1263.24 699.673 1263.04 699.038 1263C698.404 1262.96 697.77 1263.08 697.193 1263.35L699.202 1264.5L600.682 1321.41L502.131 1264.5L504.139 1263.35C501.747 1263.65 499.326 1263.65 496.934 1263.35L498.942 1264.5L400.391 1321.41L301.871 1264.5L303.88 1263.35C303.309 1263.08 302.68 1262.96 302.05 1263C301.421 1263.04 300.811 1263.24 300.277 1263.57C299.744 1263.24 299.134 1263.04 298.504 1263C297.875 1262.96 297.246 1263.08 296.674 1263.35L298.683 1264.5L200.132 1321.41L101.58 1264.5L103.589 1263.35C103.018 1263.08 102.389 1262.96 101.759 1263C101.129 1263.04 100.52 1263.24 99.9861 1263.57C99.4525 1263.24 98.8428 1263.04 98.2132 1263C97.5837 1262.96 96.9544 1263.08 96.3833 1263.35L98.392 1264.5L0 1321.31V1323.32L98.392 1380.13L0 1436.94V1438.95L98.392 1495.73L0 1552.54V1554.55L98.392 1611.36L0 1668.18V1670.19L98.392 1727L0 1783.81V1785.85L98.392 1842.6L0 1899.41V1901.42L98.4239 1958.23L0 2015.04V2017.02L98.4239 2073.83L0 2130.68V2132.65L98.4239 2189.46L0 2246.28V2248.29L98.4239 2305.1L0 2361.91V2363.89L98.4239 2420.7L0 2477.67V2479.65L98.4239 2536.33L0 2593.14V2595.12L98.4239 2651.96L18.7155 2698C46.199 2685.25 73.3954 2668.29 100.082 2652.86C126.8 2668.29 153.997 2685.22 181.448 2698L101.74 2651.96L200.291 2595.06L298.842 2651.96L219.134 2698C246.586 2685.25 273.782 2668.29 300.5 2652.89C327.187 2668.29 354.383 2685.22 381.835 2698L302.126 2651.96L400.646 2595.06L499.197 2651.96L419.489 2698C446.941 2685.25 474.137 2668.29 500.823 2652.89C527.542 2668.29 554.738 2685.22 582.19 2698L502.481 2651.96L601.033 2595.06L699.584 2651.96L619.876 2698C647.327 2685.25 674.524 2668.29 701.242 2652.89C727.928 2668.29 755.125 2685.25 782.576 2698L702.868 2651.96L801.388 2595.06L899.939 2651.96L820.231 2698C847.682 2685.25 874.879 2668.29 901.565 2652.89C928.251 2668.29 955.48 2685.25 982.899 2698L903.191 2651.96L1001.14 2595.09L1099.98 2651.96L1020.27 2698C1047.72 2685.25 1074.91 2668.29 1101.63 2652.89C1128.32 2668.29 1155.52 2685.25 1182.97 2698L1103.26 2651.96L1201.78 2595.09C1234.66 2614.03 1267.51 2632.98 1300.33 2651.96L1220.62 2698C1248.07 2685.25 1275.27 2668.29 1301.96 2652.89C1328.64 2668.29 1355.84 2685.25 1383.29 2698L1303.58 2651.96L1402.13 2595.09L1500.68 2651.96L1420.98 2698C1448.4 2685.25 1475.59 2668.29 1502.31 2652.89C1529 2668.29 1556.19 2685.25 1583.65 2698L1503.94 2651.96L1602.46 2595.09C1635.32 2614.03 1668.17 2632.98 1701.01 2651.96L1621.3 2698C1648.75 2685.25 1675.95 2668.29 1702.63 2652.89C1729.32 2668.29 1756.52 2685.25 1783.97 2698L1704.26 2651.96L1802.81 2595.09L1901.36 2651.96L1821.65 2698C1849.07 2685.25 1876.27 2668.29 1902.99 2652.89L1913.48 2658.95V2657.1L1904.58 2651.96L1913.48 2646.83V2644.98L1902.99 2651.04L1803.96 2594.16L1902.51 2537.26L1913 2543.34V2541.43L1904.1 2536.3L1913 2531.13V2529.29L1902.51 2535.37L1803.96 2478.53L1902.48 2421.65L1913 2427.71V2425.86L1904.07 2420.73L1913 2415.57V2413.91L1902.48 2419.96L1803.96 2362.9L1902.48 2305.99L1913 2312.08V2310.23L1904.07 2305.07L1913 2299.93V2298.08L1902.48 2304.14L1803.96 2247.27L1902.48 2190.39L1913 2196.45V2194.6L1904.07 2189.46L1913 2184.36V2182.51L1902.48 2188.6L1803.93 2131.7L1902.48 2074.82L1913 2080.88V2079.16L1904.07 2073.99L1913 2068.83V2067.01L1902.48 2073.07C1869.64 2054.09 1836.79 2035.13 1803.93 2016.19L1902.48 1959.28L1913 1965.37V1963.52L1904.07 1958.36L1913 1953.23V1951.38L1902.48 1957.47L1803.93 1900.56L1902.48 1843.55L1913 1849.61V1847.76L1904.07 1842.63L1913 1837.47V1835.62L1902.48 1841.71L1803.93 1784.8L1902.48 1727.92L1913 1734.01V1732.16L1904.07 1727L1913 1721.83V1720.02L1902.48 1726.07L1803.93 1669.2L1902.48 1612.29L1913 1618.38V1616.53L1904.07 1611.4L1913 1606.23V1604.38L1902.48 1610.5L1803.93 1553.56L1902.48 1496.69L1913 1502.78V1500.93L1904.07 1495.73L1913 1490.57V1488.72L1902.48 1494.81L1803.93 1437.96L1902.48 1380.96L1913 1387.05V1385.2L1904.07 1380.04L1913 1374.87V1373.05L1902.48 1379.11C1869.6 1360.17 1836.75 1341.22 1803.93 1322.24C1836.77 1303.34 1869.62 1284.41 1902.48 1265.45L1913 1271.51V1269.7L1904.07 1264.53L1906.08 1263.35C1905.51 1263.08 1904.88 1262.96 1904.25 1263C1903.61 1263.05 1903.01 1263.26 1902.48 1263.61C1901.95 1263.26 1901.33 1263.05 1900.69 1263C1900.06 1262.96 1899.42 1263.08 1898.84 1263.35L1900.85 1264.53ZM1652.93 1293.89L1702.19 1265.45L1800.74 1322.33L1702.19 1379.21L1603.73 1322.33L1652.93 1293.89ZM649.974 1929.79L699.233 1958.23C666.394 1977.21 633.543 1996.17 600.682 2015.11L502.163 1958.23L600.682 1901.36L649.974 1929.79ZM602.149 1900.43L700.7 1843.52L799.251 1900.43L700.7 1957.31L602.149 1900.43ZM651.44 1987.59L700.7 1959.16L799.251 2016.03L700.7 2072.94L602.276 2016.03L651.44 1987.59ZM751.586 1986.67L702.294 1958.23L800.846 1901.36L899.397 1958.23L800.846 2015.11L751.586 1986.67ZM802.44 1900.43L900.959 1843.52L999.511 1900.43L900.991 1957.31L802.44 1900.43ZM851.7 1987.59L900.991 1959.16L999.511 2016.03L900.991 2072.94L802.567 2016.03L851.7 1987.59ZM951.845 1986.67L902.585 1958.23L1001.14 1901.36L1099.69 1958.23L1001.14 2015.14L951.845 1986.67ZM1002.7 1900.43L1101.25 1843.52L1199.8 1900.43L1101.25 1957.31L1002.7 1900.43ZM1052.15 1987.59L1101.41 1959.16L1199.96 2016.03L1101.41 2072.94L1002.83 2016.03L1052.15 1987.59ZM1152.26 1986.67L1103 1958.23L1201.56 1901.36L1300.11 1958.23L1201.56 2015.14L1152.26 1986.67ZM1252.41 1987.59L1301.7 1959.16L1400.22 2016.06L1301.7 2072.94L1203.12 2016.03L1252.41 1987.59ZM1252.41 1928.87L1203.15 1900.43L1301.67 1843.55C1334.55 1862.49 1367.4 1881.45 1400.22 1900.43L1301.7 1957.31L1252.41 1928.87ZM1252.41 1813.27L1203.15 1784.8L1301.67 1727.92L1400.22 1784.8L1301.67 1841.71L1252.41 1813.27ZM1250.82 1814.16L1300.07 1842.63L1201.56 1899.51L1103 1842.63L1201.52 1785.85L1250.82 1814.16ZM1150.67 1813.24L1101.41 1841.71L1002.86 1784.8L1101.41 1727.92L1199.96 1784.8L1150.67 1813.24ZM1050.56 1814.16L1099.82 1842.63L1001.14 1899.51L902.617 1842.63L1001.14 1785.85L1050.56 1814.16ZM950.41 1813.24L901.119 1841.71L802.599 1784.8L901.119 1727.92L999.67 1784.8L950.41 1813.24ZM850.265 1814.16L899.525 1842.63L801.005 1899.51L702.422 1842.6L800.973 1785.85L850.265 1814.16ZM750.119 1813.24L700.859 1841.71L602.276 1784.8L700.828 1727.92L799.379 1784.8L750.119 1813.24ZM650.006 1814.16L699.265 1842.6L600.682 1899.51L502.163 1842.6L600.682 1785.85L650.006 1814.16ZM549.86 1813.24L500.568 1841.67C467.686 1822.74 434.836 1803.78 402.017 1784.8L500.568 1727.92C533.451 1746.86 566.301 1765.82 599.12 1784.8L549.86 1813.24ZM549.86 1871.99L599.12 1900.43L500.568 1957.31L402.017 1900.43L500.568 1843.52L549.86 1871.99ZM549.86 1987.59L599.12 2016.03L500.568 2072.94L402.017 2016.03L500.568 1959.16L549.86 1987.59ZM549.86 2103.23L599.12 2131.66L500.568 2188.54L402.017 2131.66C434.857 2112.68 467.707 2093.73 500.568 2074.79L549.86 2103.23ZM551.454 2102.3L502.194 2073.86L600.714 2016.96L699.265 2073.86L600.746 2130.74L551.454 2102.3ZM651.6 2103.23L700.859 2074.79L799.411 2131.66C766.571 2150.62 733.721 2169.58 700.859 2188.54L602.34 2131.66L651.6 2103.23ZM751.745 2102.3L702.454 2073.86L801.005 2016.96L899.556 2073.86L801.005 2130.74L751.745 2102.3ZM851.859 2103.23L901.151 2074.79L999.67 2131.66L901.151 2188.54L802.599 2131.66L851.859 2103.23ZM952.005 2102.3L902.745 2073.86L1001.14 2016.96L1099.69 2073.86L1001.14 2130.74L952.005 2102.3ZM1052.15 2103.23L1101.41 2074.79L1199.96 2131.66L1101.41 2188.57L1002.89 2131.66L1052.15 2103.23ZM1152.3 2102.3L1103 2073.86L1201.56 2016.96L1300.11 2073.86L1201.56 2130.74L1152.3 2102.3ZM1252.41 2103.23L1301.7 2074.79L1400.22 2131.66L1301.7 2188.57L1203.15 2131.66L1252.41 2103.23ZM1352.55 2102.3L1303.3 2073.86L1401.81 2016.99C1434.68 2035.93 1467.53 2054.88 1500.37 2073.86L1401.81 2130.74L1352.55 2102.3ZM1352.55 1986.67L1303.3 1958.23L1401.81 1901.36L1500.37 1958.23L1401.81 2015.14L1352.55 1986.67ZM1352.55 1871.07L1303.3 1842.63L1401.78 1785.85L1500.33 1842.76L1401.78 1899.63L1352.55 1871.07ZM1352.55 1755.44L1303.26 1727L1401.81 1670.12L1500.37 1727L1401.81 1783.87L1352.55 1755.44ZM1350.96 1697.64L1301.67 1726.07L1203.15 1669.2L1301.67 1612.29L1400.22 1669.2L1350.96 1697.64ZM1250.82 1698.56L1300.07 1727L1201.56 1783.87C1168.67 1764.94 1135.82 1745.98 1103 1727C1135.84 1708.04 1168.69 1689.08 1201.56 1670.12L1250.82 1698.56ZM1150.67 1697.64L1101.41 1726.07L1002.86 1669.2L1101.41 1612.29L1199.93 1669.2L1150.67 1697.64ZM1050.56 1698.56L1099.82 1727L1001.14 1783.87L902.585 1727L1001.14 1670.12L1050.56 1698.56ZM950.41 1697.64L901.119 1726.07L802.599 1669.2L901.119 1612.29L999.67 1669.2L950.41 1697.64ZM850.265 1698.56L899.525 1727L801.005 1783.87L702.454 1727L801.005 1670.09L850.265 1698.56ZM750.119 1697.64L700.859 1726.07L602.276 1669.2L700.828 1612.29L799.379 1669.2L750.119 1697.64ZM650.006 1698.56L699.265 1727L600.682 1783.87L502.163 1727L600.682 1670.09L650.006 1698.56ZM549.86 1697.64L500.568 1726.07L402.049 1669.17L500.568 1612.29L599.12 1669.2L549.86 1697.64ZM449.714 1698.56L498.974 1727L400.455 1783.87L301.871 1727L400.423 1670.09L449.714 1698.56ZM449.714 1814.16L498.974 1842.6L400.455 1899.51L301.871 1842.6L400.423 1785.85L449.714 1814.16ZM449.714 1929.79L499.006 1958.23L400.455 2015.11L301.871 1958.23L400.423 1901.36L449.714 1929.79ZM449.714 2045.39L499.006 2073.86C466.124 2092.8 433.273 2111.76 400.455 2130.74C367.615 2111.76 334.764 2092.8 301.903 2073.86L400.455 2016.96L449.714 2045.39ZM449.714 2161.03L499.006 2189.46L400.455 2246.37L301.871 2189.46L400.423 2132.59L449.714 2161.03ZM451.309 2218.83L500.568 2190.39L599.12 2247.3C566.237 2266.23 533.387 2285.19 500.568 2304.17L402.017 2247.3L451.309 2218.83ZM551.454 2217.9L502.163 2189.46L600.714 2132.59L699.233 2189.46L600.714 2246.37L551.454 2217.9ZM651.6 2218.83L700.859 2190.39L799.411 2247.3L700.859 2304.17L602.34 2247.3L651.6 2218.83ZM751.745 2217.93L702.454 2189.46C735.336 2170.53 768.186 2151.57 801.005 2132.59C833.845 2151.55 866.695 2170.51 899.556 2189.46L801.005 2246.37L751.745 2217.93ZM851.859 2218.83L901.151 2190.39L999.702 2247.3L901.151 2304.17L802.599 2247.3L851.859 2218.83ZM952.005 2217.93L902.745 2189.46L1001.14 2132.59L1099.66 2189.46L1001.14 2246.37L952.005 2217.93ZM1052.15 2218.86L1101.41 2190.39L1199.96 2247.3L1101.41 2304.17L1002.89 2247.3L1052.15 2218.86ZM1152.3 2217.93L1103 2189.46C1135.87 2170.53 1168.72 2151.57 1201.56 2132.59C1234.4 2151.55 1267.25 2170.51 1300.11 2189.46L1201.56 2246.37L1152.3 2217.93ZM1252.41 2218.86L1301.7 2190.39L1400.25 2247.3L1301.7 2304.17L1203.15 2247.3L1252.41 2218.86ZM1352.55 2217.93L1303.3 2189.46L1401.81 2132.59L1500.37 2189.5L1401.85 2246.37L1352.55 2217.93ZM1452.7 2218.86L1501.96 2190.39L1600.54 2247.3L1501.99 2304.17L1403.47 2247.3L1452.7 2218.86ZM1452.7 2160.1L1403.44 2131.66L1501.96 2074.79L1600.54 2131.66L1501.99 2188.57L1452.7 2160.1ZM1452.7 2044.5L1403.41 2016.06L1501.96 1959.16L1600.54 2016.06L1501.99 2072.94L1452.7 2044.5ZM1452.7 1928.87L1403.41 1900.43L1501.96 1843.55L1600.54 1900.43L1501.99 1957.31L1452.7 1928.87ZM1452.7 1813.27L1403.41 1784.8L1501.96 1727.92C1534.8 1746.88 1567.65 1765.84 1600.51 1784.8L1501.96 1841.71L1452.7 1813.27ZM1452.7 1697.64L1403.41 1669.2L1501.96 1612.29L1600.54 1669.2L1502.02 1726.07L1452.7 1697.64ZM1452.7 1582L1403.44 1553.56L1501.93 1496.69L1600.54 1553.56L1501.93 1610.5L1452.7 1582ZM1451.11 1582.93L1500.4 1611.36L1401.85 1668.27L1303.3 1611.36C1336.18 1592.43 1369.03 1573.47 1401.85 1554.49L1451.11 1582.93ZM1350.99 1582L1301.64 1610.5L1203.12 1553.63L1301.64 1496.75L1400.19 1553.63L1350.99 1582ZM1250.85 1582.93L1300.11 1611.36L1201.59 1668.27L1103.04 1611.36L1201.56 1554.49L1250.85 1582.93ZM1150.7 1582L1101.38 1610.5L1002.83 1553.56L1101.38 1496.69L1199.9 1553.56L1150.7 1582ZM1050.56 1582.93L1099.85 1611.36L1001.14 1668.27L902.585 1611.36L1001.14 1554.49L1050.56 1582.93ZM950.442 1582L901.087 1610.5L802.567 1553.63L901.087 1496.75L999.638 1553.63L950.442 1582ZM850.297 1582.93L899.556 1611.36L801.037 1668.27L702.486 1611.36L801.037 1554.49L850.297 1582.93ZM750.151 1582L700.828 1610.5L602.276 1553.56L700.828 1496.66L799.347 1553.56L750.151 1582ZM650.006 1582.93L699.297 1611.36L600.682 1668.27L502.131 1611.36L600.682 1554.49L650.006 1582.93ZM549.892 1582L500.568 1610.5L402.049 1553.63L500.568 1496.66L599.088 1553.56L549.892 1582ZM449.746 1582.93L499.006 1611.36L400.487 1668.27L301.871 1611.36L400.423 1554.49L449.746 1582.93ZM349.601 1582L300.277 1610.5L201.726 1553.56L300.277 1496.66L398.797 1553.56L349.601 1582ZM349.601 1640.73L398.892 1669.17L300.277 1726.07L201.726 1669.17L300.277 1612.29L349.601 1640.73ZM349.601 1756.36L398.892 1784.8L300.277 1841.67L201.726 1784.8L300.277 1727.92L349.601 1756.36ZM349.601 1871.96L398.892 1900.43L300.277 1957.31C267.437 1938.35 234.587 1919.39 201.726 1900.43L300.277 1843.52L349.601 1871.96ZM349.601 1987.59L398.861 2016.03L300.277 2072.94L201.758 2016.03L300.277 1959.16L349.601 1987.59ZM349.601 2103.23L398.861 2131.66C366.021 2150.62 333.17 2169.58 300.309 2188.54L201.79 2131.66L300.309 2074.76L349.601 2103.23ZM349.601 2218.83L398.861 2247.3L300.277 2304.17L201.758 2247.3L300.277 2190.39L349.601 2218.83ZM349.601 2334.46L398.829 2362.9L300.277 2419.81L201.758 2362.9L300.277 2306.02L349.601 2334.46ZM351.195 2333.54L301.903 2305.1L400.423 2248.13L498.974 2305.03L400.423 2361.91L351.195 2333.54ZM451.34 2334.46L500.568 2306.02L599.12 2362.9L500.568 2419.81L402.017 2362.9L451.34 2334.46ZM551.454 2333.54L502.194 2305.1C535.119 2286.14 567.959 2267.15 600.714 2248.13L699.233 2305L600.714 2361.88L551.454 2333.54ZM651.6 2334.46L700.859 2306.02L799.379 2362.9L700.828 2419.81L602.308 2362.9L651.6 2334.46ZM751.745 2333.54L702.454 2305.1L800.973 2248.13L899.525 2305L800.973 2361.88L751.745 2333.54ZM851.891 2334.46L901.151 2306.02L999.67 2362.9L901.119 2419.81L802.567 2362.9L851.891 2334.46ZM952.005 2333.54L902.745 2305.1C935.563 2286.14 968.361 2267.15 1001.14 2248.13L1099.66 2305L1001.14 2361.97L952.005 2333.54ZM1052.15 2334.46L1101.41 2306.02L1199.93 2362.9L1101.38 2419.81L1002.86 2362.9L1052.15 2334.46ZM1152.3 2333.54L1103 2305.1L1201.52 2248.13L1300.07 2305L1201.52 2361.88L1152.3 2333.54ZM1252.44 2334.46L1301.7 2306.02C1334.54 2325 1367.39 2343.96 1400.25 2362.9L1301.7 2419.81L1203.12 2362.9L1252.44 2334.46ZM1352.55 2333.54L1303.3 2305.1L1401.81 2248.13L1500.33 2305L1401.81 2361.88L1352.55 2333.54ZM1452.7 2334.46L1501.96 2306.02L1600.54 2362.9L1501.99 2419.81L1403.41 2362.9L1452.7 2334.46ZM1552.85 2333.54L1503.55 2305.1L1602.07 2248.13L1700.63 2305L1602.07 2361.91L1552.85 2333.54ZM1552.85 2217.93L1503.55 2189.5L1602.11 2132.59L1700.66 2189.5C1667.8 2208.43 1634.95 2227.39 1602.11 2246.37L1552.85 2217.93ZM1552.85 2102.3L1503.55 2073.86L1602.11 2016.99L1700.66 2073.86L1602.11 2130.74L1552.85 2102.3ZM1552.72 1986.7L1503.46 1958.23L1602.01 1901.36C1634.85 1920.34 1667.7 1939.29 1700.56 1958.23L1602.01 2015.14L1552.72 1986.7ZM1552.72 1871.07L1503.46 1842.63L1602.07 1785.85L1700.59 1842.76L1602.07 1899.63L1552.72 1871.07ZM1552.72 1755.44L1503.46 1727C1536.3 1708.04 1569.15 1689.08 1602.01 1670.12L1700.53 1727L1602.01 1783.87L1552.72 1755.44ZM1552.72 1639.83L1503.46 1611.36L1601.98 1554.49L1700.53 1611.4L1602.01 1668.27L1552.72 1639.83ZM1552.72 1524.2L1503.52 1495.73L1602.04 1438.82L1700.59 1495.73L1602.04 1552.64L1552.72 1524.2ZM1551.12 1466.4L1501.86 1494.84L1403.38 1437.93L1501.93 1380.96L1600.54 1437.93L1551.12 1466.4ZM1450.98 1467.33L1500.33 1495.73L1401.78 1552.64L1303.23 1495.73L1401.78 1438.82L1450.98 1467.33ZM1350.86 1466.4L1301.57 1494.84L1203.09 1437.93C1235.95 1419.08 1268.8 1400.09 1301.64 1380.96L1400.19 1437.84L1350.86 1466.4ZM1250.72 1467.33L1300.04 1495.73L1201.49 1552.64L1102.97 1495.73L1201.49 1438.82L1250.72 1467.33ZM1150.57 1466.4L1101.31 1494.84L1002.83 1437.93L1101.38 1380.96L1199.9 1437.84L1150.57 1466.4ZM1050.43 1467.29L1099.78 1495.73C1066.92 1514.69 1034.04 1533.66 1001.14 1552.64C968.361 1533.68 935.542 1514.71 902.681 1495.73L1001.14 1438.86L1050.43 1467.29ZM950.315 1466.4L901.023 1494.84L802.535 1437.93L901.087 1380.96L999.638 1437.84L950.315 1466.4ZM850.169 1467.29L899.493 1495.73L800.973 1552.61L702.422 1495.73L800.941 1438.82L850.169 1467.29ZM750.024 1466.37L700.764 1494.84L602.276 1437.93L700.828 1380.96L799.347 1437.84L750.024 1466.37ZM649.878 1467.29L699.233 1495.73C666.351 1514.67 633.501 1533.63 600.682 1552.61C567.948 1533.67 535.098 1514.71 502.131 1495.73L600.682 1438.86L649.878 1467.29ZM549.764 1466.37L500.568 1494.84L402.049 1437.93L500.568 1380.96L599.088 1437.93L549.764 1466.37ZM449.555 1467.29L498.942 1495.73L400.423 1552.61L301.871 1495.73L400.391 1438.86L449.555 1467.29ZM349.409 1466.37L300.277 1494.84L201.726 1437.93L300.277 1380.96L398.797 1437.84L349.409 1466.37ZM249.264 1467.29L298.683 1495.73L200.132 1552.64L101.58 1495.73C134.463 1476.79 167.313 1457.84 200.132 1438.86L249.264 1467.29ZM249.264 1582.93L298.556 1611.36L200.132 1668.27L101.58 1611.36L200.132 1554.49L249.264 1582.93ZM249.264 1698.56L298.524 1727L200.132 1783.87L101.612 1727L200.132 1670.09L249.264 1698.56ZM249.264 1814.16L298.524 1842.6L200.132 1899.51L101.612 1842.6L200.132 1785.85L249.264 1814.16ZM249.264 1929.79L298.524 1958.23C265.79 1977.21 232.993 1996.17 200.132 2015.11L101.612 1958.23L200.132 1901.36L249.264 1929.79ZM249.264 2045.39L298.524 2073.86L200.004 2130.74L101.612 2073.83L200.132 2016.96L249.264 2045.39ZM249.264 2161.03L298.524 2189.46L200.004 2246.37L101.612 2189.46L200.164 2132.59L249.264 2161.03ZM249.264 2276.66L298.524 2305.1L200.004 2361.97L101.612 2305.1L200.164 2248.13L249.264 2276.66ZM249.264 2392.26L298.524 2420.7L200.164 2477.67L101.612 2420.7L200.164 2363.82L249.264 2392.26ZM250.858 2450.09L300.118 2421.62L398.669 2478.53L300.15 2535.41L201.758 2478.53L250.858 2450.09ZM351.004 2449.17L301.744 2420.7L400.263 2363.82L498.815 2420.7L400.423 2477.67L351.004 2449.17ZM451.149 2450.09L500.568 2421.62L599.12 2478.53L500.568 2535.41L402.017 2478.53L451.149 2450.09ZM551.263 2449.17L502.003 2420.7L600.555 2363.82L699.074 2420.73L600.714 2477.67L551.263 2449.17ZM651.408 2450.09L700.668 2421.62L799.22 2478.53L700.7 2535.41L602.149 2478.53L651.408 2450.09ZM751.554 2449.17L702.294 2420.73L800.814 2363.82L899.365 2420.73L800.973 2477.67L751.554 2449.17ZM851.7 2450.09L900.959 2421.62L999.511 2478.53L900.959 2535.41L802.408 2478.53L851.7 2450.09ZM951.813 2449.17L902.553 2420.73L1001.14 2363.82L1099.66 2420.73L1001.14 2477.67L951.813 2449.17ZM1051.96 2450.09L1101.22 2421.65C1134.08 2440.59 1166.93 2459.55 1199.77 2478.53L1101.25 2535.41C1068.52 2516.47 1035.72 2497.51 1002.86 2478.53L1051.96 2450.09ZM1152.1 2449.17L1102.81 2420.73L1201.36 2363.82L1299.92 2420.73L1201.52 2477.67L1152.1 2449.17ZM1252.25 2450.09L1301.51 2421.65L1400.06 2478.53L1301.51 2535.41L1202.96 2478.53L1252.25 2450.09ZM1352.36 2449.17L1303.1 2420.73L1401.66 2363.82L1500.17 2420.73L1401.81 2477.67L1352.36 2449.17ZM1452.51 2450.09L1501.77 2421.65C1534.63 2440.59 1567.48 2459.55 1600.32 2478.53L1501.8 2535.44L1403.25 2478.53L1452.51 2450.09ZM1552.65 2449.17L1503.36 2420.73L1601.91 2363.82L1700.47 2420.73L1602.07 2477.67L1552.65 2449.17ZM1652.8 2450.09L1702.06 2421.65L1800.61 2478.53L1702.06 2535.44L1603.73 2478.53L1652.8 2450.09ZM1652.8 2391.37L1603.73 2362.9L1702.28 2306.02L1800.77 2362.9C1767.91 2381.84 1735.06 2400.79 1702.22 2419.77L1652.8 2391.37ZM1652.8 2275.73L1603.73 2247.3L1702.28 2190.39L1800.8 2247.3L1702.28 2304.17L1652.8 2275.73ZM1652.8 2160.1L1603.73 2131.66L1702.28 2074.79L1800.8 2131.66L1702.28 2188.57L1652.8 2160.1ZM1652.8 2044.5L1603.73 2016.06L1702.28 1959.16L1800.8 2016.06L1702.28 2072.94L1652.8 2044.5ZM1652.8 1928.87L1603.73 1900.43L1702.25 1843.55C1735.13 1862.49 1767.98 1881.45 1800.8 1900.43L1702.28 1957.31L1652.8 1928.87ZM1652.8 1813.27L1603.73 1784.8L1702.25 1727.92L1800.8 1784.8L1702.25 1841.71L1652.8 1813.27ZM1652.8 1697.64L1603.73 1669.2L1702.25 1612.29L1800.8 1669.2L1702.25 1726.07L1652.8 1697.64ZM1652.8 1582L1603.73 1553.56L1702.25 1496.69L1800.8 1553.56L1702.19 1610.5L1652.8 1582ZM1652.8 1466.4L1603.73 1437.93C1636.53 1419.08 1669.35 1400.09 1702.19 1380.96L1800.74 1437.87L1702.19 1494.84L1652.8 1466.4ZM1651.21 1351.63L1700.47 1380.07L1602.04 1437.04L1503.52 1380.13L1602.04 1323.26L1651.21 1351.63ZM1452.64 1293.89L1501.93 1265.42L1600.54 1322.33L1502.02 1379.21L1403.38 1322.33L1452.64 1293.89ZM1451.04 1351.69L1500.33 1380.13L1401.78 1437.04L1303.23 1380.13L1401.78 1323.26L1451.04 1351.69ZM1252.38 1293.89L1301.64 1265.42L1400.19 1322.33L1301.64 1379.21L1203.09 1322.33L1252.38 1293.89ZM1250.78 1351.69L1300.04 1380.13C1267.2 1399.09 1234.35 1418.05 1201.49 1437.01L1102.97 1380.13L1201.49 1323.26L1250.78 1351.69ZM1052.15 1293.89L1101.38 1265.42L1199.9 1322.33L1101.38 1379.21L1002.83 1322.33L1052.15 1293.89ZM1050.56 1351.69L1099.85 1380.13L1001.14 1437.01L902.681 1380.13L1001.14 1323.26L1050.56 1351.69ZM851.827 1293.89L901.087 1265.42L999.638 1322.33L901.087 1379.21L802.535 1322.33L851.827 1293.89ZM850.233 1351.69L899.493 1380.13C866.653 1399.09 833.802 1418.05 800.941 1437.01L702.422 1380.13L800.941 1323.26L850.233 1351.69ZM651.536 1293.86L700.828 1265.42L799.347 1322.33L700.828 1379.21L602.276 1322.33L651.536 1293.86ZM649.942 1351.69L699.233 1380.13L600.682 1437.01L502.131 1380.13L600.682 1323.26L649.942 1351.69ZM451.277 1293.86L500.568 1265.42L599.088 1322.33L500.568 1379.21C467.729 1360.23 434.878 1341.27 402.017 1322.33L451.277 1293.86ZM449.555 1351.69L498.815 1380.13C465.975 1399.09 433.167 1418.05 400.391 1437.01L301.871 1380.13L400.391 1323.26L449.555 1351.69ZM250.986 1293.86L300.277 1265.42L398.797 1322.33L300.277 1379.21L201.726 1322.33L250.986 1293.86ZM249.391 1351.69L298.683 1380.13L200.132 1437.01L101.58 1380.13L200.132 1323.22L249.391 1351.69ZM50.7264 1350.77L1.43475 1322.3C34.3171 1303.36 67.1676 1284.4 99.9861 1265.42L198.538 1322.33L99.9861 1379.21L50.7264 1350.77ZM50.7264 1466.37L1.46663 1437.93L99.9861 1380.96L198.538 1437.93L99.9861 1494.84L50.7264 1466.37ZM50.7264 1582L1.46663 1553.56L99.9861 1496.66L198.538 1553.56L99.9861 1610.5L50.7264 1582ZM50.7264 1697.64L1.46663 1669.17L99.9861 1612.29L198.538 1669.17L99.9861 1726.07L50.7264 1697.64ZM50.7264 1813.24L1.46663 1784.8L99.9861 1727.92C132.868 1746.86 165.719 1765.82 198.538 1784.8L100.018 1841.67L50.7264 1813.24ZM50.7264 1928.87L1.46663 1900.43L100.018 1843.52L198.538 1900.43L100.018 1957.31L50.7264 1928.87ZM50.7264 2044.47L1.46663 2016.03L100.018 1959.16L198.538 2016.03L100.018 2072.94L50.7264 2044.47ZM50.7264 2160.1L1.46663 2131.66L100.018 2074.76L198.538 2131.66L100.018 2188.54L50.7264 2160.1ZM50.7264 2275.73L1.46663 2247.27L100.018 2190.39L198.569 2247.3C165.687 2266.23 132.837 2285.19 100.018 2304.17L50.7264 2275.73ZM50.7264 2391.34L1.46663 2362.9L100.018 2306.02L198.569 2362.9L100.018 2419.77L50.7264 2391.34ZM50.7264 2506.97L1.46663 2478.53L100.018 2421.62L198.569 2478.53L100.018 2535.41L50.7264 2506.97ZM149.278 2622.57L99.9861 2651.04L1.46663 2594.13C34.3277 2575.19 67.1782 2556.24 100.018 2537.26L198.569 2594.13L149.278 2622.57ZM150.84 2564.77L101.612 2536.33L200.164 2479.46L298.715 2536.33L200.164 2593.21L150.84 2564.77ZM349.537 2622.6L300.277 2651.04L201.758 2594.13L300.309 2537.26L398.829 2594.13L349.537 2622.6ZM351.131 2564.77L301.903 2536.33L400.423 2479.46C433.305 2498.39 466.156 2517.35 498.974 2536.33L400.423 2593.24L351.131 2564.77ZM549.828 2622.6L500.568 2651.04L402.017 2594.13C434.899 2575.19 467.75 2556.24 500.568 2537.26L599.12 2594.13L549.828 2622.6ZM551.39 2564.77L502.163 2536.33L600.714 2479.46L699.265 2536.33L600.714 2593.24L551.39 2564.77ZM750.087 2622.6L700.828 2651.04L602.276 2594.13L700.828 2537.26L799.347 2594.16L750.087 2622.6ZM751.682 2564.77L702.422 2536.33L800.941 2479.46L899.493 2536.33L800.941 2593.24L751.682 2564.77ZM950.347 2622.6L901.087 2651.04C868.247 2632.08 835.397 2613.12 802.535 2594.16L901.087 2537.26L999.638 2594.16L950.347 2622.6ZM951.941 2564.77L902.681 2536.33L1001.14 2479.46L1099.66 2536.33L1001.14 2593.24L951.941 2564.77ZM1150.64 2622.6L1101.38 2651.04L1002.83 2594.16L1101.38 2537.26L1199.9 2594.16L1150.64 2622.6ZM1152.23 2564.8L1103.16 2536.33L1201.68 2479.46L1300.23 2536.33L1201.68 2593.24L1152.23 2564.8ZM1350.9 2622.6L1301.64 2651.04C1268.8 2632.08 1235.95 2613.12 1203.09 2594.16L1301.64 2537.26L1400.19 2594.16L1350.9 2622.6ZM1352.49 2564.8L1303.23 2536.33L1401.78 2479.46L1500.3 2536.33L1401.78 2593.24L1352.49 2564.8ZM1551.19 2622.6L1501.93 2651.04L1403.38 2594.16L1501.93 2537.26L1600.54 2594.16L1551.19 2622.6ZM1552.78 2564.8L1503.52 2536.33L1602.04 2479.46L1700.59 2536.33L1602.04 2593.24L1552.78 2564.8ZM1751.45 2622.6L1702.19 2651.04L1603.73 2594.16L1702.28 2537.26L1800.83 2594.16L1751.45 2622.6ZM1851.59 2507.83L1900.85 2536.3L1802.33 2593.17L1703.81 2536.33L1802.36 2479.46L1851.59 2507.83ZM1851.59 2392.23L1900.85 2420.67L1802.36 2477.67L1703.81 2420.79L1802.36 2363.89L1851.59 2392.23ZM1851.59 2276.6L1900.85 2305.03L1802.33 2361.94L1703.78 2305.03L1802.33 2248.13L1851.59 2276.6ZM1851.59 2160.96L1900.85 2189.43L1802.3 2246.31L1703.78 2189.43L1802.3 2132.52L1851.59 2160.96ZM1851.59 2045.36L1900.85 2073.8C1868.01 2092.78 1835.16 2111.74 1802.3 2130.68L1703.78 2073.8L1802.3 2016.92L1851.59 2045.36ZM1851.59 1929.73L1900.85 1958.17L1802.3 2015.08L1703.78 1958.17L1802.3 1901.29L1851.59 1929.73ZM1851.59 1814.13L1900.85 1842.57L1802.3 1899.44L1703.78 1842.57L1802.33 1785.85L1851.59 1814.13ZM1851.59 1698.5L1900.88 1726.93L1802.33 1783.84L1703.78 1726.93L1802.33 1670.06L1851.59 1698.5ZM1851.59 1582.86L1900.88 1611.33C1868 1630.27 1835.15 1649.23 1802.33 1668.21C1769.49 1649.23 1736.64 1630.27 1703.78 1611.33L1802.33 1554.43L1851.59 1582.86ZM1851.59 1467.26L1900.88 1495.73L1802.33 1552.64L1703.78 1495.73L1802.33 1438.82L1851.59 1467.26ZM1851.59 1351.63L1900.88 1380.07L1802.33 1437.04L1703.78 1380.13L1802.33 1323.26L1851.59 1351.63Z" fill="url(#paint0_radial_2_312)"/>
</g>
<g clip-path="url(#clip1_2_312)">
<path opacity="0.1" d="M1900.85 1261.47L1802.33 1204.59L1703.78 1261.47L1705.76 1262.65C1703.35 1262.31 1700.9 1262.31 1698.49 1262.65L1700.53 1261.47L1602.04 1204.59L1503.52 1261.47L1505.53 1262.65C1504.96 1262.92 1504.33 1263.04 1503.7 1263C1503.06 1262.95 1502.46 1262.74 1501.93 1262.39C1501.39 1262.74 1500.78 1262.95 1500.14 1263C1499.51 1263.04 1498.87 1262.92 1498.29 1262.65L1500.3 1261.47L1401.78 1204.59L1303.23 1261.47L1305.24 1262.65C1304.67 1262.92 1304.04 1263.04 1303.41 1263C1302.77 1262.95 1302.16 1262.74 1301.64 1262.39C1301.1 1262.74 1300.49 1262.95 1299.85 1263C1299.22 1263.04 1298.58 1262.92 1298 1262.65L1300.04 1261.47L1201.49 1204.59L1102.97 1261.5L1104.98 1262.65C1104.41 1262.92 1103.78 1263.04 1103.15 1263C1102.51 1262.95 1101.91 1262.74 1101.38 1262.39C1100.84 1262.74 1100.23 1262.95 1099.59 1263C1098.96 1263.04 1098.32 1262.92 1097.74 1262.65L1099.75 1261.5L1001.14 1204.59L902.681 1261.5L904.69 1262.65C902.3 1262.31 899.874 1262.31 897.484 1262.65L899.493 1261.5L800.941 1204.59L702.422 1261.5L704.43 1262.65C703.859 1262.92 703.23 1263.04 702.6 1263C701.971 1262.96 701.361 1262.76 700.828 1262.43C700.288 1262.76 699.673 1262.96 699.038 1263C698.404 1263.04 697.77 1262.92 697.193 1262.65L699.202 1261.5L600.682 1204.59L502.131 1261.5L504.139 1262.65C501.747 1262.35 499.326 1262.35 496.934 1262.65L498.942 1261.5L400.391 1204.59L301.871 1261.5L303.88 1262.65C303.309 1262.92 302.68 1263.04 302.05 1263C301.421 1262.96 300.811 1262.76 300.277 1262.43C299.744 1262.76 299.134 1262.96 298.504 1263C297.875 1263.04 297.246 1262.92 296.674 1262.65L298.683 1261.5L200.132 1204.59L101.58 1261.5L103.589 1262.65C103.018 1262.92 102.389 1263.04 101.759 1263C101.129 1262.96 100.52 1262.76 99.9861 1262.43C99.4525 1262.76 98.8428 1262.96 98.2132 1263C97.5837 1263.04 96.9544 1262.92 96.3833 1262.65L98.392 1261.5L0 1204.69V1202.68L98.392 1145.87L0 1089.06V1087.05L98.392 1030.27L0 973.456V971.447L98.392 914.635L0 857.823V855.815L98.392 799.003L0 742.19V740.15L98.392 683.402L0 626.59V624.581L98.4239 567.769L0 510.957V508.98L98.4239 452.168L0 395.324V393.348L98.4239 336.535L0 279.723V277.715L98.4239 220.903L0 164.091V162.114L98.4239 105.302L0 48.3303V46.3537L98.4239 -10.331L0 -67.1431V-69.1197L98.4239 -125.964L18.7155 -172C46.199 -159.247 73.3954 -142.287 100.082 -126.856C126.8 -142.287 153.997 -159.216 181.448 -172L101.74 -125.964L200.291 -69.0559L298.842 -125.964L219.134 -172C246.586 -159.247 273.782 -142.287 300.5 -126.888C327.187 -142.287 354.383 -159.216 381.835 -172L302.126 -125.964L400.646 -69.0559L499.197 -125.964L419.489 -172C446.941 -159.247 474.137 -142.287 500.823 -126.888C527.542 -142.287 554.738 -159.216 582.19 -172L502.481 -125.964L601.033 -69.0559L699.584 -125.964L619.876 -172C647.327 -159.247 674.524 -142.287 701.242 -126.888C727.928 -142.287 755.125 -159.247 782.576 -172L702.868 -125.964L801.388 -69.0559L899.939 -125.964L820.231 -172C847.682 -159.247 874.879 -142.287 901.565 -126.888C928.251 -142.287 955.48 -159.247 982.899 -172L903.191 -125.964L1001.14 -69.0878L1099.98 -125.964L1020.27 -172C1047.72 -159.247 1074.91 -142.287 1101.63 -126.888C1128.32 -142.287 1155.52 -159.247 1182.97 -172L1103.26 -125.964L1201.78 -69.0878C1234.66 -88.0251 1267.51 -106.984 1300.33 -125.964L1220.62 -172C1248.07 -159.247 1275.27 -142.287 1301.96 -126.888C1328.64 -142.287 1355.84 -159.247 1383.29 -172L1303.58 -125.964L1402.13 -69.0878L1500.68 -125.964L1420.98 -172C1448.4 -159.247 1475.59 -142.287 1502.31 -126.888C1529 -142.287 1556.19 -159.247 1583.65 -172L1503.94 -125.964L1602.46 -69.0878C1635.32 -88.0251 1668.17 -106.984 1701.01 -125.964L1621.3 -172C1648.75 -159.247 1675.95 -142.287 1702.63 -126.888C1729.32 -142.287 1756.52 -159.247 1783.97 -172L1704.26 -125.964L1802.81 -69.0878L1901.36 -125.964L1821.65 -172C1849.07 -159.247 1876.27 -142.287 1902.99 -126.888L1913.48 -132.946V-131.096L1904.58 -125.964L1913.48 -120.831V-118.982L1902.99 -125.039L1803.96 -68.1632L1902.51 -11.2555L1913 -17.3448V-15.4319L1904.1 -10.2991L1913 -5.13431V-3.28519L1902.51 -9.37454L1803.96 47.4696L1902.48 104.345L1913 98.2881V100.137L1904.07 105.27L1913 110.435V112.092L1902.48 106.035L1803.96 163.102L1902.48 220.01L1913 213.921V215.77L1904.07 220.935L1913 226.067V227.916L1902.48 221.859L1803.96 278.735L1902.48 335.611L1913 329.553V331.403L1904.07 336.535L1913 341.636V343.485L1902.48 337.396L1803.93 394.304L1902.48 451.18L1913 445.122V446.844L1904.07 452.009L1913 457.173V458.991L1902.48 452.933C1869.64 471.913 1836.79 490.872 1803.93 509.809L1902.48 566.717L1913 560.628V562.477L1904.07 567.641L1913 572.774V574.623L1902.48 568.534L1803.93 625.442L1902.48 682.445L1913 676.388V678.237L1904.07 683.37L1913 688.534V690.384L1902.48 684.294L1803.93 741.202L1902.48 798.078L1913 791.989V793.838L1904.07 799.003L1913 804.167V805.984L1902.48 799.927L1803.93 856.803L1902.48 913.711L1913 907.621V909.47L1904.07 914.603L1913 919.768V921.617L1902.48 915.496L1803.93 972.436L1902.48 1029.31L1913 1023.22V1025.07L1904.07 1030.27L1913 1035.43V1037.28L1902.48 1031.19L1803.93 1088.04L1902.48 1145.04L1913 1138.95V1140.8L1904.07 1145.96L1913 1151.13V1152.95L1902.48 1146.89C1869.6 1165.83 1836.75 1184.78 1803.93 1203.76C1836.77 1222.66 1869.62 1241.59 1902.48 1260.55L1913 1254.49V1256.3L1904.07 1261.47L1906.08 1262.65C1905.51 1262.92 1904.88 1263.04 1904.25 1263C1903.61 1262.95 1903.01 1262.74 1902.48 1262.39C1901.95 1262.74 1901.33 1262.95 1900.69 1263C1900.06 1263.04 1899.42 1262.92 1898.84 1262.65L1900.85 1261.47ZM1652.93 1232.11L1702.19 1260.55L1800.74 1203.67L1702.19 1146.79L1603.73 1203.67L1652.93 1232.11ZM649.974 596.207L699.233 567.769C666.394 548.789 633.543 529.83 600.682 510.893L502.163 567.769L600.682 624.645L649.974 596.207ZM602.149 625.569L700.7 682.477L799.251 625.569L700.7 568.693L602.149 625.569ZM651.44 538.406L700.7 566.844L799.251 509.968L700.7 453.061L602.276 509.968L651.44 538.406ZM751.586 539.331L702.294 567.769L800.846 624.645L899.397 567.769L800.846 510.893L751.586 539.331ZM802.44 625.569L900.959 682.477L999.511 625.569L900.991 568.693L802.44 625.569ZM851.7 538.406L900.991 566.844L999.511 509.968L900.991 453.061L802.567 509.968L851.7 538.406ZM951.845 539.331L902.585 567.769L1001.14 624.645L1099.69 567.769L1001.14 510.861L951.845 539.331ZM1002.7 625.569L1101.25 682.477L1199.8 625.569L1101.25 568.693L1002.7 625.569ZM1052.15 538.406L1101.41 566.844L1199.96 509.968L1101.41 453.061L1002.83 509.968L1052.15 538.406ZM1152.26 539.331L1103 567.769L1201.56 624.645L1300.11 567.769L1201.56 510.861L1152.26 539.331ZM1252.41 538.406L1301.7 566.844L1400.22 509.937L1301.7 453.061L1203.12 509.968L1252.41 538.406ZM1252.41 597.131L1203.15 625.569L1301.67 682.445C1334.55 663.508 1367.4 644.549 1400.22 625.569L1301.7 568.693L1252.41 597.131ZM1252.41 712.732L1203.15 741.202L1301.67 798.078L1400.22 741.202L1301.67 684.294L1252.41 712.732ZM1250.82 711.84L1300.07 683.37L1201.56 626.494L1103 683.37L1201.52 740.15L1250.82 711.84ZM1150.67 712.764L1101.41 684.294L1002.86 741.202L1101.41 798.078L1199.96 741.202L1150.67 712.764ZM1050.56 711.84L1099.82 683.37L1001.14 626.494L902.617 683.37L1001.14 740.15L1050.56 711.84ZM950.41 712.764L901.119 684.294L802.599 741.202L901.119 798.078L999.67 741.202L950.41 712.764ZM850.265 711.84L899.525 683.37L801.005 626.494L702.422 683.402L800.973 740.15L850.265 711.84ZM750.119 712.764L700.859 684.294L602.276 741.202L700.828 798.078L799.379 741.202L750.119 712.764ZM650.006 711.84L699.265 683.402L600.682 626.494L502.163 683.402L600.682 740.15L650.006 711.84ZM549.86 712.764L500.568 684.326C467.686 703.264 434.836 722.222 402.017 741.202L500.568 798.078C533.451 779.141 566.301 760.182 599.12 741.202L549.86 712.764ZM549.86 654.007L599.12 625.569L500.568 568.693L402.017 625.569L500.568 682.477L549.86 654.007ZM549.86 538.406L599.12 509.968L500.568 453.061L402.017 509.968L500.568 566.844L549.86 538.406ZM549.86 422.774L599.12 394.336L500.568 337.46L402.017 394.336C434.857 413.316 467.707 432.274 500.568 451.212L549.86 422.774ZM551.454 423.698L502.194 452.136L600.714 509.044L699.265 452.136L600.746 395.26L551.454 423.698ZM651.6 422.774L700.859 451.212L799.411 394.336C766.571 375.377 733.721 356.419 700.859 337.46L602.34 394.336L651.6 422.774ZM751.745 423.698L702.454 452.136L801.005 509.044L899.556 452.136L801.005 395.26L751.745 423.698ZM851.859 422.774L901.151 451.212L999.67 394.336L901.151 337.46L802.599 394.336L851.859 422.774ZM952.005 423.698L902.745 452.136L1001.14 509.044L1099.69 452.136L1001.14 395.26L952.005 423.698ZM1052.15 422.774L1101.41 451.212L1199.96 394.336L1101.41 337.428L1002.89 394.336L1052.15 422.774ZM1152.3 423.698L1103 452.136L1201.56 509.044L1300.11 452.136L1201.56 395.26L1152.3 423.698ZM1252.41 422.774L1301.7 451.212L1400.22 394.336L1301.7 337.428L1203.15 394.336L1252.41 422.774ZM1352.55 423.698L1303.3 452.136L1401.81 509.012C1434.68 490.075 1467.53 471.116 1500.37 452.136L1401.81 395.26L1352.55 423.698ZM1352.55 539.331L1303.3 567.769L1401.81 624.645L1500.37 567.769L1401.81 510.861L1352.55 539.331ZM1352.55 654.932L1303.3 683.37L1401.78 740.15L1500.33 683.242L1401.78 626.366L1352.55 654.932ZM1352.55 770.565L1303.26 799.003L1401.81 855.878L1500.37 799.003L1401.81 742.127L1352.55 770.565ZM1350.96 828.365L1301.67 799.927L1203.15 856.803L1301.67 913.711L1400.22 856.803L1350.96 828.365ZM1250.82 827.44L1300.07 799.003L1201.56 742.127C1168.67 761.064 1135.82 780.023 1103 799.003C1135.84 817.961 1168.69 836.92 1201.56 855.878L1250.82 827.44ZM1150.67 828.365L1101.41 799.927L1002.86 856.803L1101.41 913.711L1199.93 856.803L1150.67 828.365ZM1050.56 827.44L1099.82 799.003L1001.14 742.127L902.585 799.003L1001.14 855.878L1050.56 827.44ZM950.41 828.365L901.119 799.927L802.599 856.803L901.119 913.711L999.67 856.803L950.41 828.365ZM850.265 827.44L899.525 799.003L801.005 742.127L702.454 799.003L801.005 855.91L850.265 827.44ZM750.119 828.365L700.859 799.927L602.276 856.803L700.828 913.711L799.379 856.803L750.119 828.365ZM650.006 827.44L699.265 799.003L600.682 742.127L502.163 799.003L600.682 855.91L650.006 827.44ZM549.86 828.365L500.568 799.927L402.049 856.835L500.568 913.711L599.12 856.803L549.86 828.365ZM449.714 827.44L498.974 799.003L400.455 742.127L301.871 799.003L400.423 855.91L449.714 827.44ZM449.714 711.84L498.974 683.402L400.455 626.494L301.871 683.402L400.423 740.15L449.714 711.84ZM449.714 596.207L499.006 567.769L400.455 510.893L301.871 567.769L400.423 624.645L449.714 596.207ZM449.714 480.606L499.006 452.136C466.124 433.199 433.273 414.24 400.455 395.26C367.615 414.24 334.764 433.199 301.903 452.136L400.455 509.044L449.714 480.606ZM449.714 364.973L499.006 336.535L400.455 279.628L301.871 336.535L400.423 393.411L449.714 364.973ZM451.309 307.173L500.568 335.611L599.12 278.703C566.237 259.766 533.387 240.807 500.568 221.827L402.017 278.703L451.309 307.173ZM551.454 308.097L502.163 336.535L600.714 393.411L699.233 336.535L600.714 279.628L551.454 308.097ZM651.6 307.173L700.859 335.611L799.411 278.703L700.859 221.827L602.34 278.703L651.6 307.173ZM751.745 308.066L702.454 336.535C735.336 355.473 768.186 374.431 801.005 393.411C833.845 374.453 866.695 355.494 899.556 336.535L801.005 279.628L751.745 308.066ZM851.859 307.173L901.151 335.611L999.702 278.703L901.151 221.827L802.599 278.703L851.859 307.173ZM952.005 308.066L902.745 336.535L1001.14 393.411L1099.66 336.535L1001.14 279.628L952.005 308.066ZM1052.15 307.141L1101.41 335.611L1199.96 278.703L1101.41 221.827L1002.89 278.703L1052.15 307.141ZM1152.3 308.066L1103 336.535C1135.87 355.473 1168.72 374.431 1201.56 393.411C1234.4 374.453 1267.25 355.494 1300.11 336.535L1201.56 279.628L1152.3 308.066ZM1252.41 307.141L1301.7 335.611L1400.25 278.703L1301.7 221.827L1203.15 278.703L1252.41 307.141ZM1352.55 308.066L1303.3 336.535L1401.81 393.411L1500.37 336.504L1401.85 279.628L1352.55 308.066ZM1452.7 307.141L1501.96 335.611L1600.54 278.703L1501.99 221.827L1403.47 278.703L1452.7 307.141ZM1452.7 365.898L1403.44 394.336L1501.96 451.212L1600.54 394.336L1501.99 337.428L1452.7 365.898ZM1452.7 481.499L1403.41 509.937L1501.96 566.844L1600.54 509.937L1501.99 453.061L1452.7 481.499ZM1452.7 597.131L1403.41 625.569L1501.96 682.445L1600.54 625.569L1501.99 568.693L1452.7 597.131ZM1452.7 712.732L1403.41 741.202L1501.96 798.078C1534.8 779.119 1567.65 760.161 1600.51 741.202L1501.96 684.294L1452.7 712.732ZM1452.7 828.365L1403.41 856.803L1501.96 913.711L1600.54 856.803L1502.02 799.927L1452.7 828.365ZM1452.7 943.998L1403.44 972.436L1501.93 1029.31L1600.54 972.436L1501.93 915.496L1452.7 943.998ZM1451.11 943.073L1500.4 914.635L1401.85 857.727L1303.3 914.635C1336.18 933.573 1369.03 952.531 1401.85 971.511L1451.11 943.073ZM1350.99 943.998L1301.64 915.496L1203.12 972.372L1301.64 1029.25L1400.19 972.372L1350.99 943.998ZM1250.85 943.073L1300.11 914.635L1201.59 857.727L1103.04 914.635L1201.56 971.511L1250.85 943.073ZM1150.7 943.998L1101.38 915.496L1002.83 972.436L1101.38 1029.31L1199.9 972.436L1150.7 943.998ZM1050.56 943.073L1099.85 914.635L1001.14 857.727L902.585 914.635L1001.14 971.511L1050.56 943.073ZM950.442 943.998L901.087 915.496L802.567 972.372L901.087 1029.25L999.638 972.372L950.442 943.998ZM850.297 943.073L899.556 914.635L801.037 857.727L702.486 914.635L801.037 971.511L850.297 943.073ZM750.151 943.998L700.828 915.496L602.276 972.436L700.828 1029.34L799.347 972.436L750.151 943.998ZM650.006 943.073L699.297 914.635L600.682 857.727L502.131 914.635L600.682 971.511L650.006 943.073ZM549.892 943.998L500.568 915.496L402.049 972.372L500.568 1029.34L599.088 972.436L549.892 943.998ZM449.746 943.073L499.006 914.635L400.487 857.727L301.871 914.635L400.423 971.511L449.746 943.073ZM349.601 943.998L300.277 915.496L201.726 972.436L300.277 1029.34L398.797 972.436L349.601 943.998ZM349.601 885.273L398.892 856.835L300.277 799.927L201.726 856.835L300.277 913.711L349.601 885.273ZM349.601 769.64L398.892 741.202L300.277 684.326L201.726 741.202L300.277 798.078L349.601 769.64ZM349.601 654.039L398.892 625.569L300.277 568.693C267.437 587.652 234.587 606.611 201.726 625.569L300.277 682.477L349.601 654.039ZM349.601 538.406L398.861 509.968L300.277 453.061L201.758 509.968L300.277 566.844L349.601 538.406ZM349.601 422.774L398.861 394.336C366.021 375.377 333.17 356.419 300.309 337.46L201.79 394.336L300.309 451.243L349.601 422.774ZM349.601 307.173L398.861 278.703L300.277 221.827L201.758 278.703L300.277 335.611L349.601 307.173ZM349.601 191.54L398.829 163.102L300.277 106.194L201.758 163.102L300.277 219.978L349.601 191.54ZM351.195 192.465L301.903 220.903L400.423 277.874L498.974 220.966L400.423 164.091L351.195 192.465ZM451.34 191.54L500.568 219.978L599.12 163.102L500.568 106.194L402.017 163.102L451.34 191.54ZM551.454 192.465L502.194 220.903C535.119 239.861 567.959 258.852 600.714 277.874L699.233 220.998L600.714 164.122L551.454 192.465ZM651.6 191.54L700.859 219.978L799.379 163.102L700.828 106.194L602.308 163.102L651.6 191.54ZM751.745 192.465L702.454 220.903L800.973 277.874L899.525 220.998L800.973 164.122L751.745 192.465ZM851.891 191.54L901.151 219.978L999.67 163.102L901.119 106.194L802.567 163.102L851.891 191.54ZM952.005 192.465L902.745 220.903C935.563 239.861 968.361 258.852 1001.14 277.874L1099.66 220.998L1001.14 164.027L952.005 192.465ZM1052.15 191.54L1101.41 219.978L1199.93 163.102L1101.38 106.194L1002.86 163.102L1052.15 191.54ZM1152.3 192.465L1103 220.903L1201.52 277.874L1300.07 220.998L1201.52 164.122L1152.3 192.465ZM1252.44 191.54L1301.7 219.978C1334.54 200.998 1367.39 182.04 1400.25 163.102L1301.7 106.194L1203.12 163.102L1252.44 191.54ZM1352.55 192.465L1303.3 220.903L1401.81 277.874L1500.33 220.998L1401.81 164.122L1352.55 192.465ZM1452.7 191.54L1501.96 219.978L1600.54 163.102L1501.99 106.194L1403.41 163.102L1452.7 191.54ZM1552.85 192.465L1503.55 220.903L1602.07 277.874L1700.63 220.998L1602.07 164.091L1552.85 192.465ZM1552.85 308.066L1503.55 336.504L1602.11 393.411L1700.66 336.504C1667.8 317.566 1634.95 298.607 1602.11 279.628L1552.85 308.066ZM1552.85 423.698L1503.55 452.136L1602.11 509.012L1700.66 452.136L1602.11 395.26L1552.85 423.698ZM1552.72 539.299L1503.46 567.769L1602.01 624.645C1634.85 605.665 1667.7 586.706 1700.56 567.769L1602.01 510.861L1552.72 539.299ZM1552.72 654.932L1503.46 683.37L1602.07 740.15L1700.59 683.242L1602.07 626.366L1552.72 654.932ZM1552.72 770.565L1503.46 799.003C1536.3 817.961 1569.15 836.92 1602.01 855.878L1700.53 799.003L1602.01 742.127L1552.72 770.565ZM1552.72 886.165L1503.46 914.635L1601.98 971.511L1700.53 914.603L1602.01 857.727L1552.72 886.165ZM1552.72 1001.8L1503.52 1030.27L1602.04 1087.18L1700.59 1030.27L1602.04 973.36L1552.72 1001.8ZM1551.12 1059.6L1501.86 1031.16L1403.38 1088.07L1501.93 1145.04L1600.54 1088.07L1551.12 1059.6ZM1450.98 1058.67L1500.33 1030.27L1401.78 973.36L1303.23 1030.27L1401.78 1087.18L1450.98 1058.67ZM1350.86 1059.6L1301.57 1031.16L1203.09 1088.07C1235.95 1106.92 1268.8 1125.91 1301.64 1145.04L1400.19 1088.16L1350.86 1059.6ZM1250.72 1058.67L1300.04 1030.27L1201.49 973.36L1102.97 1030.27L1201.49 1087.18L1250.72 1058.67ZM1150.57 1059.6L1101.31 1031.16L1002.83 1088.07L1101.38 1145.04L1199.9 1088.16L1150.57 1059.6ZM1050.43 1058.71L1099.78 1030.27C1066.92 1011.31 1034.04 992.34 1001.14 973.36C968.361 992.319 935.542 1011.29 902.681 1030.27L1001.14 1087.14L1050.43 1058.71ZM950.315 1059.6L901.023 1031.16L802.535 1088.07L901.087 1145.04L999.638 1088.16L950.315 1059.6ZM850.169 1058.71L899.493 1030.27L800.973 973.392L702.422 1030.27L800.941 1087.18L850.169 1058.71ZM750.024 1059.63L700.764 1031.16L602.276 1088.07L700.828 1145.04L799.347 1088.16L750.024 1059.63ZM649.878 1058.71L699.233 1030.27C666.351 1011.33 633.501 992.372 600.682 973.392C567.948 992.329 535.098 1011.29 502.131 1030.27L600.682 1087.14L649.878 1058.71ZM549.764 1059.63L500.568 1031.16L402.049 1088.07L500.568 1145.04L599.088 1088.07L549.764 1059.63ZM449.555 1058.71L498.942 1030.27L400.423 973.392L301.871 1030.27L400.391 1087.14L449.555 1058.71ZM349.409 1059.63L300.277 1031.16L201.726 1088.07L300.277 1145.04L398.797 1088.16L349.409 1059.63ZM249.264 1058.71L298.683 1030.27L200.132 973.36L101.58 1030.27C134.463 1049.21 167.313 1068.16 200.132 1087.14L249.264 1058.71ZM249.264 943.073L298.556 914.635L200.132 857.727L101.58 914.635L200.132 971.511L249.264 943.073ZM249.264 827.44L298.524 799.003L200.132 742.127L101.612 799.003L200.132 855.91L249.264 827.44ZM249.264 711.84L298.524 683.402L200.132 626.494L101.612 683.402L200.132 740.15L249.264 711.84ZM249.264 596.207L298.524 567.769C265.79 548.789 232.993 529.83 200.132 510.893L101.612 567.769L200.132 624.645L249.264 596.207ZM249.264 480.606L298.524 452.136L200.004 395.26L101.612 452.168L200.132 509.044L249.264 480.606ZM249.264 364.973L298.524 336.535L200.004 279.628L101.612 336.535L200.164 393.411L249.264 364.973ZM249.264 249.341L298.524 220.903L200.004 164.027L101.612 220.903L200.164 277.874L249.264 249.341ZM249.264 133.74L298.524 105.302L200.164 48.3303L101.612 105.302L200.164 162.178L249.264 133.74ZM250.858 75.9074L300.118 104.377L398.669 47.4696L300.15 -9.40628L201.758 47.4696L250.858 75.9074ZM351.004 76.832L301.744 105.302L400.263 162.178L498.815 105.302L400.423 48.3303L351.004 76.832ZM451.149 75.9074L500.568 104.377L599.12 47.4696L500.568 -9.40628L402.017 47.4696L451.149 75.9074ZM551.263 76.832L502.003 105.302L600.555 162.178L699.074 105.27L600.714 48.3303L551.263 76.832ZM651.408 75.9074L700.668 104.377L799.22 47.4696L700.7 -9.40628L602.149 47.4696L651.408 75.9074ZM751.554 76.832L702.294 105.27L800.814 162.178L899.365 105.27L800.973 48.3303L751.554 76.832ZM851.7 75.9074L900.959 104.377L999.511 47.4696L900.959 -9.40628L802.408 47.4696L851.7 75.9074ZM951.813 76.832L902.553 105.27L1001.14 162.178L1099.66 105.27L1001.14 48.3303L951.813 76.832ZM1051.96 75.9074L1101.22 104.345C1134.08 85.4081 1166.93 66.4494 1199.77 47.4696L1101.25 -9.40628C1068.52 9.5311 1035.72 28.4896 1002.86 47.4696L1051.96 75.9074ZM1152.1 76.832L1102.81 105.27L1201.36 162.178L1299.92 105.27L1201.52 48.3303L1152.1 76.832ZM1252.25 75.9074L1301.51 104.345L1400.06 47.4696L1301.51 -9.40628L1202.96 47.4696L1252.25 75.9074ZM1352.36 76.832L1303.1 105.27L1401.66 162.178L1500.17 105.27L1401.81 48.3303L1352.36 76.832ZM1452.51 75.9074L1501.77 104.345C1534.63 85.4081 1567.48 66.4494 1600.32 47.4696L1501.8 -9.43826L1403.25 47.4696L1452.51 75.9074ZM1552.65 76.832L1503.36 105.27L1601.91 162.178L1700.47 105.27L1602.07 48.3303L1552.65 76.832ZM1652.8 75.9074L1702.06 104.345L1800.61 47.4696L1702.06 -9.43826L1603.73 47.4696L1652.8 75.9074ZM1652.8 134.632L1603.73 163.102L1702.28 219.978L1800.77 163.102C1767.91 144.165 1735.06 125.206 1702.22 106.226L1652.8 134.632ZM1652.8 250.265L1603.73 278.703L1702.28 335.611L1800.8 278.703L1702.28 221.827L1652.8 250.265ZM1652.8 365.898L1603.73 394.336L1702.28 451.212L1800.8 394.336L1702.28 337.428L1652.8 365.898ZM1652.8 481.499L1603.73 509.937L1702.28 566.844L1800.8 509.937L1702.28 453.061L1652.8 481.499ZM1652.8 597.131L1603.73 625.569L1702.25 682.445C1735.13 663.508 1767.98 644.549 1800.8 625.569L1702.28 568.693L1652.8 597.131ZM1652.8 712.732L1603.73 741.202L1702.25 798.078L1800.8 741.202L1702.25 684.294L1652.8 712.732ZM1652.8 828.365L1603.73 856.803L1702.25 913.711L1800.8 856.803L1702.25 799.927L1652.8 828.365ZM1652.8 943.998L1603.73 972.436L1702.25 1029.31L1800.8 972.436L1702.19 915.496L1652.8 943.998ZM1652.8 1059.6L1603.73 1088.07C1636.53 1106.92 1669.35 1125.91 1702.19 1145.04L1800.74 1088.13L1702.19 1031.16L1652.8 1059.6ZM1651.21 1174.37L1700.47 1145.93L1602.04 1088.96L1503.52 1145.87L1602.04 1202.74L1651.21 1174.37ZM1452.64 1232.11L1501.93 1260.58L1600.54 1203.67L1502.02 1146.79L1403.38 1203.67L1452.64 1232.11ZM1451.04 1174.31L1500.33 1145.87L1401.78 1088.96L1303.23 1145.87L1401.78 1202.74L1451.04 1174.31ZM1252.38 1232.11L1301.64 1260.58L1400.19 1203.67L1301.64 1146.79L1203.09 1203.67L1252.38 1232.11ZM1250.78 1174.31L1300.04 1145.87C1267.2 1126.91 1234.35 1107.95 1201.49 1088.99L1102.97 1145.87L1201.49 1202.74L1250.78 1174.31ZM1052.15 1232.11L1101.38 1260.58L1199.9 1203.67L1101.38 1146.79L1002.83 1203.67L1052.15 1232.11ZM1050.56 1174.31L1099.85 1145.87L1001.14 1088.99L902.681 1145.87L1001.14 1202.74L1050.56 1174.31ZM851.827 1232.11L901.087 1260.58L999.638 1203.67L901.087 1146.79L802.535 1203.67L851.827 1232.11ZM850.233 1174.31L899.493 1145.87C866.653 1126.91 833.802 1107.95 800.941 1088.99L702.422 1145.87L800.941 1202.74L850.233 1174.31ZM651.536 1232.14L700.828 1260.58L799.347 1203.67L700.828 1146.79L602.276 1203.67L651.536 1232.14ZM649.942 1174.31L699.233 1145.87L600.682 1088.99L502.131 1145.87L600.682 1202.74L649.942 1174.31ZM451.277 1232.14L500.568 1260.58L599.088 1203.67L500.568 1146.79C467.729 1165.77 434.878 1184.73 402.017 1203.67L451.277 1232.14ZM449.555 1174.31L498.815 1145.87C465.975 1126.91 433.167 1107.95 400.391 1088.99L301.871 1145.87L400.391 1202.74L449.555 1174.31ZM250.986 1232.14L300.277 1260.58L398.797 1203.67L300.277 1146.79L201.726 1203.67L250.986 1232.14ZM249.391 1174.31L298.683 1145.87L200.132 1088.99L101.58 1145.87L200.132 1202.78L249.391 1174.31ZM50.7264 1175.23L1.43475 1203.7C34.3171 1222.64 67.1676 1241.6 99.9861 1260.58L198.538 1203.67L99.9861 1146.79L50.7264 1175.23ZM50.7264 1059.63L1.46663 1088.07L99.9861 1145.04L198.538 1088.07L99.9861 1031.16L50.7264 1059.63ZM50.7264 943.998L1.46663 972.436L99.9861 1029.34L198.538 972.436L99.9861 915.496L50.7264 943.998ZM50.7264 828.365L1.46663 856.835L99.9861 913.711L198.538 856.835L99.9861 799.927L50.7264 828.365ZM50.7264 712.764L1.46663 741.202L99.9861 798.078C132.868 779.141 165.719 760.182 198.538 741.202L100.018 684.326L50.7264 712.764ZM50.7264 597.131L1.46663 625.569L100.018 682.477L198.538 625.569L100.018 568.693L50.7264 597.131ZM50.7264 481.531L1.46663 509.968L100.018 566.844L198.538 509.968L100.018 453.061L50.7264 481.531ZM50.7264 365.898L1.46663 394.336L100.018 451.243L198.538 394.336L100.018 337.46L50.7264 365.898ZM50.7264 250.265L1.46663 278.735L100.018 335.611L198.569 278.703C165.687 259.766 132.837 240.807 100.018 221.827L50.7264 250.265ZM50.7264 134.664L1.46663 163.102L100.018 219.978L198.569 163.102L100.018 106.226L50.7264 134.664ZM50.7264 19.0316L1.46663 47.4696L100.018 104.377L198.569 47.4696L100.018 -9.40628L50.7264 19.0316ZM149.278 -96.5694L99.9861 -125.039L1.46663 -68.1314C34.3277 -49.194 67.1782 -30.2354 100.018 -11.2555L198.569 -68.1314L149.278 -96.5694ZM150.84 -38.7688L101.612 -10.331L200.164 46.5449L298.715 -10.331L200.164 -67.2068L150.84 -38.7688ZM349.537 -96.6011L300.277 -125.039L201.758 -68.1314L300.309 -11.2555L398.829 -68.1314L349.537 -96.6011ZM351.131 -38.7688L301.903 -10.331L400.423 46.5449C433.305 27.6076 466.156 8.64902 498.974 -10.331L400.423 -67.2387L351.131 -38.7688ZM549.828 -96.6011L500.568 -125.039L402.017 -68.1314C434.899 -49.194 467.75 -30.2354 500.568 -11.2555L599.12 -68.1314L549.828 -96.6011ZM551.39 -38.7688L502.163 -10.331L600.714 46.5449L699.265 -10.331L600.714 -67.2387L551.39 -38.7688ZM750.087 -96.6011L700.828 -125.039L602.276 -68.1314L700.828 -11.2555L799.347 -68.1632L750.087 -96.6011ZM751.682 -38.7688L702.422 -10.331L800.941 46.5449L899.493 -10.331L800.941 -67.2387L751.682 -38.7688ZM950.347 -96.6011L901.087 -125.039C868.247 -106.08 835.397 -87.1219 802.535 -68.1632L901.087 -11.2555L999.638 -68.1632L950.347 -96.6011ZM951.941 -38.7688L902.681 -10.331L1001.14 46.5449L1099.66 -10.331L1001.14 -67.2387L951.941 -38.7688ZM1150.64 -96.6011L1101.38 -125.039L1002.83 -68.1632L1101.38 -11.2555L1199.9 -68.1632L1150.64 -96.6011ZM1152.23 -38.8007L1103.16 -10.331L1201.68 46.5449L1300.23 -10.331L1201.68 -67.2387L1152.23 -38.8007ZM1350.9 -96.6011L1301.64 -125.039C1268.8 -106.08 1235.95 -87.1219 1203.09 -68.1632L1301.64 -11.2555L1400.19 -68.1632L1350.9 -96.6011ZM1352.49 -38.8007L1303.23 -10.331L1401.78 46.5449L1500.3 -10.331L1401.78 -67.2387L1352.49 -38.8007ZM1551.19 -96.6011L1501.93 -125.039L1403.38 -68.1632L1501.93 -11.2555L1600.54 -68.1632L1551.19 -96.6011ZM1552.78 -38.8007L1503.52 -10.331L1602.04 46.5449L1700.59 -10.331L1602.04 -67.2387L1552.78 -38.8007ZM1751.45 -96.6011L1702.19 -125.039L1603.73 -68.1632L1702.28 -11.2555L1800.83 -68.1632L1751.45 -96.6011ZM1851.59 18.1707L1900.85 -10.2991L1802.33 -67.175L1703.81 -10.331L1802.36 46.5449L1851.59 18.1707ZM1851.59 133.772L1900.85 105.334L1802.36 48.3303L1703.81 105.206L1802.36 162.114L1851.59 133.772ZM1851.59 249.404L1900.85 220.966L1802.33 164.059L1703.78 220.966L1802.33 277.874L1851.59 249.404ZM1851.59 365.037L1900.85 336.567L1802.3 279.691L1703.78 336.567L1802.3 393.475L1851.59 365.037ZM1851.59 480.638L1900.85 452.2C1868.01 433.22 1835.16 414.261 1802.3 395.324L1703.78 452.2L1802.3 509.076L1851.59 480.638ZM1851.59 596.271L1900.85 567.833L1802.3 510.925L1703.78 567.833L1802.3 624.709L1851.59 596.271ZM1851.59 711.871L1900.85 683.434L1802.3 626.558L1703.78 683.434L1802.33 740.15L1851.59 711.871ZM1851.59 827.504L1900.88 799.066L1802.33 742.158L1703.78 799.066L1802.33 855.942L1851.59 827.504ZM1851.59 943.137L1900.88 914.667C1868 895.73 1835.15 876.771 1802.33 857.791C1769.49 876.771 1736.64 895.73 1703.78 914.667L1802.33 971.575L1851.59 943.137ZM1851.59 1058.74L1900.88 1030.27L1802.33 973.36L1703.78 1030.27L1802.33 1087.18L1851.59 1058.74ZM1851.59 1174.37L1900.88 1145.93L1802.33 1088.96L1703.78 1145.87L1802.33 1202.74L1851.59 1174.37Z" fill="url(#paint1_radial_2_312)"/>
</g>
</g>
<defs>
<radialGradient id="paint0_radial_2_312" cx="0" cy="0" r="1" gradientUnits="userSpaceOnUse" gradientTransform="translate(-3.12453 1267.3) scale(2522.42 2522.24)">
<stop stop-color="#42E8E0"/>
<stop offset="0.48" stop-color="#42E8E0"/>
<stop offset="0.93" stop-color="#42E8E0"/>
<stop offset="1" stop-color="#42E8E0"/>
</radialGradient>
<radialGradient id="paint1_radial_2_312" cx="0" cy="0" r="1" gradientUnits="userSpaceOnUse" gradientTransform="translate(-3.12453 1258.7) scale(2522.42 2522.24)">
<stop stop-color="#42E8E0"/>
<stop offset="0.48" stop-color="#42E8E0"/>
<stop offset="0.93" stop-color="#42E8E0"/>
<stop offset="1" stop-color="#42E8E0"/>
</radialGradient>
<clipPath id="clip0_2_312">
<rect width="1913" height="1435" fill="white" transform="translate(0 1263)"/>
</clipPath>
<clipPath id="clip1_2_312">
<rect width="1913" height="1435" fill="white" transform="matrix(1 0 0 -1 0 1263)"/>
</clipPath>
</defs>
</svg>
