<svg width="170" height="36" viewBox="0 0 170 36" fill="none" xmlns="http://www.w3.org/2000/svg">
<g clip-path="url(#clip0_1097:138974)">
<path d="M12.579 0.233328L35.9701 12V24L0.204544 5.99999L11.6801 0.233328C11.8161 0.162902 11.9714 0.125732 12.1296 0.125732C12.2878 0.125732 12.443 0.162902 12.579 0.233328Z" fill="#D9EEFF"/>
<path d="M35.9701 0L24.0546 6L35.9701 12V0Z" fill="#BBDDFF"/>
<path d="M35.9701 0L47.4457 5.76667C47.5851 5.83877 47.7008 5.94117 47.7812 6.06387C47.8617 6.18656 47.9042 6.32535 47.9047 6.46667V30L35.9701 24V0Z" fill="#A0CCFF"/>
<path d="M47.9047 30.0001L36.4291 35.7667C36.2879 35.8324 36.1302 35.8667 35.9701 35.8667C35.81 35.8667 35.6523 35.8324 35.5111 35.7667L12.12 24.0001V11.9834L47.9047 30.0001Z" fill="#BBDDFF"/>
<path d="M0.204544 6V29.5333C0.205016 29.6746 0.247561 29.8134 0.328019 29.9361C0.408477 30.0588 0.524094 30.1612 0.663567 30.2333L12.1391 36V11.9833L0.204544 6Z" fill="white"/>
<path d="M12.12 36L24.0546 30L12.12 24V36Z" fill="#D9EEFF"/>
<path d="M116.873 18.0333C116.608 15.4064 115.231 12.9592 113.012 11.1667C110.792 9.37426 107.888 8.36442 104.862 8.33325H104.288C102.839 8.38444 101.413 8.6669 100.08 9.16659L99.7934 9.28325H99.6787C97.5641 10.1304 95.7782 11.4955 94.5386 13.212C93.299 14.9284 92.6594 16.9221 92.6977 18.9499V19.1499C92.8583 21.948 94.238 24.5873 96.5553 26.5293C98.8727 28.4712 101.953 29.5695 105.168 29.5999H112.072C112.252 29.6 112.424 29.5391 112.553 29.4301C112.681 29.3212 112.756 29.1728 112.761 29.0166V25.6499C112.756 25.4937 112.681 25.3453 112.553 25.2364C112.424 25.1274 112.252 25.0665 112.072 25.0666H104.862C103.402 25.0121 101.996 24.5692 100.833 23.7975C99.6705 23.0257 98.807 21.9622 98.359 20.7499H116.07C116.289 20.7413 116.497 20.6579 116.647 20.5177C116.797 20.3775 116.878 20.1916 116.873 19.9999V18.0999C116.875 18.0778 116.875 18.0554 116.873 18.0333ZM111.135 16.9166H98.3781C98.6796 16.1696 99.1473 15.4817 99.7545 14.8926C100.362 14.3034 101.096 13.8245 101.916 13.4833L102.184 13.3333C103.208 12.9943 104.308 12.8687 105.397 12.9666C106.683 13.089 107.903 13.5244 108.918 14.223C109.932 14.9216 110.701 15.8551 111.135 16.9166Z" fill="white"/>
<path d="M77.3587 8.33333C75.0656 8.41196 72.8474 9.06594 70.9706 10.2167V9.01666C70.9707 8.96927 70.9597 8.92235 70.9383 8.87876C70.9169 8.83517 70.8856 8.79582 70.8463 8.76309C70.8069 8.73037 70.7604 8.70494 70.7094 8.68837C70.6585 8.67179 70.6042 8.66441 70.5498 8.66666H66.0552C65.9487 8.66666 65.8466 8.70354 65.7712 8.76918C65.6959 8.83481 65.6536 8.92384 65.6536 9.01666V29.1167C65.6536 29.2714 65.7241 29.4197 65.8497 29.5291C65.9752 29.6385 66.1455 29.7 66.323 29.7H70.2821C70.4596 29.7 70.6299 29.6385 70.7554 29.5291C70.881 29.4197 70.9515 29.2714 70.9515 29.1167V18.9167C70.9523 18.0821 71.1534 17.257 71.5419 16.4942C71.9304 15.7314 72.4977 15.0479 73.2073 14.4876C73.917 13.9272 74.7534 13.5024 75.6626 13.2405C76.5719 12.9786 77.534 12.8853 78.4871 12.9667C80.2078 13.1398 81.7937 13.8626 82.9383 14.9955C84.0829 16.1283 84.7048 17.5907 84.6839 19.1V29.1C84.6839 29.2547 84.7545 29.4031 84.88 29.5125C85.0055 29.6219 85.1758 29.6833 85.3533 29.6833H89.3315C89.4194 29.6833 89.5065 29.6682 89.5877 29.6389C89.6689 29.6096 89.7427 29.5666 89.8049 29.5125C89.867 29.4583 89.9163 29.394 89.95 29.3232C89.9836 29.2525 90.0009 29.1766 90.0009 29.1V18.9167C89.9943 17.4916 89.6591 16.0823 89.0151 14.7724C88.3711 13.4625 87.4316 12.2788 86.2523 11.2915C85.0729 10.3043 83.678 9.5337 82.1502 9.02552C80.6224 8.51734 78.9929 8.28195 77.3587 8.33333Z" fill="white"/>
<path d="M140.13 8.43333C140.067 8.38413 139.985 8.35693 139.901 8.35693C139.816 8.35693 139.734 8.38413 139.671 8.43333L131.198 15.8333L122.84 8.54999C122.812 8.52162 122.776 8.49889 122.737 8.48333C122.697 8.46776 122.654 8.45971 122.611 8.45971C122.567 8.45971 122.524 8.46776 122.485 8.48333C122.445 8.49889 122.41 8.52162 122.381 8.54999L118.977 11.5167C118.92 11.5717 118.889 11.6429 118.889 11.7167C118.889 11.7905 118.92 11.8617 118.977 11.9167L127.335 19.2L118.786 26.6667C118.753 26.6917 118.727 26.7225 118.709 26.7569C118.691 26.7914 118.682 26.8288 118.682 26.8667C118.682 26.9045 118.691 26.9419 118.709 26.9764C118.727 27.0109 118.753 27.0416 118.786 27.0667L122.113 29.9667C122.151 30.0025 122.197 30.0312 122.248 30.0508C122.299 30.0704 122.354 30.0805 122.41 30.0805C122.466 30.0805 122.521 30.0704 122.572 30.0508C122.623 30.0312 122.669 30.0025 122.706 29.9667L131.122 22.65L139.461 29.9167C139.525 29.9706 139.611 30.0008 139.7 30.0008C139.789 30.0008 139.875 29.9706 139.939 29.9167L143.324 26.95C143.357 26.925 143.383 26.8942 143.401 26.8597C143.418 26.8252 143.428 26.7878 143.428 26.75C143.428 26.7122 143.418 26.6748 143.401 26.6403C143.383 26.6058 143.357 26.575 143.324 26.55L134.985 19.2833L143.458 11.8833C143.491 11.8583 143.517 11.8275 143.535 11.793C143.552 11.7586 143.562 11.7212 143.562 11.6833C143.562 11.6455 143.552 11.6081 143.535 11.5736C143.517 11.5391 143.491 11.5084 143.458 11.4833L140.13 8.43333Z" fill="white"/>
<path d="M157.133 8.33333C154.662 8.31682 152.241 8.94049 150.177 10.1252C148.114 11.3099 146.5 13.0022 145.542 14.9873C144.584 16.9724 144.325 19.1607 144.797 21.2746C145.269 23.3884 146.451 25.3324 148.193 26.8599C149.935 28.3873 152.158 29.4292 154.581 29.8534C157.004 30.2776 159.517 30.065 161.8 29.2424C164.084 28.4199 166.036 27.0246 167.408 25.2336C168.781 23.4427 169.511 21.3368 169.508 19.1833C169.508 16.3172 168.206 13.5676 165.888 11.5347C163.569 9.50183 160.422 8.35094 157.133 8.33333ZM157.133 25.4833C155.699 25.4999 154.292 25.1445 153.091 24.4623C151.889 23.7802 150.948 22.8022 150.386 21.6525C149.824 20.5029 149.667 19.2337 149.935 18.0061C150.203 16.7786 150.884 15.6483 151.891 14.7589C152.899 13.8694 154.187 13.2611 155.591 13.0112C156.996 12.7613 158.455 12.8811 159.782 13.3553C161.108 13.8296 162.243 14.637 163.042 15.6747C163.84 16.7125 164.267 17.9338 164.267 19.1833C164.242 20.8254 163.483 22.3941 162.15 23.5553C160.818 24.7165 159.017 25.3784 157.133 25.4V25.4833Z" fill="white"/>
</g>
<defs>
<clipPath id="clip0_1097:138974">
<rect width="169.303" height="36" fill="white" transform="translate(0.204544)"/>
</clipPath>
</defs>
</svg>
