<svg width="30" height="30" viewBox="0 0 30 30" fill="none" xmlns="http://www.w3.org/2000/svg">
<rect width="30" height="30" rx="15" fill="#5155F6"/>
<path d="M16.1857 12.6719C13.1965 15.6558 10.2074 18.6397 7.21728 21.6245C7.18965 21.652 7.16109 21.6796 7.13437 21.7081C6.95567 21.8948 6.95475 22.0097 7.13437 22.19C7.51666 22.5734 7.89986 22.9569 8.28491 23.3385C8.46638 23.5178 8.5806 23.5169 8.7676 23.3385C8.79615 23.3118 8.82286 23.2833 8.85142 23.2557C11.8406 20.2718 14.8298 17.2879 17.8199 14.3031" stroke="white" stroke-width="0.75" stroke-miterlimit="10" stroke-linecap="round" stroke-linejoin="round"/>
<path d="M17.5691 9.72778C17.1094 9.22572 16.5521 8.85055 15.9681 8.51492C14.8728 7.88504 13.6901 7.49883 12.452 7.26343C12.0099 7.17975 11.5677 7.10435 11.1182 7.06297C10.8068 7.03447 10.4992 6.9701 10.1841 7.01608C10.1335 7.02343 10.0708 7.02251 10.0367 7.05194C9.98055 7.10067 9.92435 7.1209 9.86816 7.1255" stroke="white" stroke-width="0.75" stroke-miterlimit="10" stroke-linecap="round" stroke-linejoin="round"/>
<path d="M20.7871 12.9219C21.4448 13.5803 21.9395 14.3508 22.3356 15.1858C22.6912 15.9361 22.9472 16.7232 23.1388 17.5306C23.2485 17.9931 23.3332 18.4602 23.3977 18.9292C23.4336 19.1867 23.4668 19.4469 23.4769 19.7099C23.4843 19.8984 23.5165 20.085 23.4898 20.2763C23.4732 20.3958 23.4327 20.5016 23.3544 20.5926" stroke="white" stroke-width="0.75" stroke-miterlimit="10" stroke-linecap="round" stroke-linejoin="round"/>
<path d="M9.88477 7.16406C9.95754 7.34981 10.0948 7.47119 10.268 7.56406C11.2251 8.07624 12.1646 8.61876 13.0858 9.19347C13.7675 9.6183 14.4362 10.0624 15.0681 10.5599C15.3777 10.8036 15.6807 11.0546 15.9359 11.3581" stroke="white" stroke-width="0.75" stroke-miterlimit="10" stroke-linecap="round" stroke-linejoin="round"/>
<path d="M19.1533 14.5527C20.2937 15.6838 21.1025 17.052 21.9196 18.4139C22.2825 19.0189 22.6344 19.6304 22.9577 20.2584C23.024 20.3863 23.1272 20.5003 23.2709 20.56C23.316 20.5784 23.3437 20.6069 23.363 20.6437" stroke="white" stroke-width="0.75" stroke-miterlimit="10" stroke-linecap="round" stroke-linejoin="round"/>
<path d="M20.52 11.5904C20.7217 11.4148 20.9105 11.2254 21.0865 11.024C21.2016 10.8925 21.2099 10.7886 21.0846 10.6598C20.6784 10.2396 20.2666 9.82307 19.8512 9.41204C19.7278 9.28974 19.5785 9.28974 19.4551 9.41204C19.2653 9.59962 19.0581 9.77157 18.9033 9.99226" stroke="white" stroke-width="0.75" stroke-miterlimit="10" stroke-linecap="round" stroke-linejoin="round"/>
<path d="M20.7695 12.9219C20.6498 12.9504 20.5549 13.0184 20.4692 13.1049C20.087 13.4883 19.7028 13.8708 19.3196 14.2534C19.303 14.2699 19.2782 14.2837 19.2708 14.3039C19.187 14.543 18.9456 14.6239 18.7844 14.7849C18.6656 14.9035 18.5578 14.8998 18.4362 14.7858C18.322 14.6782 18.2234 14.5504 18.1 14.4575C17.9333 14.3315 17.8052 14.1752 17.6643 14.0253C17.2774 13.6134 16.8767 13.2134 16.464 12.8272C16.3139 12.6865 16.1573 12.5587 16.0311 12.3922C15.9371 12.2681 15.81 12.1706 15.7022 12.0566C15.588 11.9352 15.5871 11.8304 15.7022 11.709C15.7888 11.618 15.8763 11.5315 15.9205 11.4092C15.9261 11.3936 15.9408 11.3715 15.9657 11.355C16.5377 10.9725 16.9476 10.4171 17.4515 9.96006C17.5307 9.70627 17.7997 9.64283 17.9554 9.46444C18.0337 9.37524 18.158 9.38352 18.2502 9.4626C18.357 9.55455 18.4537 9.65846 18.5514 9.76053C18.6343 9.84788 18.7236 9.92788 18.836 9.97386C18.8609 9.98397 18.8885 9.98673 18.9005 10.0097C19.1004 10.3858 19.4606 10.6157 19.7369 10.9228C19.899 11.104 20.0695 11.2805 20.2555 11.4359C20.4002 11.5573 20.5365 11.6713 20.6424 11.835C20.7336 11.9766 20.8838 12.0805 21.0017 12.2056C21.1205 12.3315 21.1223 12.4446 21.0007 12.5697C20.904 12.669 20.8128 12.7692 20.7686 12.9035" stroke="white" stroke-width="0.75" stroke-miterlimit="10" stroke-linecap="round" stroke-linejoin="round"/>
</svg>
