<svg width="128" height="62" viewBox="0 0 152 62" fill="none" xmlns="http://www.w3.org/2000/svg">
<g filter="url(#filter0_f)">
<ellipse cx="76.5" cy="39" rx="62.5" ry="9" fill="#131529" fill-opacity="0.5"/>
</g>
<g filter="url(#filter1_b)">
<path fill-rule="evenodd" clip-rule="evenodd" d="M38.2344 0C36.798 0 35.431 0.617748 34.4818 1.6958L22.595 15.1958C20.9319 17.0847 20.9319 19.9153 22.595 21.8042L34.4818 35.3042C35.431 36.3823 36.798 37 38.2344 37H65.3969H116.18H139V0H116.18H65.3969H38.2344Z" fill="#FDB533"/>
</g>
<path d="M57.1777 11.2031V19.6318C57.1777 21.0322 56.7383 22.1396 55.8594 22.9541C54.9863 23.7686 53.791 24.1758 52.2734 24.1758C50.7793 24.1758 49.5928 23.7803 48.7139 22.9893C47.835 22.1982 47.3867 21.1113 47.3691 19.7285V11.2031H50.0059V19.6494C50.0059 20.4873 50.2051 21.0996 50.6035 21.4863C51.0078 21.8672 51.5645 22.0576 52.2734 22.0576C53.7559 22.0576 54.5088 21.2783 54.5322 19.7197V11.2031H57.1777ZM67.7334 19.333C67.7334 20.7979 67.3994 21.9727 66.7314 22.8574C66.0693 23.7363 65.1729 24.1758 64.042 24.1758C63.0811 24.1758 62.3047 23.8418 61.7129 23.1738V27.6562H59.1729V14.4902H61.5283L61.6162 15.4219C62.2314 14.6836 63.0342 14.3145 64.0244 14.3145C65.1963 14.3145 66.1074 14.748 66.7578 15.6152C67.4082 16.4824 67.7334 17.6777 67.7334 19.2012V19.333ZM65.1934 19.1484C65.1934 18.2637 65.0352 17.5811 64.7188 17.1006C64.4082 16.6201 63.9541 16.3799 63.3564 16.3799C62.5596 16.3799 62.0117 16.6846 61.7129 17.2939V21.1875C62.0234 21.8145 62.5771 22.1279 63.374 22.1279C64.5869 22.1279 65.1934 21.1348 65.1934 19.1484ZM73.2705 22.1279C73.7393 22.1279 74.1201 21.999 74.4131 21.7412C74.7061 21.4834 74.8584 21.1406 74.8701 20.7129H77.252C77.2461 21.3574 77.0703 21.9492 76.7246 22.4883C76.3789 23.0215 75.9043 23.4375 75.3008 23.7363C74.7031 24.0293 74.041 24.1758 73.3145 24.1758C71.9551 24.1758 70.8828 23.7451 70.0977 22.8838C69.3125 22.0166 68.9199 20.8213 68.9199 19.2979V19.1309C68.9199 17.666 69.3096 16.4971 70.0889 15.624C70.8682 14.751 71.9375 14.3145 73.2969 14.3145C74.4863 14.3145 75.4385 14.6543 76.1533 15.334C76.874 16.0078 77.2402 16.9072 77.252 18.0322H74.8701C74.8584 17.54 74.7061 17.1416 74.4131 16.8369C74.1201 16.5264 73.7334 16.3711 73.2529 16.3711C72.6611 16.3711 72.2129 16.5879 71.9082 17.0215C71.6094 17.4492 71.46 18.1465 71.46 19.1133V19.377C71.46 20.3555 71.6094 21.0586 71.9082 21.4863C72.207 21.9141 72.6611 22.1279 73.2705 22.1279ZM78.3066 19.1572C78.3066 18.2139 78.4883 17.373 78.8516 16.6348C79.2148 15.8965 79.7363 15.3252 80.416 14.9209C81.1016 14.5166 81.8955 14.3145 82.7979 14.3145C84.0811 14.3145 85.127 14.707 85.9355 15.4922C86.75 16.2773 87.2041 17.3438 87.2979 18.6914L87.3154 19.3418C87.3154 20.8008 86.9082 21.9727 86.0938 22.8574C85.2793 23.7363 84.1865 24.1758 82.8154 24.1758C81.4443 24.1758 80.3486 23.7363 79.5283 22.8574C78.7139 21.9785 78.3066 20.7832 78.3066 19.2715V19.1572ZM80.8467 19.3418C80.8467 20.2441 81.0166 20.9355 81.3564 21.416C81.6963 21.8906 82.1826 22.1279 82.8154 22.1279C83.4307 22.1279 83.9111 21.8936 84.2568 21.4248C84.6025 20.9502 84.7754 20.1943 84.7754 19.1572C84.7754 18.2725 84.6025 17.5869 84.2568 17.1006C83.9111 16.6143 83.4248 16.3711 82.7979 16.3711C82.1768 16.3711 81.6963 16.6143 81.3564 17.1006C81.0166 17.5811 80.8467 18.3281 80.8467 19.3418ZM91.2617 14.4902L91.3408 15.5537C92.0146 14.7275 92.9258 14.3145 94.0742 14.3145C95.2988 14.3145 96.1396 14.7979 96.5967 15.7646C97.2646 14.7979 98.2168 14.3145 99.4531 14.3145C100.484 14.3145 101.252 14.6162 101.756 15.2197C102.26 15.8174 102.512 16.7197 102.512 17.9268V24H99.9629V17.9355C99.9629 17.3965 99.8574 17.0039 99.6465 16.7578C99.4355 16.5059 99.0635 16.3799 98.5303 16.3799C97.7686 16.3799 97.2412 16.7432 96.9482 17.4697L96.957 24H94.417V17.9443C94.417 17.3936 94.3086 16.9951 94.0918 16.749C93.875 16.5029 93.5059 16.3799 92.9844 16.3799C92.2637 16.3799 91.7422 16.6787 91.4199 17.2764V24H88.8799V14.4902H91.2617ZM107.152 24H104.604V14.4902H107.152V24ZM104.454 12.0293C104.454 11.6484 104.58 11.335 104.832 11.0889C105.09 10.8428 105.438 10.7197 105.878 10.7197C106.312 10.7197 106.657 10.8428 106.915 11.0889C107.173 11.335 107.302 11.6484 107.302 12.0293C107.302 12.416 107.17 12.7324 106.906 12.9785C106.648 13.2246 106.306 13.3477 105.878 13.3477C105.45 13.3477 105.104 13.2246 104.841 12.9785C104.583 12.7324 104.454 12.416 104.454 12.0293ZM111.591 14.4902L111.67 15.5889C112.35 14.7393 113.261 14.3145 114.403 14.3145C115.411 14.3145 116.161 14.6104 116.653 15.2021C117.146 15.7939 117.397 16.6787 117.409 17.8564V24H114.869V17.918C114.869 17.3789 114.752 16.9893 114.518 16.749C114.283 16.5029 113.894 16.3799 113.349 16.3799C112.634 16.3799 112.098 16.6846 111.74 17.2939V24H109.2V14.4902H111.591ZM118.974 19.1748C118.974 17.7158 119.319 16.541 120.011 15.6504C120.708 14.7598 121.646 14.3145 122.823 14.3145C123.866 14.3145 124.678 14.6719 125.258 15.3867L125.363 14.4902H127.666V23.6836C127.666 24.5156 127.476 25.2393 127.095 25.8545C126.72 26.4697 126.189 26.9385 125.504 27.2607C124.818 27.583 124.016 27.7441 123.096 27.7441C122.398 27.7441 121.719 27.6035 121.057 27.3223C120.395 27.0469 119.894 26.6895 119.554 26.25L120.679 24.7031C121.312 25.4121 122.079 25.7666 122.981 25.7666C123.655 25.7666 124.18 25.585 124.555 25.2217C124.93 24.8643 125.117 24.3545 125.117 23.6924V23.1826C124.531 23.8447 123.761 24.1758 122.806 24.1758C121.663 24.1758 120.737 23.7305 120.028 22.8398C119.325 21.9434 118.974 20.7568 118.974 19.2803V19.1748ZM121.514 19.3594C121.514 20.2207 121.687 20.8975 122.032 21.3896C122.378 21.876 122.853 22.1191 123.456 22.1191C124.229 22.1191 124.783 21.8291 125.117 21.249V17.25C124.777 16.6699 124.229 16.3799 123.474 16.3799C122.864 16.3799 122.384 16.6289 122.032 17.127C121.687 17.625 121.514 18.3691 121.514 19.3594Z" fill="#101133"/>
<defs>
<filter id="filter0_f" x="0" y="16" width="153" height="46" filterUnits="userSpaceOnUse" color-interpolation-filters="sRGB">
<feFlood flood-opacity="0" result="BackgroundImageFix"/>
<feBlend mode="normal" in="SourceGraphic" in2="BackgroundImageFix" result="shape"/>
<feGaussianBlur stdDeviation="7" result="effect1_foregroundBlur"/>
</filter>
<filter id="filter1_b" x="3.34766" y="-18" width="153.652" height="73" filterUnits="userSpaceOnUse" color-interpolation-filters="sRGB">
<feFlood flood-opacity="0" result="BackgroundImageFix"/>
<feGaussianBlur in="BackgroundImage" stdDeviation="9"/>
<feComposite in2="SourceAlpha" operator="in" result="effect1_backgroundBlur"/>
<feBlend mode="normal" in="SourceGraphic" in2="effect1_backgroundBlur" result="shape"/>
</filter>
</defs>
</svg>
