<svg width="100" height="94" viewBox="0 0 100 94" fill="none" xmlns="http://www.w3.org/2000/svg">
<g filter="url(#filter0_d_2952_209796)">
<path fill-rule="evenodd" clip-rule="evenodd" d="M50 14.8335C46.742 14.8325 43.5552 15.7863 40.8335 17.5772C38.1119 19.368 35.9748 21.9172 34.6865 24.9097C33.3982 27.9021 33.0152 31.2065 33.5848 34.4143C34.1545 37.6221 35.6518 40.5926 37.8917 42.9585C33.2341 45.5342 29.5204 49.5296 27.2915 54.3628C25.0627 59.196 24.435 64.6146 25.5 69.8293C25.6913 70.7712 26.2023 71.6181 26.9464 72.2263C27.6906 72.8346 28.6222 73.1668 29.5833 73.1668H70.4167C71.3778 73.1668 72.3094 72.8346 73.0535 72.2263C73.7977 71.6181 74.3087 70.7712 74.5 69.8293C75.5659 64.614 74.9387 59.1945 72.7098 54.3604C70.4809 49.5264 66.7667 45.5303 62.1083 42.9543C64.3468 40.5883 65.8429 37.6181 66.4118 34.4111C66.9807 31.204 66.5974 27.9005 65.3092 24.9088C64.0211 21.9172 61.8846 19.3686 59.1638 17.578C56.443 15.7874 53.2572 14.8332 50 14.8335V14.8335ZM69.1 38.9127C70.2083 36.6793 70.8333 34.1627 70.8333 31.5002C70.8333 28.8377 70.2083 26.321 69.1 24.0877C70.0792 22.7701 71.3083 21.6582 72.7171 20.8156C74.126 19.9731 75.687 19.4162 77.3111 19.1769C78.9351 18.9376 80.5904 19.0205 82.1824 19.4209C83.7744 19.8214 85.272 20.5314 86.5896 21.5106C87.9072 22.4897 89.019 23.7189 89.8616 25.1277C90.7042 26.5366 91.261 28.0976 91.5003 29.7216C91.7396 31.3457 91.6567 33.001 91.2563 34.593C90.8559 36.185 90.1458 37.6826 89.1667 39.0002C91.2366 40.5526 92.9167 42.5657 94.0738 44.8799C95.2309 47.1942 95.8333 49.7461 95.8333 52.3335V56.5002C95.8333 57.6052 95.3943 58.665 94.6129 59.4464C93.8315 60.2278 92.7717 60.6668 91.6667 60.6668H78.8208C78.1926 56.9623 76.7382 53.4469 74.5656 50.3813C72.393 47.3157 69.5579 44.7787 66.2708 42.9585C67.35 41.8186 68.2631 40.5324 68.9833 39.1377C69.0441 39.0914 69.1052 39.0455 69.1667 39.0002L69.1 38.9127V38.9127ZM33.725 42.9543C32.6476 41.8155 31.7359 40.5306 31.0167 39.1377C30.9559 39.0914 30.8948 39.0456 30.8333 39.0002L30.9 38.9127C29.7558 36.6095 29.1625 34.0719 29.1667 31.5002C29.1667 28.8377 29.7917 26.321 30.9 24.0877C29.9208 22.7701 28.6917 21.6582 27.2829 20.8156C25.874 19.9731 24.313 19.4162 22.6889 19.1769C21.0649 18.9376 19.4096 19.0205 17.8176 19.4209C16.2256 19.8214 14.728 20.5314 13.4104 21.5106C12.0928 22.4897 10.981 23.7189 10.1384 25.1277C9.2958 26.5366 8.73896 28.0976 8.49966 29.7216C8.26035 31.3457 8.34327 33.001 8.74368 34.593C9.1441 36.185 9.85416 37.6826 10.8333 39.0002C7.98944 41.1271 5.90052 44.108 4.87196 47.507C3.8434 50.9061 3.92914 54.545 5.11666 57.8918C5.40414 58.7031 5.93583 59.4055 6.63865 59.9024C7.34147 60.3993 8.18093 60.6663 9.04166 60.6668H21.175C21.8028 56.9627 23.2566 53.4475 25.4284 50.3819C27.6003 47.3164 30.4345 44.7791 33.7208 42.9585L33.725 42.9543Z" fill="#49A2F2"/>
</g>
<defs>
<filter id="filter0_d_2952_209796" x="-13.8413" y="0.833496" width="127.675" height="94.3335" filterUnits="userSpaceOnUse" color-interpolation-filters="sRGB">
<feFlood flood-opacity="0" result="BackgroundImageFix"/>
<feColorMatrix in="SourceAlpha" type="matrix" values="0 0 0 0 0 0 0 0 0 0 0 0 0 0 0 0 0 0 127 0" result="hardAlpha"/>
<feOffset dy="4"/>
<feGaussianBlur stdDeviation="9"/>
<feComposite in2="hardAlpha" operator="out"/>
<feColorMatrix type="matrix" values="0 0 0 0 0.450204 0 0 0 0 0.722126 0 0 0 0 0.966551 0 0 0 0.45 0"/>
<feBlend mode="normal" in2="BackgroundImageFix" result="effect1_dropShadow_2952_209796"/>
<feBlend mode="normal" in="SourceGraphic" in2="effect1_dropShadow_2952_209796" result="shape"/>
</filter>
</defs>
</svg>
