<svg width="11" height="11" viewBox="0 0 11 11" fill="none" xmlns="http://www.w3.org/2000/svg">
<path fill-rule="evenodd" clip-rule="evenodd" d="M1.46826 3H4.59326V4.25H1.46826V9.25H6.46826V6.125H7.71826V9.25C7.71826 9.58152 7.58656 9.89946 7.35214 10.1339C7.11772 10.3683 6.79978 10.5 6.46826 10.5H1.46826C1.13674 10.5 0.818799 10.3683 0.584378 10.1339C0.349958 9.89946 0.218262 9.58152 0.218262 9.25V4.25C0.218262 3.91848 0.349958 3.60054 0.584378 3.36612C0.818799 3.1317 1.13674 3 1.46826 3ZM8.10201 1.75H5.21826V0.5H10.2183V5.5H8.96826V2.65125L5.63326 5.98625L4.74951 5.1025L8.10201 1.75Z" fill="#49A2F2"/>
</svg>
