<svg width="100" height="100" viewBox="0 0 100 100" fill="none" xmlns="http://www.w3.org/2000/svg">
<g filter="url(#filter0_d_2952_209808)">
<path fill-rule="evenodd" clip-rule="evenodd" d="M79.1083 53.5196C81.8753 49.1786 83.3414 44.1361 83.3333 38.9883C83.3333 24.03 71.2083 11.905 56.25 11.905C50.9021 11.905 45.9167 13.455 41.7188 16.1279C38.925 16.2846 36.1598 16.7727 33.4813 17.5821C36.4003 14.4699 39.9274 11.9903 43.844 10.2971C47.7605 8.60379 51.9831 7.73288 56.25 7.73831C73.5083 7.73831 87.5 21.73 87.5 38.9883C87.5 47.9633 83.7167 56.0571 77.6563 61.7571C78.45 59.1258 78.9479 56.3675 79.1083 53.5196Z" fill="#49A2F2"/>
</g>
<g filter="url(#filter1_d_2952_209808)">
<path fill-rule="evenodd" clip-rule="evenodd" d="M83.1938 54.8279C81.6853 57.3881 79.8208 59.7211 77.6563 61.7571C78.45 59.1258 78.9479 56.3675 79.1084 53.5196C81.8753 49.1786 83.3414 44.1361 83.3334 38.9883C83.3334 24.03 71.2084 11.905 56.25 11.905C50.9021 11.905 45.9167 13.455 41.7188 16.1279C38.925 16.2846 36.1598 16.7728 33.4813 17.5821C35.5172 15.4176 37.8502 13.5531 40.4104 12.0446C45.2095 9.21675 50.6798 7.72955 56.25 7.73832C73.5084 7.73832 87.5 21.73 87.5 38.9883C87.5098 44.5587 86.0225 50.0293 83.1938 54.8279Z" fill="#49A2F2"/>
</g>
<g filter="url(#filter2_d_2952_209808)">
<path fill-rule="evenodd" clip-rule="evenodd" d="M75 51.4883C75 68.7466 61.0083 82.7383 43.75 82.7383C26.4917 82.7383 12.5 68.7466 12.5 51.4883C12.5 34.2299 26.4917 20.2383 43.75 20.2383C61.0083 20.2383 75 34.2299 75 51.4883ZM41.6667 41.0716C40.5616 41.0716 39.5018 41.5106 38.7204 42.292C37.939 43.0734 37.5 44.1332 37.5 45.2383C37.5 46.3433 37.939 47.4032 38.7204 48.1846C39.5018 48.966 40.5616 49.4049 41.6667 49.4049V41.0716ZM45.8333 36.9049V34.8216H41.6667V36.9049C39.4565 36.9049 37.3369 37.7829 35.7741 39.3457C34.2113 40.9085 33.3333 43.0281 33.3333 45.2383C33.3333 47.4484 34.2113 49.568 35.7741 51.1308C37.3369 52.6936 39.4565 53.5716 41.6667 53.5716V61.9049C39.8542 61.9049 38.3104 60.7487 37.7354 59.1279C37.6501 58.8627 37.5125 58.6173 37.3307 58.4062C37.1489 58.1952 36.9266 58.0227 36.677 57.8991C36.4274 57.7754 36.1555 57.7031 35.8775 57.6863C35.5994 57.6696 35.3208 57.7088 35.0582 57.8016C34.7955 57.8944 34.5541 58.0389 34.3483 58.2266C34.1425 58.4143 33.9764 58.6414 33.8599 58.8944C33.7434 59.1474 33.6788 59.4212 33.6699 59.6997C33.661 59.9781 33.7081 60.2555 33.8083 60.5154C34.383 62.1403 35.4473 63.5472 36.8546 64.5422C38.2619 65.5373 39.9431 66.0716 41.6667 66.0716V68.1549H45.8333V66.0716C48.0435 66.0716 50.1631 65.1936 51.7259 63.6308C53.2887 62.068 54.1667 59.9484 54.1667 57.7383C54.1667 55.5281 53.2887 53.4085 51.7259 51.8457C50.1631 50.2829 48.0435 49.4049 45.8333 49.4049V41.0716C47.6458 41.0716 49.1896 42.2279 49.7646 43.8487C49.8499 44.1139 49.9875 44.3593 50.1693 44.5703C50.3511 44.7814 50.5734 44.9538 50.823 45.0775C51.0726 45.2011 51.3445 45.2735 51.6225 45.2902C51.9006 45.307 52.1792 45.2678 52.4418 45.175C52.7045 45.0822 52.9459 44.9377 53.1517 44.75C53.3575 44.5623 53.5236 44.3352 53.6401 44.0822C53.7566 43.8291 53.8212 43.5553 53.8301 43.2769C53.8389 42.9985 53.7919 42.7211 53.6917 42.4612C53.117 40.8362 52.0527 39.4294 50.6454 38.4344C49.2381 37.4393 47.5569 36.905 45.8333 36.9049ZM45.8333 53.5716V61.9049C46.9384 61.9049 47.9982 61.466 48.7796 60.6846C49.561 59.9032 50 58.8433 50 57.7383C50 56.6332 49.561 55.5734 48.7796 54.792C47.9982 54.0106 46.9384 53.5716 45.8333 53.5716Z" fill="#49A2F2"/>
</g>
<defs>
<filter id="filter0_d_2952_209808" x="15.4813" y="-6.26172" width="90.0187" height="90.0186" filterUnits="userSpaceOnUse" color-interpolation-filters="sRGB">
<feFlood flood-opacity="0" result="BackgroundImageFix"/>
<feColorMatrix in="SourceAlpha" type="matrix" values="0 0 0 0 0 0 0 0 0 0 0 0 0 0 0 0 0 0 127 0" result="hardAlpha"/>
<feOffset dy="4"/>
<feGaussianBlur stdDeviation="9"/>
<feComposite in2="hardAlpha" operator="out"/>
<feColorMatrix type="matrix" values="0 0 0 0 0.450204 0 0 0 0 0.722126 0 0 0 0 0.966551 0 0 0 0.45 0"/>
<feBlend mode="normal" in2="BackgroundImageFix" result="effect1_dropShadow_2952_209808"/>
<feBlend mode="normal" in="SourceGraphic" in2="effect1_dropShadow_2952_209808" result="shape"/>
</filter>
<filter id="filter1_d_2952_209808" x="15.4813" y="-6.26172" width="90.0188" height="90.0186" filterUnits="userSpaceOnUse" color-interpolation-filters="sRGB">
<feFlood flood-opacity="0" result="BackgroundImageFix"/>
<feColorMatrix in="SourceAlpha" type="matrix" values="0 0 0 0 0 0 0 0 0 0 0 0 0 0 0 0 0 0 127 0" result="hardAlpha"/>
<feOffset dy="4"/>
<feGaussianBlur stdDeviation="9"/>
<feComposite in2="hardAlpha" operator="out"/>
<feColorMatrix type="matrix" values="0 0 0 0 0.450204 0 0 0 0 0.722126 0 0 0 0 0.966551 0 0 0 0.45 0"/>
<feBlend mode="normal" in2="BackgroundImageFix" result="effect1_dropShadow_2952_209808"/>
<feBlend mode="normal" in="SourceGraphic" in2="effect1_dropShadow_2952_209808" result="shape"/>
</filter>
<filter id="filter2_d_2952_209808" x="-5.5" y="6.23828" width="98.5" height="98.5" filterUnits="userSpaceOnUse" color-interpolation-filters="sRGB">
<feFlood flood-opacity="0" result="BackgroundImageFix"/>
<feColorMatrix in="SourceAlpha" type="matrix" values="0 0 0 0 0 0 0 0 0 0 0 0 0 0 0 0 0 0 127 0" result="hardAlpha"/>
<feOffset dy="4"/>
<feGaussianBlur stdDeviation="9"/>
<feComposite in2="hardAlpha" operator="out"/>
<feColorMatrix type="matrix" values="0 0 0 0 0.450204 0 0 0 0 0.722126 0 0 0 0 0.966551 0 0 0 0.45 0"/>
<feBlend mode="normal" in2="BackgroundImageFix" result="effect1_dropShadow_2952_209808"/>
<feBlend mode="normal" in="SourceGraphic" in2="effect1_dropShadow_2952_209808" result="shape"/>
</filter>
</defs>
</svg>
