<svg width="311" height="312" viewBox="0 0 311 312" fill="none" xmlns="http://www.w3.org/2000/svg">
<path d="M291 0H20C8.9543 0 0 8.9543 0 20V291C0 302.046 8.9543 311 20 311H291C302.046 311 311 302.046 311 291V20C311 8.9543 302.046 0 291 0Z" fill="url(#paint0_linear)"/>
<mask id="mask0" style="mask-type:alpha" maskUnits="userSpaceOnUse" x="0" y="187" width="311" height="125">
<path d="M0 291.162C0 302.208 8.9543 311.162 20 311.162H291C302.046 311.162 311 302.208 311 291.162V187.003H0V291.162Z" fill="url(#paint1_linear)"/>
</mask>
<g mask="url(#mask0)">
<g opacity="0.3" filter="url(#filter0_i)">
<path opacity="0.3" d="M212.803 264.471C68.3106 147.392 62.5929 264.471 2.35594 264.471C-57.8811 264.471 38.1929 344.014 38.1929 344.014L117.873 360.816L118.042 360.831C196.134 367.569 357.19 381.466 212.803 264.471Z" fill="url(#paint2_linear)"/>
</g>
<g opacity="0.3" filter="url(#filter1_i)">
<path opacity="0.3" d="M156.215 231.461C369.836 135.134 326.892 285.933 395.336 307.777C463.781 329.622 321.026 395.824 321.026 395.824L223.394 388.272L223.195 388.23C131.618 368.47 -57.253 327.718 156.215 231.461Z" fill="url(#paint3_linear)"/>
</g>
</g>
<defs>
<filter id="filter0_i" x="-23.4937" y="209.436" width="294.323" height="155.708" filterUnits="userSpaceOnUse" color-interpolation-filters="sRGB">
<feFlood flood-opacity="0" result="BackgroundImageFix"/>
<feBlend mode="normal" in="SourceGraphic" in2="BackgroundImageFix" result="shape"/>
<feColorMatrix in="SourceAlpha" type="matrix" values="0 0 0 0 0 0 0 0 0 0 0 0 0 0 0 0 0 0 127 0" result="hardAlpha"/>
<feOffset dx="-6" dy="-3"/>
<feGaussianBlur stdDeviation="7.5"/>
<feComposite in2="hardAlpha" operator="arithmetic" k2="-1" k3="1"/>
<feColorMatrix type="matrix" values="0 0 0 0 1 0 0 0 0 1 0 0 0 0 1 0 0 0 0.46 0"/>
<feBlend mode="normal" in2="shape" result="effect1_innerShadow"/>
</filter>
<filter id="filter1_i" x="52.3533" y="196.608" width="361.556" height="199.216" filterUnits="userSpaceOnUse" color-interpolation-filters="sRGB">
<feFlood flood-opacity="0" result="BackgroundImageFix"/>
<feBlend mode="normal" in="SourceGraphic" in2="BackgroundImageFix" result="shape"/>
<feColorMatrix in="SourceAlpha" type="matrix" values="0 0 0 0 0 0 0 0 0 0 0 0 0 0 0 0 0 0 127 0" result="hardAlpha"/>
<feOffset dx="-6" dy="-3"/>
<feGaussianBlur stdDeviation="7.5"/>
<feComposite in2="hardAlpha" operator="arithmetic" k2="-1" k3="1"/>
<feColorMatrix type="matrix" values="0 0 0 0 1 0 0 0 0 1 0 0 0 0 1 0 0 0 0.46 0"/>
<feBlend mode="normal" in2="shape" result="effect1_innerShadow"/>
</filter>
<linearGradient id="paint0_linear" x1="28.4343" y1="-146.486" x2="398.718" y2="84.8986" gradientUnits="userSpaceOnUse">
<stop stop-color="#2E7B93"/>
<stop offset="1" stop-color="#416D65"/>
</linearGradient>
<linearGradient id="paint1_linear" x1="28.4343" y1="369.643" x2="177.673" y2="136.048" gradientUnits="userSpaceOnUse">
<stop stop-color="#2E7B93"/>
<stop offset="1" stop-color="#2F3150"/>
</linearGradient>
<linearGradient id="paint2_linear" x1="54.5868" y1="231.224" x2="122.073" y2="184.459" gradientUnits="userSpaceOnUse">
<stop stop-color="#FCE621"/>
<stop offset="1" stop-color="#1DE0B1"/>
</linearGradient>
<linearGradient id="paint3_linear" x1="350.029" y1="246.602" x2="285.068" y2="169.486" gradientUnits="userSpaceOnUse">
<stop stop-color="#FCE621"/>
<stop offset="1" stop-color="#1DE0B1"/>
</linearGradient>
</defs>
</svg>
